<?xml version="1.0" encoding="utf-8"?>
<!-- Generator: Adobe Illustrator 14.0.0, SVG Export Plug-In . SVG Version: 6.00 Build 43363)  -->
<!DOCTYPE svg PUBLIC "-//W3C//DTD SVG 1.1//EN" "http://www.w3.org/Graphics/SVG/1.1/DTD/svg11.dtd">
<svg version="1.1" id="Calque_1" xmlns="http://www.w3.org/2000/svg" xmlns:xlink="http://www.w3.org/1999/xlink" x="0px" y="0px"
	 width="136.466px" height="68.766px" viewBox="0 0 136.466 68.766" enable-background="new 0 0 136.466 68.766"
	 xml:space="preserve">
<path fill="#FFFFFF" d="M122.804,0.219c7.499,0,13.563,6.059,13.563,13.593l-0.041,41.3c0,7.494-6.063,13.554-13.562,13.554H13.663
	c-7.499,0-13.602-6.06-13.563-13.514l0.08-41.499C0.18,6.158,6.244,0.1,13.743,0.1L122.804,0.219z"/>
<path fill="none" stroke="#000000" stroke-width="0.199" stroke-miterlimit="3.863" d="M122.804,0.219
	c7.499,0,13.563,6.059,13.563,13.593l-0.041,41.3c0,7.494-6.063,13.554-13.562,13.554H13.663c-7.499,0-13.602-6.06-13.563-13.514
	l0.08-41.499C0.18,6.158,6.244,0.1,13.743,0.1L122.804,0.219z"/>
<path d="M51.24,22.503l16.435,14.59c-0.678,0.718-0.997,1.714-0.997,2.711c0,2.072,1.715,3.906,3.789,4.186v4.823h-0.638v0.877
	h2.113v-0.877h-0.598V44.03c1.955-0.12,3.47-1.675,3.789-3.508h2.273c0.359,7.972,6.901,14.312,14.879,14.312
	c8.258,0,14.959-6.658,14.959-14.91c0-8.211-6.701-14.87-14.959-14.87c-2.473,0-4.826,0.598-6.86,1.714l-4.188-7.693l0.957-1.994
	c0.359-0.677,1.197-0.478,1.715-0.996c0.08-0.319,0.08-0.598,0.08-0.917c-0.279-0.12-0.398-0.479-0.718-0.479h-5.505
	c-0.159,0.16-0.359,0.08-0.479,0.08c-0.039,0.08-0.119,0.12-0.199,0.2c-0.04,0.279-0.12,0.637,0,0.916
	c0.08,0.08,0.199,0.12,0.279,0.12h2.793c0.358-0.04,0.598,0.08,0.916,0.159c0.08,0.12,0.08,0.12,0.201,0.16
	c-0.041,0.199,0.158,0.478,0.078,0.678l-0.598,1.315H52.197l0.798-3.428c0.639-0.2,1.157,0.279,2.473-0.319
	c0.519,0,1.716-0.638,3.232-0.12c0.239-0.119-0.12-0.279,0.04-0.478c-0.12-0.04,0.199-0.399,0.159-0.518
	c-0.878-0.24-2.752-0.399-3.67,0.119c-0.917,0.558-2.154,0.2-2.952,0.279l-2.832,12.119c-1.635-0.678-3.47-0.997-5.305-0.997
	c-8.258,0-14.919,6.698-14.919,14.869c0,8.252,6.661,14.949,14.919,14.949c8.177,0,14.879-6.697,14.879-14.949
	c0-6.02-3.59-11.122-8.696-13.474L51.24,22.503z"/>
<path fill="none" stroke="#000000" stroke-width="0.199" stroke-miterlimit="3.863" d="M51.24,22.503l16.435,14.59
	c-0.678,0.718-0.997,1.714-0.997,2.711c0,2.072,1.715,3.906,3.789,4.186v4.823h-0.638v0.877h2.113v-0.877h-0.598V44.03
	c1.955-0.12,3.47-1.675,3.789-3.508h2.273c0.359,7.972,6.901,14.312,14.879,14.312c8.258,0,14.959-6.658,14.959-14.91
	c0-8.211-6.701-14.87-14.959-14.87c-2.473,0-4.826,0.598-6.86,1.714l-4.188-7.693l0.957-1.994c0.359-0.677,1.197-0.478,1.715-0.996
	c0.08-0.319,0.08-0.598,0.08-0.917c-0.279-0.12-0.398-0.479-0.718-0.479h-5.505c-0.159,0.16-0.359,0.08-0.479,0.08
	c-0.039,0.08-0.119,0.12-0.199,0.2c-0.04,0.279-0.12,0.637,0,0.916c0.08,0.08,0.199,0.12,0.279,0.12h2.793
	c0.358-0.04,0.598,0.08,0.916,0.159c0.08,0.12,0.08,0.12,0.201,0.16c-0.041,0.199,0.158,0.478,0.078,0.678l-0.598,1.315H52.197
	l0.798-3.428c0.639-0.2,1.157,0.279,2.473-0.319c0.519,0,1.716-0.638,3.232-0.12c0.239-0.119-0.12-0.279,0.04-0.478
	c-0.12-0.04,0.199-0.399,0.159-0.518c-0.878-0.24-2.752-0.399-3.67,0.119c-0.917,0.558-2.154,0.2-2.952,0.279l-2.832,12.119
	c-1.635-0.678-3.47-0.997-5.305-0.997c-8.258,0-14.919,6.698-14.919,14.869c0,8.252,6.661,14.949,14.919,14.949
	c8.177,0,14.879-6.697,14.879-14.949c0-6.02-3.59-11.122-8.696-13.474L51.24,22.503z"/>
<path fill="none" stroke="#000000" stroke-width="0.199" stroke-miterlimit="3.863" d="M41.706,24.019
	c0.878-0.16,1.636-0.279,2.434-0.279c8.855,0,16.075,7.255,16.075,16.185c0,0.519,0,0.957-0.079,1.515"/>
<path fill="#FFFFFF" d="M45.335,38.09c-0.319-0.278-0.798-0.198-1.236-0.198c-1.197,0-2.234,0.995-2.234,2.151
	c0,1.196,1.037,2.153,2.234,2.153c0.957,0,1.875-0.638,2.154-1.555h11.249C57.063,47.697,51.24,53.278,44.1,53.278
	c-7.54,0-13.563-6.019-13.563-13.474c0-7.494,6.023-13.514,13.563-13.514c1.755,0,3.47,0.319,5.026,0.997l-0.838,3.667
	C47.77,33.027,47.012,35.539,45.335,38.09z"/>
<path fill="none" stroke="#000000" stroke-width="0.199" stroke-miterlimit="3.863" d="M45.335,38.09
	c-0.319-0.278-0.798-0.198-1.236-0.198c-1.197,0-2.234,0.995-2.234,2.151c0,1.196,1.037,2.153,2.234,2.153
	c0.957,0,1.875-0.638,2.154-1.555h11.249C57.063,47.697,51.24,53.278,44.1,53.278c-7.54,0-13.563-6.019-13.563-13.474
	c0-7.494,6.023-13.514,13.563-13.514c1.755,0,3.47,0.319,5.026,0.997l-0.838,3.667C47.77,33.027,47.012,35.539,45.335,38.09z"/>
<path fill="#FFFFFF" d="M50.042,27.686l-0.997,3.867c-0.439,1.874-1.875,5.622-3.111,7.136c0.159,0.239,0.319,0.558,0.359,0.917
	h11.289C57.462,34.303,54.431,29.838,50.042,27.686z"/>
<path fill="none" stroke="#000000" stroke-width="0.199" stroke-miterlimit="3.863" d="M50.042,27.686l-0.997,3.867
	c-0.439,1.874-1.875,5.622-3.111,7.136c0.159,0.239,0.319,0.558,0.359,0.917h11.289C57.462,34.303,54.431,29.838,50.042,27.686z"/>
<path fill="#FFFFFF" d="M51.479,21.586l0.399-2.352h28.362l-7.857,16.544c-0.319-0.12-0.598-0.399-1.117-0.239v-4.744h0.678v-0.837
	h-2.193v0.837h0.678v4.783c-0.797,0.16-1.436,0.479-2.034,0.917L51.479,21.586z"/>
<path fill="none" stroke="#000000" stroke-width="0.199" stroke-miterlimit="3.863" d="M51.479,21.586l0.399-2.352h28.362
	l-7.857,16.544c-0.319-0.12-0.598-0.399-1.117-0.239v-4.744h0.678v-0.837h-2.193v0.837h0.678v4.783
	c-0.797,0.16-1.436,0.479-2.034,0.917L51.479,21.586z"/>
<path fill="#FFFFFF" d="M95.239,38.409l8.976-4.904c1.036,1.874,1.635,4.107,1.635,6.418c0,7.455-6.022,13.475-13.483,13.475
	c-7.26,0-13.164-5.701-13.482-12.876h10.531c0.279,1.354,1.516,2.392,2.951,2.392c1.637,0,3.072-1.355,3.072-2.99
	c0-0.519-0.119-0.996-0.318-1.396L95.239,38.409z"/>
<path fill="none" stroke="#000000" stroke-width="0.199" stroke-miterlimit="3.863" d="M95.239,38.409l8.976-4.904
	c1.036,1.874,1.635,4.107,1.635,6.418c0,7.455-6.022,13.475-13.483,13.475c-7.26,0-13.164-5.701-13.482-12.876h10.531
	c0.279,1.354,1.516,2.392,2.951,2.392c1.637,0,3.072-1.355,3.072-2.99c0-0.519-0.119-0.996-0.318-1.396L95.239,38.409z"/>
<path fill="#FFFFFF" d="M94.721,37.892l9.095-4.984c-2.354-3.866-6.621-6.497-11.529-6.497c-2.153,0-4.228,0.558-6.063,1.475
	l5.105,9.208c0.319-0.119,0.719-0.199,1.117-0.199C93.284,36.895,94.081,37.293,94.721,37.892z"/>
<path fill="none" stroke="#000000" stroke-width="0.199" stroke-miterlimit="3.863" d="M94.721,37.892l9.095-4.984
	c-2.354-3.866-6.621-6.497-11.529-6.497c-2.153,0-4.228,0.558-6.063,1.475l5.105,9.208c0.319-0.119,0.719-0.199,1.117-0.199
	C93.284,36.895,94.081,37.293,94.721,37.892z"/>
<path fill="#FFFFFF" d="M85.506,28.443l5.106,9.248c-0.559,0.439-0.918,1.116-1.078,1.834h-10.73
	c0.12-4.704,2.673-8.85,6.503-11.122L85.506,28.443z"/>
<path fill="none" stroke="#000000" stroke-width="0.199" stroke-miterlimit="3.863" d="M85.506,28.443l5.106,9.248
	c-0.559,0.439-0.918,1.116-1.078,1.834h-10.73c0.12-4.704,2.673-8.85,6.503-11.122L85.506,28.443z"/>
<path fill="#FFFFFF" d="M80.759,19.991l-7.381,16.265c1.117,0.719,1.875,1.953,1.955,3.35h2.234
	c0.119-5.262,2.952-9.847,7.18-12.398L80.759,19.991z"/>
<path fill="none" stroke="#000000" stroke-width="0.199" stroke-miterlimit="3.863" d="M80.759,19.991l-7.381,16.265
	c1.117,0.719,1.875,1.953,1.955,3.35h2.234c0.119-5.262,2.952-9.847,7.18-12.398L80.759,19.991z"/>
<path fill="none" stroke="#000000" stroke-width="0.199" stroke-miterlimit="3.863" d="M76.571,42.355
	c-0.121-0.797-0.201-1.594-0.201-2.432c0-8.93,7.221-16.185,16.117-16.185c6.621,0,12.245,3.986,14.758,9.687"/>
</svg>
