<?xml version="1.0" encoding="utf-8"?>
<!-- Generator: Adobe Illustrator 14.0.0, SVG Export Plug-In . SVG Version: 6.00 Build 43363)  -->
<!DOCTYPE svg PUBLIC "-//W3C//DTD SVG 1.1//EN" "http://www.w3.org/Graphics/SVG/1.1/DTD/svg11.dtd">
<svg version="1.1" id="Calque_1" xmlns="http://www.w3.org/2000/svg" xmlns:xlink="http://www.w3.org/1999/xlink" x="0px" y="0px"
	 width="159.113px" height="90.32px" viewBox="0 0 159.113 90.32" enable-background="new 0 0 159.113 90.32" xml:space="preserve">
<path fill="#FFFFFF" d="M159.013,13.733v62.932c0,7.478-6.106,13.555-13.62,13.555H13.802C6.208,90.22,0.1,84.143,0.1,76.666V13.733
	C0.1,6.177,6.208,0.1,13.802,0.1h132.113C153.428,0.1,159.013,6.177,159.013,13.733z"/>
<path fill="none" stroke="#000000" stroke-width="0.2" stroke-miterlimit="3.863" d="M159.013,13.733v62.932
	c0,7.478-6.106,13.555-13.62,13.555H13.802C6.208,90.22,0.1,84.143,0.1,76.666V13.733C0.1,6.177,6.208,0.1,13.802,0.1h132.113
	C153.428,0.1,159.013,6.177,159.013,13.733z"/>
<path d="M63.143,45.6l15.911,14.033c-0.643,0.68-1.004,1.68-1.004,2.639c0,2,1.648,3.799,3.658,4.038v4.639h-0.604v0.879h2.008
	v-0.879h-0.563V66.35c1.889-0.119,3.336-1.639,3.658-3.398h2.209c0.322,7.677,6.711,13.834,14.424,13.834
	c7.998,0,14.467-6.438,14.467-14.394c0-7.917-6.469-14.394-14.467-14.394c-2.409,0-4.699,0.64-6.669,1.679l-4.018-7.437l0.884-1.919
	c0.361-0.64,1.165-0.44,1.688-0.96c0.08-0.279,0.08-0.56,0.08-0.879c-0.281-0.081-0.361-0.439-0.723-0.439h-5.344
	c-0.121,0.159-0.322,0.08-0.442,0.08c-0.04,0.08-0.12,0.12-0.2,0.2c-0.041,0.24-0.121,0.601,0,0.88c0.08,0.04,0.2,0.08,0.28,0.08
	h2.692c0.361-0.04,0.563,0.08,0.924,0.161c0.081,0.12,0.081,0.12,0.201,0.16c-0.04,0.199,0.12,0.44,0.04,0.639l-0.603,1.28H64.027
	l0.803-3.279c0.604-0.199,1.125,0.24,2.371-0.36c0.522,0,1.688-0.6,3.175-0.12c0.201-0.08-0.121-0.24,0.04-0.44
	c-0.12-0.04,0.161-0.359,0.121-0.48c-0.844-0.239-2.652-0.4-3.576,0.121c-0.844,0.52-2.049,0.16-2.853,0.24l-2.732,11.715
	c-1.567-0.64-3.334-1-5.143-1c-7.996,0-14.424,6.518-14.424,14.394c0,7.956,6.429,14.435,14.424,14.435
	c7.916,0,14.425-6.479,14.425-14.435c0-5.798-3.496-10.755-8.398-12.993L63.143,45.6z"/>
<path fill="none" stroke="#000000" stroke-width="0.2" stroke-miterlimit="3.863" d="M63.143,45.6l15.911,14.033
	c-0.643,0.68-1.004,1.68-1.004,2.639c0,2,1.648,3.799,3.658,4.038v4.639h-0.604v0.879h2.008v-0.879h-0.563V66.35
	c1.889-0.119,3.336-1.639,3.658-3.398h2.209c0.322,7.677,6.711,13.834,14.424,13.834c7.998,0,14.467-6.438,14.467-14.394
	c0-7.917-6.469-14.394-14.467-14.394c-2.409,0-4.699,0.64-6.669,1.679l-4.018-7.437l0.884-1.919c0.361-0.64,1.165-0.44,1.688-0.96
	c0.08-0.279,0.08-0.56,0.08-0.879c-0.281-0.081-0.361-0.439-0.723-0.439h-5.344c-0.121,0.159-0.322,0.08-0.442,0.08
	c-0.04,0.08-0.12,0.12-0.2,0.2c-0.041,0.24-0.121,0.601,0,0.88c0.08,0.04,0.2,0.08,0.28,0.08h2.692
	c0.361-0.04,0.563,0.08,0.924,0.161c0.081,0.12,0.081,0.12,0.201,0.16c-0.04,0.199,0.12,0.44,0.04,0.639l-0.603,1.28H64.027
	l0.803-3.279c0.604-0.199,1.125,0.24,2.371-0.36c0.522,0,1.688-0.6,3.175-0.12c0.201-0.08-0.121-0.24,0.04-0.44
	c-0.12-0.04,0.161-0.359,0.121-0.48c-0.844-0.239-2.652-0.4-3.576,0.121c-0.844,0.52-2.049,0.16-2.853,0.24l-2.732,11.715
	c-1.567-0.64-3.334-1-5.143-1c-7.996,0-14.424,6.518-14.424,14.394c0,7.956,6.429,14.435,14.424,14.435
	c7.916,0,14.425-6.479,14.425-14.435c0-5.798-3.496-10.755-8.398-12.993L63.143,45.6z"/>
<path fill="none" stroke="#000000" stroke-width="0.2" stroke-miterlimit="3.863" d="M53.861,47.04
	c0.884-0.16,1.608-0.281,2.371-0.281c8.599,0,15.591,6.998,15.591,15.634c0,0.479,0,0.88-0.082,1.479"/>
<path fill="#FFFFFF" d="M57.437,60.593c-0.321-0.28-0.803-0.2-1.245-0.2c-1.125,0-2.129,1-2.129,2.119
	c0,1.16,1.004,2.079,2.129,2.079c0.964,0,1.849-0.64,2.089-1.519H69.17c-0.402,6.796-6.027,12.193-12.978,12.193
	c-7.273,0-13.139-5.797-13.139-12.994c0-7.236,5.866-13.033,13.139-13.033c1.728,0,3.416,0.279,4.862,0.918l-0.764,3.6
	C59.768,55.715,59.005,58.115,57.437,60.593z"/>
<path fill="none" stroke="#000000" stroke-width="0.2" stroke-miterlimit="3.863" d="M57.437,60.593
	c-0.321-0.28-0.803-0.2-1.245-0.2c-1.125,0-2.129,1-2.129,2.119c0,1.16,1.004,2.079,2.129,2.079c0.964,0,1.849-0.64,2.089-1.519
	H69.17c-0.402,6.796-6.027,12.193-12.978,12.193c-7.273,0-13.139-5.797-13.139-12.994c0-7.236,5.866-13.033,13.139-13.033
	c1.728,0,3.416,0.279,4.862,0.918l-0.764,3.6C59.768,55.715,59.005,58.115,57.437,60.593z"/>
<path fill="#FFFFFF" d="M61.938,50.557l-0.924,3.759c-0.442,1.799-1.849,5.397-3.014,6.877c0.161,0.239,0.281,0.56,0.321,0.88H69.25
	C69.13,56.955,66.197,52.636,61.938,50.557z"/>
<path fill="none" stroke="#000000" stroke-width="0.2" stroke-miterlimit="3.863" d="M61.938,50.557l-0.924,3.759
	c-0.442,1.799-1.849,5.397-3.014,6.877c0.161,0.239,0.281,0.56,0.321,0.88H69.25C69.13,56.955,66.197,52.636,61.938,50.557z"/>
<path fill="#FFFFFF" d="M63.344,44.68l0.402-2.278h27.403l-7.635,15.993c-0.28-0.159-0.563-0.4-1.045-0.279v-4.519h0.643v-0.84
	h-2.088v0.84h0.643v4.559c-0.764,0.199-1.406,0.52-1.969,0.92L63.344,44.68z"/>
<path fill="none" stroke="#000000" stroke-width="0.2" stroke-miterlimit="3.863" d="M63.344,44.68l0.402-2.278h27.403
	l-7.635,15.993c-0.28-0.159-0.563-0.4-1.045-0.279v-4.519h0.643v-0.84h-2.088v0.84h0.643v4.559c-0.764,0.199-1.406,0.52-1.969,0.92
	L63.344,44.68z"/>
<path fill="#FFFFFF" d="M105.694,60.953l8.68-4.757c1.004,1.798,1.566,3.957,1.566,6.196c0,7.197-5.826,12.995-13.018,12.995
	c-7.033,0-12.777-5.519-13.06-12.436h10.206c0.24,1.32,1.447,2.319,2.854,2.319c1.566,0,2.973-1.319,2.973-2.879
	c0-0.521-0.121-0.96-0.321-1.36L105.694,60.953z"/>
<path fill="none" stroke="#000000" stroke-width="0.2" stroke-miterlimit="3.863" d="M105.694,60.953l8.68-4.757
	c1.004,1.798,1.566,3.957,1.566,6.196c0,7.197-5.826,12.995-13.018,12.995c-7.033,0-12.777-5.519-13.06-12.436h10.206
	c0.24,1.32,1.447,2.319,2.854,2.319c1.566,0,2.973-1.319,2.973-2.879c0-0.521-0.121-0.96-0.321-1.36L105.694,60.953z"/>
<path fill="#FFFFFF" d="M105.211,60.393l8.801-4.799c-2.291-3.717-6.47-6.236-11.172-6.236c-2.088,0-4.098,0.52-5.906,1.439
	l4.942,8.836c0.321-0.08,0.724-0.16,1.126-0.16C103.805,59.473,104.569,59.833,105.211,60.393z"/>
<path fill="none" stroke="#000000" stroke-width="0.2" stroke-miterlimit="3.863" d="M105.211,60.393l8.801-4.799
	c-2.291-3.717-6.47-6.236-11.172-6.236c-2.088,0-4.098,0.52-5.906,1.439l4.942,8.836c0.321-0.08,0.724-0.16,1.126-0.16
	C103.805,59.473,104.569,59.833,105.211,60.393z"/>
<path fill="#FFFFFF" d="M96.252,51.317l4.941,8.916c-0.521,0.4-0.885,1.08-1.004,1.759H89.783c0.12-4.558,2.571-8.516,6.269-10.714
	L96.252,51.317z"/>
<path fill="none" stroke="#000000" stroke-width="0.2" stroke-miterlimit="3.863" d="M96.252,51.317l4.941,8.916
	c-0.521,0.4-0.885,1.08-1.004,1.759H89.783c0.12-4.558,2.571-8.516,6.269-10.714L96.252,51.317z"/>
<path fill="#FFFFFF" d="M91.631,43.161l-7.112,15.713c1.085,0.68,1.849,1.84,1.929,3.199h2.13c0.081-5.078,2.853-9.517,6.951-11.955
	L91.631,43.161z"/>
<path fill="none" stroke="#000000" stroke-width="0.2" stroke-miterlimit="3.863" d="M91.631,43.161l-7.112,15.713
	c1.085,0.68,1.849,1.84,1.929,3.199h2.13c0.081-5.078,2.853-9.517,6.951-11.955L91.631,43.161z"/>
<path fill="none" stroke="#000000" stroke-width="0.2" stroke-miterlimit="3.863" d="M87.614,64.711
	c-0.121-0.76-0.201-1.52-0.201-2.319c0-8.636,7.031-15.634,15.63-15.634c6.389,0,11.813,3.839,14.265,9.356"/>
<polygon fill-rule="evenodd" clip-rule="evenodd" points="36.102,13.494 36.102,27.008 45.906,27.008 45.906,24.608 38.794,24.608 
	38.794,21.13 45.021,21.13 45.021,18.772 38.794,18.772 38.794,15.893 45.584,15.893 45.584,13.494 "/>
<polygon fill="none" stroke="#000000" stroke-width="0" stroke-miterlimit="3.863" points="36.102,13.494 36.102,27.007 
	45.906,27.007 45.906,24.608 38.794,24.608 38.794,21.13 45.021,21.13 45.021,18.772 38.794,18.772 38.794,15.893 45.584,15.893 
	45.584,13.494 "/>
<polygon fill-rule="evenodd" clip-rule="evenodd" points="48.639,13.494 52.576,20.13 48.477,27.008 51.532,27.008 54.103,22.37 
	56.674,27.008 59.728,27.008 55.63,20.13 59.567,13.494 56.393,13.494 54.103,17.771 51.813,13.494 "/>
<polygon fill="none" stroke="#000000" stroke-width="0" stroke-miterlimit="3.863" points="48.639,13.494 52.576,20.13 
	48.477,27.007 51.532,27.007 54.103,22.37 56.674,27.007 59.728,27.007 55.63,20.13 59.567,13.494 56.393,13.494 54.103,17.771 
	51.813,13.494 "/>
<path fill-rule="evenodd" clip-rule="evenodd" d="M73.027,17.892c-0.24-2.919-2.451-4.678-5.464-4.678
	c-3.857,0-5.826,2.839-5.826,7.037c0,4.198,1.969,7.038,5.826,7.038c3.134,0,5.344-2.359,5.464-4.958h-2.571
	c-0.322,1.439-1.286,2.559-2.893,2.559c-2.331,0-3.134-2.399-3.134-4.638c0-2.239,0.803-4.678,3.134-4.678
	c1.647,0,2.371,0.76,2.893,2.319H73.027z"/>
<path fill="none" stroke="#000000" stroke-width="0" stroke-miterlimit="3.863" d="M73.027,17.892
	c-0.24-2.919-2.451-4.678-5.464-4.678c-3.857,0-5.826,2.839-5.826,7.037c0,4.198,1.969,7.038,5.826,7.038
	c3.134,0,5.344-2.359,5.464-4.958h-2.571c-0.322,1.439-1.286,2.559-2.893,2.559c-2.331,0-3.134-2.399-3.134-4.638
	c0-2.239,0.803-4.678,3.134-4.678c1.647,0,2.371,0.76,2.893,2.319H73.027z"/>
<polygon fill-rule="evenodd" clip-rule="evenodd" points="75.599,13.494 75.599,27.008 85.444,27.008 85.444,24.608 78.292,24.608 
	78.292,21.13 84.559,21.13 84.559,18.772 78.292,18.772 78.292,15.893 85.123,15.893 85.123,13.494 "/>
<polygon fill="none" stroke="#000000" stroke-width="0" stroke-miterlimit="3.863" points="75.599,13.494 75.599,27.007 
	85.444,27.007 85.444,24.608 78.292,24.608 78.292,21.13 84.559,21.13 84.559,18.772 78.292,18.772 78.292,15.893 85.123,15.893 
	85.123,13.494 "/>
<path fill-rule="evenodd" clip-rule="evenodd" d="M90.667,15.813h2.371c1.326,0,2.049,0.521,2.049,1.959c0,1.439-0.723,2-2.049,2
	h-2.371V15.813z M88.014,13.494v13.514h2.652V22.09h3.135c2.49,0,3.896-1.679,3.896-4.318c0-2.639-1.406-4.277-3.896-4.277H88.014z"
	/>
<path fill="none" stroke="#000000" stroke-width="0" stroke-miterlimit="3.863" d="M90.667,15.812h2.371
	c1.326,0,2.049,0.521,2.049,1.959c0,1.439-0.723,2-2.049,2h-2.371V15.812z M88.014,13.494v13.513h2.652V22.09h3.135
	c2.49,0,3.896-1.679,3.896-4.318c0-2.639-1.406-4.277-3.896-4.277H88.014z"/>
<polygon fill-rule="evenodd" clip-rule="evenodd" points="100.27,13.494 100.27,15.893 104.127,15.893 104.127,27.008 
	106.779,27.008 106.779,15.893 110.636,15.893 110.636,13.494 "/>
<polygon fill="none" stroke="#000000" stroke-width="0" stroke-miterlimit="3.863" points="100.27,13.494 100.27,15.893 
	104.127,15.893 104.127,27.007 106.779,27.007 106.779,15.893 110.636,15.893 110.636,13.494 "/>
<polygon fill-rule="evenodd" clip-rule="evenodd" points="113.208,13.494 113.208,27.008 123.012,27.008 123.012,24.608 
	115.901,24.608 115.901,21.13 122.127,21.13 122.127,18.772 115.901,18.772 115.901,15.893 122.691,15.893 122.691,13.494 "/>
<polygon fill="none" stroke="#000000" stroke-width="0" stroke-miterlimit="3.863" points="113.208,13.494 113.208,27.007 
	123.012,27.007 123.012,24.608 115.901,24.608 115.901,21.13 122.127,21.13 122.127,18.772 115.901,18.772 115.901,15.893 
	122.691,15.893 122.691,13.494 "/>
</svg>
