<?xml version="1.0" encoding="utf-8"?>
<!-- Generator: Adobe Illustrator 14.0.0, SVG Export Plug-In . SVG Version: 6.00 Build 43363)  -->
<!DOCTYPE svg PUBLIC "-//W3C//DTD SVG 1.1//EN" "http://www.w3.org/Graphics/SVG/1.1/DTD/svg11.dtd">
<svg version="1.1" id="Calque_1" xmlns="http://www.w3.org/2000/svg" xmlns:xlink="http://www.w3.org/1999/xlink" x="0px" y="0px"
	 width="159.113px" height="90.32px" viewBox="0 0 159.113 90.32" enable-background="new 0 0 159.113 90.32" xml:space="preserve">
<path fill="#FFFFFF" d="M159.013,13.734v62.932c0,7.477-6.107,13.555-13.621,13.555H13.802C6.208,90.22,0.1,84.142,0.1,76.666
	V13.734C0.1,6.178,6.208,0.1,13.802,0.1h132.113C153.428,0.1,159.013,6.178,159.013,13.734z"/>
<path fill="none" stroke="#000000" stroke-width="0.2" stroke-miterlimit="3.863" d="M159.013,13.734v62.932
	c0,7.477-6.107,13.555-13.621,13.555H13.802C6.208,90.22,0.1,84.142,0.1,76.666V13.734C0.1,6.178,6.208,0.1,13.802,0.1h132.113
	C153.428,0.1,159.013,6.178,159.013,13.734z"/>
<polygon fill-rule="evenodd" clip-rule="evenodd" points="48.156,10.176 48.156,19.972 55.228,19.972 55.228,18.212 50.085,18.212 
	50.085,15.693 54.585,15.693 54.585,14.014 50.085,14.014 50.085,11.936 55.027,11.936 55.027,10.176 "/>
<polygon fill="none" stroke="#000000" stroke-width="0" stroke-miterlimit="3.863" points="48.156,10.176 48.156,19.972 
	55.228,19.972 55.228,18.212 50.085,18.212 50.085,15.693 54.585,15.693 54.585,14.014 50.085,14.014 50.085,11.936 55.027,11.936 
	55.027,10.176 "/>
<polygon fill-rule="evenodd" clip-rule="evenodd" points="57.197,10.176 60.05,14.974 57.116,19.972 59.286,19.972 61.174,16.613 
	63.023,19.972 65.232,19.972 62.259,14.974 65.112,10.176 62.821,10.176 61.174,13.294 59.527,10.176 "/>
<polygon fill="none" stroke="#000000" stroke-width="0" stroke-miterlimit="3.863" points="57.197,10.176 60.05,14.974 
	57.116,19.972 59.286,19.972 61.174,16.613 63.023,19.972 65.232,19.972 62.259,14.974 65.112,10.176 62.821,10.176 61.174,13.294 
	59.527,10.176 "/>
<path fill-rule="evenodd" clip-rule="evenodd" d="M74.836,13.374c-0.162-2.119-1.768-3.397-3.938-3.397
	c-2.813,0-4.22,2.039-4.22,5.117c0,3.039,1.407,5.077,4.22,5.077c2.25,0,3.857-1.719,3.938-3.598h-1.849
	c-0.242,1.039-0.924,1.879-2.089,1.879c-1.688,0-2.291-1.759-2.291-3.358c0-1.639,0.602-3.398,2.291-3.398
	c1.165,0,1.687,0.56,2.089,1.679H74.836z"/>
<path fill="none" stroke="#000000" stroke-width="0" stroke-miterlimit="3.863" d="M74.836,13.374
	c-0.161-2.119-1.768-3.397-3.938-3.397c-2.813,0-4.22,2.039-4.22,5.117c0,3.039,1.407,5.077,4.22,5.077
	c2.25,0,3.857-1.719,3.938-3.598h-1.849c-0.242,1.039-0.924,1.879-2.089,1.879c-1.688,0-2.291-1.759-2.291-3.358
	c0-1.639,0.602-3.398,2.291-3.398c1.165,0,1.687,0.56,2.089,1.679H74.836z"/>
<polygon fill-rule="evenodd" clip-rule="evenodd" points="76.684,10.176 76.684,19.972 83.796,19.972 83.796,18.212 78.652,18.212 
	78.652,15.693 83.154,15.693 83.154,14.014 78.652,14.014 78.652,11.936 83.595,11.936 83.595,10.176 "/>
<polygon fill="none" stroke="#000000" stroke-width="0" stroke-miterlimit="3.863" points="76.684,10.176 76.684,19.972 
	83.796,19.972 83.796,18.212 78.652,18.212 78.652,15.693 83.154,15.693 83.154,14.014 78.652,14.014 78.652,11.936 83.595,11.936 
	83.595,10.176 "/>
<path fill-rule="evenodd" clip-rule="evenodd" d="M87.574,11.855H89.3c0.965,0,1.486,0.4,1.486,1.439
	c0,1.039-0.521,1.439-1.486,1.439h-1.727V11.855z M85.685,10.176v9.796h1.889v-3.558h2.289c1.769,0,2.813-1.24,2.813-3.119
	c0-1.919-1.044-3.119-2.813-3.119H85.685z"/>
<path fill="none" stroke="#000000" stroke-width="0" stroke-miterlimit="3.863" d="M87.574,11.855H89.3
	c0.965,0,1.486,0.4,1.486,1.439c0,1.039-0.521,1.439-1.486,1.439h-1.727V11.855z M85.685,10.176v9.796h1.889v-3.558h2.289
	c1.769,0,2.813-1.24,2.813-3.119c0-1.919-1.044-3.119-2.813-3.119H85.685z"/>
<polygon fill-rule="evenodd" clip-rule="evenodd" points="94.525,10.176 94.525,11.936 97.296,11.936 97.296,19.972 99.225,19.972 
	99.225,11.936 101.998,11.936 101.998,10.176 "/>
<polygon fill="none" stroke="#000000" stroke-width="0" stroke-miterlimit="3.863" points="94.525,10.176 94.525,11.936 
	97.296,11.936 97.296,19.972 99.225,19.972 99.225,11.936 101.998,11.936 101.998,10.176 "/>
<polygon fill-rule="evenodd" clip-rule="evenodd" points="103.886,10.176 103.886,19.972 110.958,19.972 110.958,18.212 
	105.814,18.212 105.814,15.693 110.315,15.693 110.315,14.014 105.814,14.014 105.814,11.936 110.716,11.936 110.716,10.176 "/>
<polygon fill="none" stroke="#000000" stroke-width="0" stroke-miterlimit="3.863" points="103.886,10.176 103.886,19.972 
	110.958,19.972 110.958,18.212 105.814,18.212 105.814,15.693 110.315,15.693 110.315,14.014 105.814,14.014 105.814,11.936 
	110.716,11.936 110.716,10.176 "/>
<path fill-rule="evenodd" clip-rule="evenodd" d="M118.351,72.908l1.125,3.959h-2.21L118.351,72.908z M117.306,70.589l-3.215,10.195
	h2.01l0.643-2.08h3.254l0.684,2.08h1.969l-3.174-10.195H117.306z"/>
<path fill="none" stroke="#000000" stroke-width="0" stroke-miterlimit="3.863" d="M118.351,72.908l1.125,3.959h-2.21
	L118.351,72.908z M117.306,70.589l-3.215,10.195h2.01l0.643-2.08h3.254l0.684,2.08h1.969l-3.174-10.195H117.306z"/>
<path d="M101.836,43.601l4.259-8.836c-0.521-0.2-1.445,0.399-2.49,0.359c-0.121-0.079-0.482,0.24-0.603-0.919
	c-0.282-0.681-0.12-0.84-0.12-1.56c0.963,0,2.089-1.279,3.053-0.24c0.08,0.2,0.201,0.28,0.281,0.479
	c0.121-0.04,0.361,0.36,0.482,0.36c0.602-1.119,0.08-3.199,1.044-4.198c0.161-0.2,1.206,0.12,1.366-0.04
	c-0.521,0.8,0.885,0.28,1.367,0.52c0,0.36-0.322,1.039-0.482,1.399c-0.603,0.12-1.005,0-1.607-0.04
	c-0.281,0.88-0.161,2.799-0.924,3.919l0.563,0.919v0.76l-0.925,2.56l0.241,0.359l1.005,0.28l0.28,0.56v1.079l4.22,5.837h7.956
	l3.174-8.436l-4.621-0.92l-1.164-0.759l0.24-0.4l0.16-0.32h8.197c0.723,0.28,0.482,1.84,0.201,2.279
	c-0.361,0.279-0.925,0.36-1.407,0.44l-0.562,1.959h11.652l0.321,0.719l0.804,0.12c0.684,1.479,2.691,7.637,2.611,9.276
	c-0.041,0.68-0.281,1.039-0.281,1.6c0,5.077-4.139,9.195-9.242,9.195c-3.655,0-6.83-2.159-8.277-5.197h-3.695
	c0.08,0.08-0.201,0.479,0.321,0.399c0.28-0.04,0.081,1.279-0.724,1.16c-0.08-0.08-0.844,0.039-0.924-0.4
	c-0.041-0.199,0-0.4,0.08-0.6c0.081-0.16,0.241-0.119,0.322-0.2v-0.359h-5.867c-5.022-0.36-1.727-7.876-1.768-9.517
	c0-0.399-0.684-1.759-4.099-2.758c-0.925-0.28-1.567-2.239-2.13-2.439l-1.084,2.239c2.771,1.839,4.62,4.997,4.62,8.517
	c0,0.439-0.04,0.879-0.08,1.358c-0.04,0.36-1.044,0.32-1.326,0.44c-0.843,4.198-4.581,7.356-9.001,7.356
	c-5.102,0-9.241-4.118-9.241-9.195c0-4.519,3.296-8.276,7.635-9.076l-0.04,0.04c-0.161-0.279,0-1.119,0.361-1.159
	c0.441-0.04,0.884-0.08,1.326-0.08c1.688,0,3.295,0.399,4.701,1.119L101.836,43.601z"/>
<path fill="none" stroke="#000000" stroke-width="0" stroke-miterlimit="3.863" d="M101.836,43.601l4.259-8.836
	c-0.521-0.2-1.445,0.399-2.49,0.359c-0.121-0.079-0.482,0.24-0.603-0.919c-0.282-0.681-0.12-0.84-0.12-1.56
	c0.963,0,2.089-1.279,3.053-0.24c0.08,0.2,0.201,0.28,0.281,0.479c0.121-0.04,0.361,0.36,0.482,0.36
	c0.602-1.119,0.08-3.199,1.044-4.198c0.161-0.2,1.206,0.12,1.366-0.04c-0.521,0.8,0.885,0.28,1.367,0.52
	c0,0.36-0.322,1.039-0.482,1.399c-0.603,0.12-1.005,0-1.607-0.04c-0.281,0.88-0.161,2.799-0.924,3.919l0.563,0.919v0.76l-0.925,2.56
	l0.241,0.359l1.005,0.28l0.28,0.56v1.079l4.22,5.837h7.956l3.174-8.436l-4.621-0.92l-1.164-0.759l0.24-0.4l0.16-0.32h8.197
	c0.723,0.28,0.482,1.84,0.201,2.279c-0.361,0.279-0.925,0.36-1.407,0.44l-0.562,1.959h11.652l0.321,0.719l0.804,0.12
	c0.684,1.479,2.691,7.637,2.611,9.276c-0.041,0.68-0.281,1.039-0.281,1.6c0,5.077-4.139,9.195-9.242,9.195
	c-3.655,0-6.83-2.159-8.277-5.197h-3.695c0.08,0.08-0.201,0.479,0.322,0.399c0.279-0.04,0.08,1.279-0.725,1.16
	c-0.08-0.08-0.844,0.039-0.924-0.4c-0.041-0.199,0-0.4,0.08-0.6c0.081-0.16,0.241-0.119,0.322-0.2v-0.359h-5.867
	c-5.022-0.36-1.727-7.876-1.768-9.517c0-0.399-0.684-1.759-4.099-2.758c-0.925-0.28-1.567-2.239-2.13-2.439l-1.084,2.239
	c2.771,1.839,4.62,4.997,4.62,8.517c0,0.439-0.04,0.879-0.08,1.358c-0.04,0.36-1.044,0.32-1.326,0.44
	c-0.843,4.198-4.581,7.356-9.001,7.356c-5.102,0-9.241-4.118-9.241-9.195c0-4.519,3.296-8.276,7.635-9.076l-0.04,0.04
	c-0.161-0.279,0-1.119,0.361-1.159c0.441-0.04,0.884-0.08,1.326-0.08c1.688,0,3.295,0.399,4.701,1.119L101.836,43.601z"/>
<path fill="#FFFFFF" d="M98.3,50.758l2.171-4.198c-1.005-0.48-2.05-0.761-3.175-0.761c-3.857,0-6.991,3.119-6.991,6.958
	c0,3.837,3.134,6.957,6.991,6.957c3.697,0,6.75-2.879,6.99-6.518h-4.74c-0.241,0.919-1.045,1.56-2.009,1.56
	c-1.206,0-2.13-0.92-2.13-2.12c0-1.159,0.924-2.078,2.13-2.078c0.28,0,0.563,0.039,0.804,0.159L98.3,50.758z"/>
<path fill="none" stroke="#FFFFFF" stroke-width="0" stroke-miterlimit="3.863" d="M98.3,50.758l2.171-4.198
	c-1.005-0.48-2.05-0.761-3.175-0.761c-3.857,0-6.991,3.119-6.991,6.958c0,3.837,3.134,6.957,6.991,6.957
	c3.697,0,6.75-2.879,6.991-6.518h-4.741c-0.241,0.919-1.045,1.56-2.009,1.56c-1.206,0-2.13-0.92-2.13-2.12
	c0-1.159,0.924-2.078,2.13-2.078c0.28,0,0.563,0.039,0.804,0.159L98.3,50.758z"/>
<path fill="#FFFFFF" d="M99.345,51.958h4.902c-0.24-1.92-1.245-3.559-2.652-4.638l-2.25,4.558V51.958z"/>
<path fill="none" stroke="#FFFFFF" stroke-width="0" stroke-miterlimit="3.863" d="M99.345,51.958h4.902
	c-0.24-1.92-1.245-3.559-2.652-4.638l-2.25,4.558V51.958z"/>
<path fill="#FFFFFF" d="M126.507,44.6c-1.93,0.96-3.416,2.559-4.059,4.519l-0.563,0.039l2.291-6.276h1.646
	C125.785,44.241,126.226,44.081,126.507,44.6z"/>
<path fill="none" stroke="#FFFFFF" stroke-width="0" stroke-miterlimit="3.863" d="M126.507,44.6
	c-1.93,0.96-3.416,2.559-4.059,4.519l-0.563,0.039l2.291-6.276h1.646C125.785,44.241,126.226,44.081,126.507,44.6z"/>
<path fill="#FFFFFF" d="M131.891,46.04c3.495,0.48,6.188,3.359,6.188,6.798c0,3.838-3.256,6.916-7.232,6.916
	c-2.492,0-4.621-1.16-5.947-2.918l10.486-0.28v-2.479l-3.013,0.04c0.401-0.359,0.684-0.919,0.684-1.559
	c0-0.72-0.362-1.319-1.005-1.68L131.891,46.04z"/>
<path fill="none" stroke="#FFFFFF" stroke-width="0" stroke-miterlimit="3.863" d="M131.891,46.04
	c3.495,0.48,6.188,3.359,6.188,6.798c0,3.838-3.256,6.916-7.232,6.916c-2.492,0-4.621-1.16-5.947-2.918l10.486-0.28v-2.479
	l-3.013,0.04c0.401-0.359,0.684-0.919,0.684-1.559c0-0.72-0.362-1.319-1.005-1.68L131.891,46.04z"/>
<path fill="#FFFFFF" d="M129.2,53.476l-5.144,0.32c0.04,0.319,0.121,0.64,0.201,0.92l5.585-0.52
	C129.601,53.997,129.36,53.796,129.2,53.476z"/>
<path fill="none" stroke="#FFFFFF" stroke-width="0" stroke-miterlimit="3.863" d="M129.2,53.476l-5.144,0.32
	c0.04,0.319,0.121,0.64,0.201,0.92l5.585-0.52C129.601,53.997,129.36,53.796,129.2,53.476z"/>
<path fill="#FFFFFF" d="M130.285,50.558c-0.805,0.28-1.367,1.039-1.367,1.919l-4.902-0.239c0.242-3.199,2.653-5.798,5.827-6.277
	L130.285,50.558z"/>
<path fill="none" stroke="#FFFFFF" stroke-width="0" stroke-miterlimit="3.863" d="M130.285,50.558
	c-0.805,0.28-1.367,1.039-1.367,1.919l-4.902-0.239c0.242-3.199,2.653-5.798,5.827-6.277L130.285,50.558z"/>
<path fill="#FFFFFF" d="M112.886,54.036h-2.291c0,0.761,0.362,0.92,0.765,1.32c0.28,0.199,0.643,0.199,0.763,0.199h1.486
	C113.167,55.157,113.329,54.036,112.886,54.036z"/>
<path fill="none" stroke="#FFFFFF" stroke-width="0" stroke-miterlimit="3.863" d="M112.886,54.036h-2.291
	c0,0.761,0.362,0.92,0.765,1.32c0.28,0.199,0.643,0.199,0.763,0.199h1.486C113.167,55.156,113.329,54.036,112.886,54.036z"/>
<path fill="#FFFFFF" d="M121.244,52.077c0,0.24-0.482,1,0.08,1.399c0.121,0.04,0.241,0.28,0.362-0.079
	c-0.121-0.28-0.282-0.36-0.241-0.88C121.565,52.397,121.525,51.877,121.244,52.077z"/>
<path fill="none" stroke="#FFFFFF" stroke-width="0" stroke-miterlimit="3.863" d="M121.244,52.077c0,0.24-0.482,1,0.08,1.399
	c0.121,0.04,0.241,0.28,0.362-0.079c-0.121-0.28-0.282-0.36-0.241-0.88C121.565,52.397,121.525,51.877,121.244,52.077z"/>
<path fill="#FFFFFF" d="M118.873,54.996l1.327-0.04c0.04,0,0.08-0.079,0.16-0.04c0-0.119,0.08-0.239,0.04-0.359
	c-0.04-0.04-0.08-0.08-0.12-0.12c-0.522-0.199-1.085-0.04-1.526,0.199c-0.041,0.081,0.039,0.121,0.039,0.201
	C118.833,54.876,118.914,54.916,118.873,54.996z"/>
<path fill="none" stroke="#FFFFFF" stroke-width="0" stroke-miterlimit="3.863" d="M118.873,54.996l1.327-0.04
	c0.04,0,0.08-0.08,0.16-0.04c0-0.119,0.08-0.239,0.04-0.359c-0.04-0.04-0.08-0.08-0.12-0.12c-0.522-0.199-1.085-0.04-1.526,0.199
	c-0.041,0.081,0.039,0.121,0.039,0.201C118.833,54.875,118.914,54.916,118.873,54.996z"/>
<path fill="#FFFFFF" d="M116.824,55.196c0.321,0,0.643,0.04,0.965-0.12c-0.04-0.08,0.04-0.12,0.04-0.16
	c-0.321-0.119-0.684,0-0.925,0.08C116.865,54.996,116.705,55.196,116.824,55.196z"/>
<path fill="none" stroke="#FFFFFF" stroke-width="0" stroke-miterlimit="3.863" d="M116.824,55.196c0.321,0,0.643,0.04,0.965-0.12
	c-0.04-0.08,0.04-0.12,0.04-0.16c-0.321-0.119-0.684,0-0.925,0.08C116.865,54.996,116.705,55.196,116.824,55.196z"/>
<path fill="#FFFFFF" d="M136.753,42.881c-0.201,0.879-0.803,1.52-1.285,1.919c0.482,0.601,1.768,0.68,2.089,1.359
	C137.798,44.96,136.995,43.201,136.753,42.881z"/>
<path fill="none" stroke="#FFFFFF" stroke-width="0" stroke-miterlimit="3.863" d="M136.753,42.881
	c-0.201,0.879-0.803,1.52-1.285,1.919c0.482,0.601,1.768,0.68,2.089,1.359C137.798,44.96,136.995,43.201,136.753,42.881z"/>
<path d="M33.933,39.683l11.009,9.755c-0.442,0.48-0.683,1.159-0.683,1.84c0,1.398,1.125,2.639,2.531,2.798v3.239h-0.402v0.6h1.366
	v-0.6h-0.362v-3.199c1.286-0.08,2.291-1.159,2.531-2.358h1.527c0.241,5.317,4.661,9.596,10.005,9.596
	c5.544,0,10.045-4.479,10.045-9.995c0-5.478-4.5-9.996-10.045-9.996c-1.648,0-3.255,0.439-4.621,1.16l-2.772-5.158l0.603-1.319
	c0.24-0.439,0.804-0.32,1.165-0.68c0.04-0.2,0.04-0.4,0.04-0.6c-0.16-0.04-0.24-0.32-0.482-0.32h-3.696
	c-0.12,0.12-0.241,0.08-0.322,0.08c-0.04,0.04-0.08,0.08-0.16,0.12c0,0.16-0.08,0.44,0,0.6c0.08,0.04,0.16,0.08,0.201,0.08h1.888
	c0.242-0.04,0.402,0.04,0.643,0.119c0.041,0.081,0.041,0.081,0.122,0.081c0,0.16,0.08,0.319,0.04,0.439l-0.402,0.919H34.535
	l0.562-2.278c0.402-0.16,0.764,0.16,1.648-0.24c0.361,0,1.165-0.439,2.169-0.119c0.161-0.04-0.08-0.16,0.04-0.28
	c-0.08-0.04,0.121-0.24,0.081-0.359c-0.563-0.161-1.849-0.24-2.491,0.119c-0.563,0.36-1.407,0.08-1.969,0.16l-1.889,8.116
	c-1.085-0.439-2.33-0.68-3.576-0.68c-5.545,0-10.005,4.519-10.005,9.996c0,5.518,4.46,9.995,10.005,9.995
	c5.504,0,10.004-4.478,10.004-9.995c0-4.039-2.411-7.478-5.825-9.037L33.933,39.683z"/>
<path fill="none" stroke="#000000" stroke-width="0.2" stroke-miterlimit="3.863" d="M33.933,39.683l11.009,9.755
	c-0.442,0.48-0.683,1.159-0.683,1.84c0,1.398,1.125,2.639,2.531,2.798v3.239h-0.402v0.6h1.366v-0.6h-0.362v-3.199
	c1.286-0.08,2.291-1.159,2.531-2.358h1.527c0.241,5.317,4.661,9.596,10.005,9.596c5.544,0,10.045-4.479,10.045-9.995
	c0-5.478-4.5-9.996-10.045-9.996c-1.648,0-3.255,0.439-4.621,1.16l-2.772-5.158l0.603-1.319c0.24-0.439,0.804-0.32,1.165-0.68
	c0.041-0.2,0.041-0.4,0.041-0.6c-0.161-0.04-0.241-0.32-0.482-0.32h-3.696c-0.12,0.12-0.241,0.08-0.322,0.08
	c-0.04,0.04-0.08,0.08-0.16,0.12c0,0.16-0.08,0.44,0,0.6c0.08,0.04,0.16,0.08,0.201,0.08h1.888c0.242-0.04,0.402,0.04,0.643,0.119
	c0.041,0.081,0.041,0.081,0.122,0.081c0,0.16,0.08,0.319,0.04,0.439l-0.402,0.919H34.535l0.562-2.278
	c0.402-0.16,0.764,0.16,1.648-0.24c0.361,0,1.165-0.439,2.169-0.119c0.161-0.04-0.08-0.16,0.04-0.281
	c-0.08-0.039,0.121-0.239,0.081-0.358c-0.563-0.161-1.849-0.24-2.491,0.119c-0.563,0.36-1.407,0.08-1.969,0.16l-1.889,8.116
	c-1.085-0.439-2.33-0.68-3.576-0.68c-5.545,0-10.005,4.519-10.005,9.996c0,5.518,4.46,9.995,10.005,9.995
	c5.504,0,10.004-4.478,10.004-9.995c0-4.039-2.411-7.478-5.825-9.037L33.933,39.683z"/>
<path fill="none" stroke="#000000" stroke-width="0.2" stroke-miterlimit="3.863" d="M27.463,40.682
	c0.603-0.08,1.125-0.159,1.647-0.159c5.986,0,10.808,4.838,10.808,10.835c0,0.319,0,0.6-0.04,1.039"/>
<path fill="#FFFFFF" d="M29.955,50.118c-0.242-0.199-0.563-0.159-0.884-0.159c-0.763,0-1.446,0.719-1.446,1.479
	c0,0.801,0.684,1.439,1.446,1.439c0.683,0,1.286-0.439,1.487-1.039h7.554c-0.281,4.718-4.178,8.476-9.041,8.476
	c-5.022,0-9.08-4.037-9.08-9.035c0-5.038,4.058-9.036,9.08-9.036c1.205,0,2.371,0.2,3.375,0.64l-0.522,2.479
	C31.562,46.719,31.04,48.399,29.955,50.118z"/>
<path fill="none" stroke="#000000" stroke-width="0.2" stroke-miterlimit="3.863" d="M29.955,50.118
	c-0.242-0.199-0.563-0.159-0.884-0.159c-0.763,0-1.446,0.719-1.446,1.479c0,0.801,0.684,1.439,1.446,1.439
	c0.683,0,1.286-0.439,1.487-1.039h7.554c-0.281,4.718-4.178,8.476-9.041,8.476c-5.022,0-9.08-4.037-9.08-9.035
	c0-5.038,4.058-9.036,9.08-9.036c1.205,0,2.371,0.2,3.375,0.64l-0.522,2.479C31.562,46.719,31.04,48.399,29.955,50.118z"/>
<path fill="#FFFFFF" d="M33.088,43.161l-0.643,2.599c-0.322,1.24-1.286,3.759-2.089,4.759c0.081,0.159,0.201,0.399,0.201,0.6h7.594
	C38.071,47.599,36.021,44.6,33.088,43.161z"/>
<path fill="none" stroke="#000000" stroke-width="0.2" stroke-miterlimit="3.863" d="M33.088,43.161l-0.643,2.599
	c-0.322,1.24-1.286,3.759-2.089,4.759c0.081,0.159,0.201,0.399,0.201,0.6h7.594C38.071,47.599,36.021,44.6,33.088,43.161z"/>
<path fill="#FFFFFF" d="M34.053,39.083l0.282-1.6h19.005l-5.304,11.114c-0.201-0.119-0.361-0.279-0.723-0.199V45.24h0.442v-0.56
	h-1.447v0.56h0.442v3.159c-0.522,0.16-0.964,0.359-1.366,0.64L34.053,39.083z"/>
<path fill="none" stroke="#000000" stroke-width="0.2" stroke-miterlimit="3.863" d="M34.053,39.083l0.282-1.6h19.005l-5.304,11.114
	c-0.201-0.119-0.361-0.279-0.723-0.199V45.24h0.442v-0.56h-1.446v0.56h0.442v3.159c-0.522,0.16-0.964,0.359-1.366,0.64
	L34.053,39.083z"/>
<path fill="#FFFFFF" d="M63.425,50.358l6.027-3.318c0.723,1.279,1.085,2.759,1.085,4.318c0,4.997-4.018,9.035-9,9.035
	c-4.902,0-8.88-3.838-9.081-8.636h7.072c0.16,0.919,1.004,1.6,2.009,1.6c1.085,0,2.049-0.92,2.049-1.999
	c0-0.36-0.08-0.681-0.242-0.96L63.425,50.358z"/>
<path fill="none" stroke="#000000" stroke-width="0.2" stroke-miterlimit="3.863" d="M63.425,50.358l6.027-3.318
	c0.723,1.279,1.085,2.759,1.085,4.318c0,4.997-4.018,9.035-9,9.035c-4.902,0-8.88-3.838-9.081-8.636h7.072
	c0.161,0.919,1.004,1.6,2.009,1.6c1.085,0,2.049-0.92,2.049-1.999c0-0.36-0.08-0.681-0.242-0.96L63.425,50.358z"/>
<path fill="#FFFFFF" d="M63.103,49.958l6.107-3.319c-1.567-2.599-4.5-4.318-7.754-4.318c-1.447,0-2.853,0.36-4.099,1l3.456,6.117
	c0.202-0.039,0.482-0.119,0.764-0.119C62.139,49.319,62.661,49.598,63.103,49.958z"/>
<path fill="none" stroke="#000000" stroke-width="0.2" stroke-miterlimit="3.863" d="M63.103,49.958l6.107-3.319
	c-1.567-2.599-4.5-4.318-7.754-4.318c-1.446,0-2.853,0.36-4.099,1l3.456,6.117c0.202-0.039,0.482-0.119,0.764-0.119
	C62.139,49.319,62.661,49.598,63.103,49.958z"/>
<path fill="#FFFFFF" d="M56.875,43.681l3.456,6.197c-0.361,0.239-0.643,0.719-0.723,1.199h-7.192
	c0.08-3.158,1.768-5.918,4.339-7.437L56.875,43.681z"/>
<path fill="none" stroke="#000000" stroke-width="0.2" stroke-miterlimit="3.863" d="M56.875,43.681l3.456,6.197
	c-0.361,0.239-0.643,0.719-0.723,1.199h-7.192c0.08-3.158,1.768-5.918,4.339-7.437L56.875,43.681z"/>
<path fill="#FFFFFF" d="M53.701,38.003l-4.942,10.915c0.723,0.48,1.286,1.279,1.326,2.199h1.487c0.04-3.519,1.969-6.597,4.821-8.276
	L53.701,38.003z"/>
<path fill="none" stroke="#000000" stroke-width="0.2" stroke-miterlimit="3.863" d="M53.701,38.003l-4.942,10.915
	c0.723,0.48,1.286,1.279,1.326,2.199h1.487c0.04-3.519,1.969-6.597,4.821-8.276L53.701,38.003z"/>
<path fill="none" stroke="#000000" stroke-width="0.2" stroke-miterlimit="3.863" d="M50.888,52.957
	c-0.08-0.52-0.12-1.039-0.12-1.599c0-5.997,4.862-10.835,10.849-10.835c4.419,0,8.197,2.638,9.884,6.477"/>
</svg>
