<?xml version="1.0" encoding="utf-8"?>
<!-- Generator: Adobe Illustrator 14.0.0, SVG Export Plug-In . SVG Version: 6.00 Build 43363)  -->
<!DOCTYPE svg PUBLIC "-//W3C//DTD SVG 1.1//EN" "http://www.w3.org/Graphics/SVG/1.1/DTD/svg11.dtd">
<svg version="1.1" id="Calque_1" xmlns="http://www.w3.org/2000/svg" xmlns:xlink="http://www.w3.org/1999/xlink" x="0px" y="0px"
	 width="158.321px" height="45.626px" viewBox="0 0 158.321 45.626" enable-background="new 0 0 158.321 45.626"
	 xml:space="preserve">
<path fill="#FFFFFF" d="M0.101,13.832c0-7.61,6.077-13.731,13.633-13.731h131.453c7.076,0,12.434,5.477,12.993,12.524
	c0.04,0.402,0.04,0.805,0.04,1.207v18.041c0,7.531-6.077,13.652-13.554,13.652H13.734c-7.556,0-13.633-6.121-13.633-13.652V13.832z"
	/>
<path fill="none" stroke="#000000" stroke-width="0.201" stroke-miterlimit="3.863" d="M0.101,13.832
	c0-7.61,6.077-13.731,13.633-13.731h131.453c7.076,0,12.434,5.477,12.993,12.524c0.04,0.402,0.04,0.805,0.04,1.207v18.041
	c0,7.531-6.077,13.652-13.554,13.652H13.734c-7.556,0-13.633-6.121-13.633-13.652V13.832z"/>
<path d="M67.866,14.799l10.955,9.826c-0.44,0.482-0.68,1.168-0.68,1.853c0,1.409,1.119,2.657,2.52,2.818v3.263h-0.401v0.603h1.36
	v-0.603h-0.361v-3.222c1.279-0.081,2.28-1.168,2.52-2.377h1.52c0.24,5.356,4.638,9.665,9.955,9.665c5.518,0,9.995-4.51,9.995-10.067
	c0-5.517-4.478-10.067-9.995-10.067c-1.64,0-3.238,0.442-4.598,1.167l-2.76-5.194l0.601-1.329c0.24-0.442,0.8-0.321,1.159-0.684
	c0.041-0.202,0.041-0.403,0.041-0.604c-0.161-0.04-0.24-0.322-0.48-0.322h-3.678c-0.121,0.12-0.24,0.08-0.32,0.08
	c-0.039,0.04-0.08,0.08-0.16,0.121c0,0.161-0.08,0.443,0,0.604c0.08,0.041,0.16,0.081,0.2,0.081h1.879
	c0.24-0.04,0.399,0.041,0.64,0.121c0.04,0.08,0.04,0.08,0.119,0.08c0,0.161,0.082,0.322,0.041,0.443l-0.4,0.927h-19.07l0.56-2.297
	c0.399-0.16,0.759,0.162,1.639-0.24c0.359,0,1.16-0.443,2.159-0.122c0.159-0.04-0.08-0.16,0.04-0.281
	c-0.08-0.04,0.12-0.241,0.08-0.362c-0.559-0.161-1.838-0.241-2.478,0.121c-0.56,0.362-1.4,0.08-1.96,0.16l-1.878,8.176
	c-1.08-0.443-2.319-0.686-3.559-0.686c-5.517,0-9.955,4.552-9.955,10.068c0,5.557,4.438,10.067,9.955,10.067
	c5.478,0,9.956-4.511,9.956-10.067c0-4.067-2.399-7.531-5.798-9.102L67.866,14.799z"/>
<path fill="none" stroke="#000000" stroke-width="0.201" stroke-miterlimit="3.863" d="M67.866,14.799l10.955,9.826
	c-0.44,0.482-0.68,1.168-0.68,1.853c0,1.409,1.119,2.657,2.52,2.818v3.263h-0.401v0.603h1.36v-0.603h-0.361v-3.222
	c1.279-0.081,2.28-1.168,2.52-2.377h1.52c0.24,5.356,4.638,9.665,9.955,9.665c5.518,0,9.995-4.51,9.995-10.067
	c0-5.517-4.478-10.067-9.995-10.067c-1.64,0-3.238,0.442-4.598,1.167l-2.76-5.194l0.601-1.329c0.24-0.442,0.8-0.321,1.159-0.684
	c0.041-0.202,0.041-0.403,0.041-0.604c-0.161-0.04-0.24-0.322-0.48-0.322h-3.678c-0.121,0.12-0.24,0.08-0.32,0.08
	c-0.039,0.04-0.08,0.08-0.16,0.121c0,0.161-0.08,0.443,0,0.604c0.08,0.041,0.16,0.081,0.2,0.081h1.879
	c0.24-0.04,0.399,0.041,0.64,0.121c0.04,0.08,0.04,0.08,0.119,0.08c0,0.161,0.082,0.322,0.041,0.443l-0.4,0.927h-19.07l0.56-2.297
	c0.399-0.16,0.759,0.162,1.639-0.24c0.359,0,1.16-0.444,2.159-0.122c0.159-0.04-0.08-0.16,0.04-0.281
	c-0.08-0.041,0.12-0.241,0.08-0.362c-0.559-0.161-1.838-0.241-2.478,0.121c-0.56,0.362-1.4,0.08-1.96,0.16l-1.878,8.176
	c-1.08-0.443-2.32-0.686-3.559-0.686c-5.517,0-9.955,4.552-9.955,10.068c0,5.557,4.438,10.067,9.955,10.067
	c5.478,0,9.956-4.511,9.956-10.067c0-4.067-2.399-7.531-5.798-9.102L67.866,14.799z"/>
<path fill="none" stroke="#000000" stroke-width="0.201" stroke-miterlimit="3.863" d="M61.429,15.805
	c0.6-0.08,1.12-0.16,1.639-0.16c5.957,0,10.754,4.872,10.754,10.913c0,0.322,0,0.604-0.04,1.047"/>
<path fill="#FFFFFF" d="M63.908,25.31c-0.24-0.202-0.56-0.161-0.88-0.161c-0.759,0-1.439,0.725-1.439,1.489
	c0,0.807,0.68,1.45,1.439,1.45c0.68,0,1.279-0.443,1.479-1.047h7.516c-0.279,4.752-4.158,8.537-8.995,8.537
	c-4.997,0-9.035-4.067-9.035-9.101c0-5.074,4.039-9.102,9.035-9.102c1.2,0,2.359,0.201,3.359,0.644l-0.52,2.497
	C65.507,21.886,64.987,23.578,63.908,25.31z"/>
<path fill="none" stroke="#000000" stroke-width="0.201" stroke-miterlimit="3.863" d="M63.908,25.31
	c-0.24-0.202-0.56-0.161-0.88-0.161c-0.759,0-1.439,0.725-1.439,1.489c0,0.807,0.68,1.45,1.439,1.45c0.68,0,1.279-0.443,1.479-1.048
	h7.516c-0.279,4.753-4.158,8.538-8.995,8.538c-4.997,0-9.035-4.067-9.035-9.101c0-5.074,4.039-9.102,9.035-9.102
	c1.2,0,2.359,0.201,3.359,0.644l-0.52,2.497C65.507,21.886,64.987,23.578,63.908,25.31z"/>
<path fill="#FFFFFF" d="M67.027,18.302l-0.64,2.618c-0.32,1.248-1.279,3.785-2.08,4.792c0.081,0.161,0.2,0.403,0.2,0.604h7.557
	C71.984,22.772,69.945,19.752,67.027,18.302z"/>
<path fill="none" stroke="#000000" stroke-width="0.201" stroke-miterlimit="3.863" d="M67.027,18.302l-0.64,2.618
	c-0.32,1.248-1.279,3.785-2.08,4.792c0.081,0.161,0.2,0.403,0.2,0.604h7.557C71.984,22.772,69.945,19.752,67.027,18.302z"/>
<path fill="#FFFFFF" d="M67.986,14.194l0.28-1.611h18.91l-5.277,11.195c-0.199-0.12-0.36-0.281-0.72-0.2v-3.182h0.44v-0.563H80.18
	v0.563h0.439v3.182c-0.52,0.16-0.96,0.362-1.359,0.645L67.986,14.194z"/>
<path fill="none" stroke="#000000" stroke-width="0.201" stroke-miterlimit="3.863" d="M67.986,14.194l0.28-1.611h18.91
	l-5.277,11.195c-0.199-0.12-0.36-0.281-0.72-0.2v-3.182h0.44v-0.563H80.18v0.563h0.439v3.182c-0.52,0.16-0.96,0.362-1.359,0.645
	L67.986,14.194z"/>
<path fill="#FFFFFF" d="M97.21,25.551l5.997-3.343c0.721,1.289,1.08,2.779,1.08,4.35c0,5.034-3.998,9.101-8.955,9.101
	c-4.879,0-8.836-3.865-9.036-8.698h7.036c0.16,0.927,1,1.611,2,1.611c1.079,0,2.039-0.927,2.039-2.014
	c0-0.362-0.08-0.685-0.24-0.966L97.21,25.551z"/>
<path fill="none" stroke="#000000" stroke-width="0.201" stroke-miterlimit="3.863" d="M97.21,25.551l5.997-3.343
	c0.721,1.289,1.08,2.779,1.08,4.35c0,5.034-3.998,9.101-8.955,9.101c-4.878,0-8.836-3.865-9.036-8.698h7.036
	c0.16,0.927,1,1.611,2,1.611c1.079,0,2.039-0.927,2.039-2.014c0-0.362-0.08-0.685-0.24-0.966L97.21,25.551z"/>
<path fill="#FFFFFF" d="M96.891,25.148l6.078-3.343c-1.561-2.617-4.479-4.349-7.717-4.349c-1.439,0-2.84,0.362-4.078,1.007
	l3.438,6.161c0.201-0.04,0.48-0.121,0.761-0.121C95.931,24.504,96.452,24.785,96.891,25.148z"/>
<path fill="none" stroke="#000000" stroke-width="0.201" stroke-miterlimit="3.863" d="M96.891,25.148l6.078-3.343
	c-1.561-2.617-4.479-4.349-7.717-4.349c-1.439,0-2.84,0.362-4.078,1.007l3.438,6.161c0.201-0.04,0.48-0.121,0.761-0.121
	C95.931,24.504,96.452,24.785,96.891,25.148z"/>
<path fill="#FFFFFF" d="M90.694,18.826l3.439,6.241c-0.359,0.242-0.641,0.726-0.72,1.208h-7.157c0.08-3.181,1.76-5.96,4.318-7.489
	L90.694,18.826z"/>
<path fill="none" stroke="#000000" stroke-width="0.201" stroke-miterlimit="3.863" d="M90.694,18.826l3.439,6.241
	c-0.359,0.242-0.641,0.726-0.72,1.208h-7.157c0.08-3.181,1.76-5.96,4.318-7.489L90.694,18.826z"/>
<path fill="#FFFFFF" d="M87.536,13.107l-4.917,10.993c0.72,0.484,1.28,1.289,1.319,2.216h1.479c0.041-3.544,1.96-6.646,4.799-8.337
	L87.536,13.107z"/>
<path fill="none" stroke="#000000" stroke-width="0.201" stroke-miterlimit="3.863" d="M87.536,13.107l-4.917,10.993
	c0.72,0.484,1.28,1.289,1.319,2.215h1.479c0.041-3.543,1.96-6.645,4.799-8.336L87.536,13.107z"/>
<path fill="none" stroke="#000000" stroke-width="0.201" stroke-miterlimit="3.863" d="M84.737,28.169
	c-0.08-0.524-0.119-1.047-0.119-1.611c0-6.041,4.838-10.913,10.795-10.913c4.397,0,8.154,2.657,9.835,6.523"/>
<polygon points="25.688,28.611 25.647,9.081 27.926,9.081 27.926,28.611 31.325,28.611 26.807,36.545 22.249,28.611 "/>
<polygon fill="none" stroke="#000000" stroke-width="0" stroke-miterlimit="3.863" points="25.688,28.611 25.647,9.081 
	27.926,9.081 27.926,28.611 31.325,28.611 26.807,36.545 22.249,28.611 "/>
<polygon points="130.475,17.014 130.434,36.545 132.713,36.545 132.713,17.014 136.111,17.014 131.593,9.081 127.036,17.014 "/>
<polygon fill="none" stroke="#000000" stroke-width="0" stroke-miterlimit="3.863" points="130.475,17.014 130.434,36.545 
	132.713,36.545 132.713,17.014 136.111,17.014 131.593,9.081 127.036,17.014 "/>
</svg>
