<?xml version="1.0" encoding="utf-8"?>
<!-- Generator: Adobe Illustrator 14.0.0, SVG Export Plug-In . SVG Version: 6.00 Build 43363)  -->
<!DOCTYPE svg PUBLIC "-//W3C//DTD SVG 1.1//EN" "http://www.w3.org/Graphics/SVG/1.1/DTD/svg11.dtd">
<svg version="1.1" id="Calque_1" xmlns="http://www.w3.org/2000/svg" xmlns:xlink="http://www.w3.org/1999/xlink" x="0px" y="0px"
	 width="158.482px" height="90.41px" viewBox="0 0 158.482 90.41" enable-background="new 0 0 158.482 90.41" xml:space="preserve">
<path fill="#FFFFFF" d="M158.382,13.742v63.005c0,7.478-6.103,13.563-13.56,13.563H13.738C6.201,90.311,0.1,84.225,0.1,76.747
	V13.742C0.1,6.186,6.201,0.1,13.738,0.1h131.603C152.839,0.1,158.382,6.186,158.382,13.742z"/>
<path fill="none" stroke="#000000" stroke-width="0.199" stroke-miterlimit="3.863" d="M158.382,13.742v63.005
	c0,7.478-6.103,13.563-13.56,13.563H13.738C6.201,90.311,0.1,84.225,0.1,76.747V13.742C0.1,6.186,6.201,0.1,13.738,0.1h131.603
	C152.839,0.1,158.382,6.186,158.382,13.742z"/>
<path fill-rule="evenodd" clip-rule="evenodd" d="M79.221,77.662l1.116,3.938h-2.193L79.221,77.662z M78.184,75.354l-3.19,10.143
	h1.995l0.638-2.068h3.23l0.678,2.068h1.955l-3.151-10.143H78.184z"/>
<path fill="none" stroke="#000000" stroke-width="0" stroke-miterlimit="3.863" d="M79.221,77.662l1.116,3.938h-2.193L79.221,77.662
	z M78.184,75.354l-3.19,10.143h1.995l0.638-2.068h3.23l0.678,2.068h1.955l-3.151-10.143H78.184z"/>
<path d="M66.978,52.364l4.227-8.79c-0.518-0.199-1.435,0.398-2.472,0.358c-0.119-0.08-0.479,0.238-0.598-0.915
	c-0.279-0.676-0.12-0.836-0.12-1.551c0.957,0,2.074-1.273,3.031-0.238c0.08,0.198,0.199,0.277,0.279,0.477
	c0.119-0.039,0.358,0.358,0.479,0.358c0.598-1.114,0.08-3.183,1.037-4.177c0.16-0.199,1.196,0.12,1.356-0.04
	c-0.519,0.796,0.877,0.278,1.356,0.518c0,0.357-0.319,1.034-0.479,1.392c-0.599,0.119-0.998,0-1.595-0.04
	c-0.279,0.875-0.16,2.784-0.917,3.898l0.558,0.914v0.757l-0.917,2.545l0.24,0.358l0.997,0.278l0.279,0.557v1.074l4.188,5.807h7.896
	l3.15-8.393l-4.586-0.915l-1.156-0.755l0.238-0.398l0.16-0.317h8.135c0.719,0.278,0.479,1.829,0.199,2.267
	c-0.357,0.279-0.916,0.357-1.396,0.438l-0.558,1.949h11.564l0.318,0.717l0.799,0.118c0.678,1.473,2.672,7.598,2.592,9.229
	c-0.039,0.676-0.279,1.034-0.279,1.591c0,5.052-4.107,9.148-9.172,9.148c-3.629,0-6.779-2.148-8.215-5.171h-3.669
	c0.079,0.08-0.2,0.478,0.318,0.397c0.279-0.039,0.08,1.273-0.718,1.153c-0.08-0.079-0.838,0.04-0.918-0.397
	c-0.039-0.198,0-0.397,0.08-0.596c0.08-0.16,0.24-0.12,0.32-0.199v-0.358h-5.823c-4.986-0.357-1.715-7.836-1.755-9.467
	c0-0.397-0.678-1.749-4.067-2.744c-0.917-0.278-1.556-2.227-2.114-2.427l-1.076,2.229c2.751,1.829,4.586,4.971,4.586,8.472
	c0,0.438-0.04,0.874-0.08,1.352c-0.04,0.358-1.037,0.318-1.316,0.438c-0.838,4.177-4.547,7.319-8.934,7.319
	c-5.064,0-9.172-4.097-9.172-9.148c0-4.494,3.271-8.233,7.577-9.029l-0.041,0.04c-0.159-0.278,0-1.113,0.36-1.153
	c0.438-0.04,0.877-0.08,1.315-0.08c1.675,0,3.271,0.398,4.666,1.114L66.978,52.364z"/>
<path fill="none" stroke="#000000" stroke-width="0" stroke-miterlimit="3.863" d="M66.978,52.364l4.227-8.79
	c-0.518-0.199-1.435,0.398-2.472,0.358c-0.119-0.08-0.479,0.238-0.598-0.915c-0.279-0.676-0.12-0.836-0.12-1.551
	c0.957,0,2.074-1.273,3.031-0.238c0.08,0.198,0.199,0.277,0.279,0.477c0.119-0.039,0.358,0.358,0.479,0.358
	c0.598-1.114,0.08-3.183,1.037-4.177c0.16-0.199,1.196,0.12,1.356-0.04c-0.519,0.796,0.877,0.278,1.356,0.518
	c0,0.357-0.319,1.034-0.479,1.392c-0.599,0.119-0.998,0-1.595-0.04c-0.279,0.875-0.16,2.784-0.917,3.898l0.558,0.914v0.757
	l-0.917,2.545l0.24,0.358l0.997,0.278l0.279,0.557v1.074l4.188,5.807h7.896l3.15-8.393l-4.586-0.915l-1.156-0.755l0.238-0.398
	l0.16-0.317h8.135c0.719,0.278,0.479,1.829,0.199,2.267c-0.357,0.279-0.916,0.357-1.396,0.438l-0.558,1.949h11.564l0.318,0.717
	l0.799,0.118c0.678,1.473,2.672,7.598,2.592,9.229c-0.039,0.676-0.279,1.034-0.279,1.591c0,5.052-4.107,9.148-9.172,9.148
	c-3.629,0-6.779-2.148-8.215-5.171h-3.669c0.079,0.08-0.2,0.478,0.318,0.397c0.279-0.039,0.08,1.273-0.718,1.153
	c-0.08-0.079-0.838,0.04-0.918-0.397c-0.039-0.198,0-0.397,0.08-0.596c0.08-0.16,0.24-0.12,0.32-0.199v-0.358h-5.823
	c-4.986-0.357-1.715-7.836-1.755-9.467c0-0.397-0.678-1.749-4.067-2.744c-0.917-0.278-1.556-2.227-2.114-2.427l-1.076,2.229
	c2.751,1.829,4.586,4.971,4.586,8.472c0,0.438-0.04,0.874-0.08,1.352c-0.04,0.358-1.037,0.318-1.316,0.438
	c-0.838,4.177-4.547,7.319-8.934,7.319c-5.064,0-9.172-4.097-9.172-9.148c0-4.494,3.271-8.233,7.577-9.029l-0.041,0.04
	c-0.159-0.278,0-1.113,0.36-1.153c0.438-0.04,0.877-0.08,1.315-0.08c1.675,0,3.271,0.398,4.666,1.114L66.978,52.364z"/>
<path fill="#FFFFFF" d="M63.469,59.485l2.153-4.177c-0.997-0.478-2.034-0.756-3.15-0.756c-3.828,0-6.939,3.103-6.939,6.921
	s3.111,6.921,6.939,6.921c3.669,0,6.7-2.863,6.939-6.483h-4.706c-0.239,0.914-1.036,1.552-1.994,1.552
	c-1.196,0-2.114-0.915-2.114-2.108c0-1.153,0.917-2.068,2.114-2.068c0.279,0,0.559,0.039,0.798,0.159L63.469,59.485z"/>
<path fill="none" stroke="#FFFFFF" stroke-width="0" stroke-miterlimit="3.863" d="M63.469,59.485l2.153-4.177
	c-0.997-0.478-2.034-0.756-3.15-0.756c-3.828,0-6.939,3.103-6.939,6.921s3.111,6.921,6.939,6.921c3.669,0,6.7-2.863,6.939-6.483
	h-4.706c-0.239,0.914-1.036,1.552-1.994,1.552c-1.196,0-2.114-0.915-2.114-2.108c0-1.153,0.917-2.068,2.114-2.068
	c0.279,0,0.559,0.039,0.798,0.159L63.469,59.485z"/>
<path fill="#FFFFFF" d="M64.505,60.679h4.865c-0.239-1.91-1.235-3.541-2.631-4.614l-2.234,4.534V60.679z"/>
<path fill="none" stroke="#FFFFFF" stroke-width="0" stroke-miterlimit="3.863" d="M64.505,60.679h4.865
	c-0.239-1.91-1.235-3.541-2.631-4.614l-2.234,4.534V60.679z"/>
<path fill="#FFFFFF" d="M91.463,53.359c-1.914,0.954-3.389,2.545-4.027,4.495l-0.559,0.039l2.273-6.244h1.635
	C90.746,53.002,91.184,52.842,91.463,53.359z"/>
<path fill="none" stroke="#FFFFFF" stroke-width="0" stroke-miterlimit="3.863" d="M91.463,53.359
	c-1.914,0.954-3.389,2.545-4.027,4.495l-0.559,0.039l2.273-6.244h1.635C90.747,53.002,91.184,52.842,91.463,53.359z"/>
<path fill="#FFFFFF" d="M96.807,54.791c3.471,0.478,6.143,3.342,6.143,6.762c0,3.818-3.23,6.881-7.178,6.881
	c-2.474,0-4.588-1.153-5.903-2.902l10.409-0.279v-2.467l-2.992,0.04c0.399-0.357,0.679-0.914,0.679-1.551
	c0-0.716-0.358-1.313-0.997-1.671L96.807,54.791z"/>
<path fill="none" stroke="#FFFFFF" stroke-width="0" stroke-miterlimit="3.863" d="M96.807,54.791
	c3.471,0.478,6.143,3.342,6.143,6.762c0,3.818-3.23,6.881-7.178,6.881c-2.474,0-4.588-1.153-5.903-2.902l10.409-0.279v-2.467
	l-2.992,0.04c0.399-0.357,0.679-0.914,0.679-1.551c0-0.716-0.358-1.313-0.997-1.671L96.807,54.791z"/>
<path fill="#FFFFFF" d="M94.136,62.189l-5.104,0.318c0.039,0.317,0.119,0.636,0.199,0.915l5.543-0.518
	C94.535,62.707,94.295,62.508,94.136,62.189z"/>
<path fill="none" stroke="#FFFFFF" stroke-width="0" stroke-miterlimit="3.863" d="M94.136,62.189l-5.104,0.318
	c0.039,0.317,0.119,0.636,0.199,0.915l5.543-0.518C94.535,62.707,94.295,62.508,94.136,62.189z"/>
<path fill="#FFFFFF" d="M95.212,59.286c-0.798,0.277-1.355,1.033-1.355,1.908l-4.865-0.238c0.239-3.182,2.632-5.768,5.782-6.245
	L95.212,59.286z"/>
<path fill="none" stroke="#FFFFFF" stroke-width="0" stroke-miterlimit="3.863" d="M95.212,59.286
	c-0.798,0.277-1.355,1.033-1.355,1.908l-4.865-0.238c0.239-3.182,2.632-5.768,5.782-6.245L95.212,59.286z"/>
<path fill="#FFFFFF" d="M77.944,62.746h-2.273c0,0.756,0.359,0.915,0.758,1.313c0.279,0.199,0.638,0.199,0.758,0.199h1.475
	C78.224,63.86,78.384,62.746,77.944,62.746z"/>
<path fill="none" stroke="#FFFFFF" stroke-width="0" stroke-miterlimit="3.863" d="M77.944,62.746h-2.273
	c0,0.756,0.359,0.915,0.758,1.313c0.279,0.199,0.638,0.199,0.758,0.199h1.475C78.224,63.86,78.384,62.746,77.944,62.746z"/>
<path fill="#FFFFFF" d="M86.241,60.797c0,0.239-0.479,0.995,0.078,1.393c0.121,0.04,0.24,0.278,0.359-0.08
	c-0.119-0.277-0.279-0.357-0.238-0.875C86.559,61.115,86.518,60.599,86.241,60.797z"/>
<path fill="none" stroke="#FFFFFF" stroke-width="0" stroke-miterlimit="3.863" d="M86.241,60.797c0,0.239-0.479,0.995,0.078,1.393
	c0.121,0.04,0.24,0.278,0.359-0.08c-0.119-0.277-0.279-0.357-0.238-0.875C86.559,61.115,86.518,60.599,86.241,60.797z"/>
<path fill="#FFFFFF" d="M83.887,63.701l1.315-0.04c0.04,0,0.08-0.08,0.159-0.04c0-0.119,0.08-0.238,0.04-0.358
	c-0.04-0.039-0.079-0.079-0.119-0.119c-0.519-0.198-1.077-0.039-1.517,0.199c-0.039,0.08,0.041,0.12,0.041,0.198
	C83.847,63.581,83.927,63.621,83.887,63.701z"/>
<path fill="none" stroke="#FFFFFF" stroke-width="0" stroke-miterlimit="3.863" d="M83.887,63.701l1.315-0.04
	c0.04,0,0.08-0.08,0.159-0.04c0-0.119,0.08-0.238,0.04-0.358c-0.04-0.039-0.079-0.079-0.119-0.119
	c-0.519-0.198-1.077-0.039-1.517,0.199c-0.039,0.08,0.041,0.12,0.041,0.198C83.847,63.581,83.927,63.621,83.887,63.701z"/>
<path fill="#FFFFFF" d="M81.854,63.9c0.318,0,0.637,0.039,0.955-0.12c-0.039-0.079,0.041-0.119,0.041-0.159
	c-0.318-0.119-0.678,0-0.918,0.08C81.893,63.701,81.733,63.9,81.854,63.9z"/>
<path fill="none" stroke="#FFFFFF" stroke-width="0" stroke-miterlimit="3.863" d="M81.854,63.9c0.318,0,0.637,0.039,0.955-0.12
	c-0.039-0.079,0.041-0.119,0.041-0.159c-0.318-0.119-0.678,0-0.918,0.08C81.893,63.701,81.733,63.9,81.854,63.9z"/>
<path fill="#FFFFFF" d="M101.633,51.649c-0.199,0.875-0.797,1.511-1.275,1.908c0.479,0.598,1.754,0.676,2.073,1.354
	C102.67,53.718,101.872,51.967,101.633,51.649z"/>
<path fill="none" stroke="#FFFFFF" stroke-width="0" stroke-miterlimit="3.863" d="M101.633,51.649
	c-0.199,0.875-0.797,1.511-1.275,1.908c0.479,0.598,1.754,0.676,2.073,1.354C102.67,53.718,101.872,51.967,101.633,51.649z"/>
<polygon points="26.021,54.195 26.021,28.262 28.294,28.262 28.294,54.233 31.645,54.233 27.138,62.109 22.592,54.233 
	26.021,54.233 "/>
<polygon fill="none" stroke="#000000" stroke-width="0" stroke-miterlimit="3.863" points="26.021,54.195 26.021,28.262 
	28.294,28.262 28.294,54.233 31.645,54.233 27.138,62.109 22.592,54.233 26.021,54.233 "/>
<polygon points="130.706,36.176 130.706,62.109 132.979,62.109 132.979,36.137 136.329,36.137 131.822,28.262 127.276,36.137 
	130.706,36.137 "/>
<polygon fill="none" stroke="#000000" stroke-width="0" stroke-miterlimit="3.863" points="130.706,36.176 130.706,62.109 
	132.979,62.109 132.979,36.137 136.329,36.137 131.822,28.262 127.276,36.137 130.706,36.137 "/>
<path d="M67.975,11.038l10.927,9.705c-0.438,0.478-0.678,1.153-0.678,1.83c0,1.392,1.117,2.625,2.512,2.784v3.222h-0.398v0.597
	h1.356v-0.597h-0.359v-3.182c1.275-0.08,2.273-1.153,2.513-2.348h1.515c0.239,5.29,4.627,9.547,9.932,9.547
	c5.502,0,9.969-4.455,9.969-9.944c0-5.449-4.467-9.943-9.969-9.943c-1.636,0-3.23,0.438-4.588,1.153l-2.752-5.131l0.6-1.313
	c0.239-0.438,0.797-0.318,1.156-0.676c0.04-0.2,0.04-0.398,0.04-0.598c-0.16-0.04-0.239-0.317-0.479-0.317h-3.67
	c-0.119,0.119-0.239,0.079-0.318,0.079c-0.04,0.04-0.08,0.08-0.16,0.119c0,0.159-0.079,0.438,0,0.597c0.08,0.04,0.16,0.08,0.2,0.08
	h1.875c0.238-0.04,0.398,0.04,0.637,0.119c0.041,0.079,0.041,0.079,0.119,0.079c0,0.159,0.08,0.319,0.041,0.438l-0.398,0.915H68.573
	l0.558-2.267c0.399-0.159,0.758,0.158,1.635-0.239c0.359,0,1.156-0.438,2.154-0.12c0.159-0.038-0.08-0.158,0.04-0.277
	c-0.08-0.04,0.119-0.238,0.08-0.358c-0.559-0.159-1.835-0.238-2.473,0.12c-0.558,0.357-1.396,0.079-1.954,0.158l-1.875,8.074
	c-1.077-0.438-2.313-0.676-3.55-0.676c-5.503,0-9.93,4.495-9.93,9.944c0,5.488,4.427,9.943,9.93,9.943
	c5.463,0,9.93-4.455,9.93-9.943c0-4.019-2.393-7.438-5.783-8.989L67.975,11.038z"/>
<path fill="none" stroke="#000000" stroke-width="0.199" stroke-miterlimit="3.863" d="M67.975,11.038l10.927,9.705
	c-0.438,0.478-0.678,1.153-0.678,1.83c0,1.392,1.117,2.625,2.512,2.784v3.222h-0.398v0.597h1.356v-0.597h-0.359v-3.182
	c1.275-0.08,2.273-1.154,2.513-2.348h1.515c0.239,5.29,4.627,9.547,9.932,9.547c5.502,0,9.969-4.455,9.969-9.944
	c0-5.449-4.467-9.943-9.969-9.943c-1.636,0-3.23,0.438-4.588,1.153l-2.752-5.131l0.6-1.313c0.239-0.438,0.797-0.318,1.156-0.676
	c0.04-0.2,0.04-0.398,0.04-0.598c-0.16-0.04-0.239-0.317-0.479-0.317h-3.67c-0.119,0.119-0.239,0.079-0.318,0.079
	c-0.04,0.04-0.08,0.08-0.16,0.119c0,0.159-0.079,0.438,0,0.597c0.08,0.04,0.16,0.08,0.2,0.08h1.875
	c0.238-0.04,0.398,0.04,0.637,0.119c0.041,0.079,0.041,0.079,0.119,0.079c0,0.159,0.08,0.319,0.041,0.438l-0.398,0.915H68.573
	l0.558-2.267c0.399-0.159,0.758,0.158,1.635-0.239c0.359,0,1.156-0.438,2.154-0.12c0.159-0.038-0.08-0.158,0.04-0.277
	c-0.08-0.04,0.119-0.238,0.08-0.358c-0.559-0.159-1.835-0.238-2.473,0.12c-0.558,0.357-1.396,0.079-1.954,0.158l-1.875,8.074
	c-1.077-0.438-2.313-0.676-3.549-0.676c-5.503,0-9.93,4.495-9.93,9.944c0,5.488,4.427,9.943,9.93,9.943
	c5.463,0,9.93-4.455,9.93-9.943c0-4.019-2.393-7.438-5.783-8.989L67.975,11.038z"/>
<path fill="none" stroke="#000000" stroke-width="0.199" stroke-miterlimit="3.863" d="M61.554,12.033
	c0.598-0.08,1.116-0.16,1.635-0.16c5.941,0,10.728,4.813,10.728,10.779c0,0.318,0,0.597-0.04,1.034"/>
<path fill="#FFFFFF" d="M64.026,21.419c-0.239-0.198-0.558-0.158-0.877-0.158c-0.758,0-1.436,0.716-1.436,1.471
	c0,0.796,0.678,1.433,1.436,1.433c0.678,0,1.277-0.438,1.476-1.034h7.497c-0.278,4.694-4.147,8.432-8.973,8.432
	c-4.984,0-9.012-4.017-9.012-8.988c0-5.012,4.028-8.989,9.012-8.989c1.197,0,2.354,0.198,3.351,0.636l-0.519,2.467
	C65.622,18.039,65.104,19.71,64.026,21.419z"/>
<path fill="none" stroke="#000000" stroke-width="0.199" stroke-miterlimit="3.863" d="M64.026,21.419
	c-0.239-0.198-0.558-0.158-0.877-0.158c-0.758,0-1.436,0.716-1.436,1.471c0,0.796,0.678,1.433,1.436,1.433
	c0.678,0,1.277-0.438,1.476-1.034h7.497c-0.278,4.694-4.147,8.432-8.973,8.432c-4.984,0-9.012-4.017-9.012-8.988
	c0-5.012,4.028-8.989,9.012-8.989c1.197,0,2.354,0.198,3.351,0.636l-0.519,2.467C65.622,18.039,65.104,19.71,64.026,21.419z"/>
<path fill="#FFFFFF" d="M67.137,14.499L66.5,17.084c-0.319,1.233-1.277,3.739-2.074,4.732c0.079,0.16,0.199,0.399,0.199,0.598h7.537
	C72.083,18.914,70.048,15.931,67.137,14.499z"/>
<path fill="none" stroke="#000000" stroke-width="0.199" stroke-miterlimit="3.863" d="M67.137,14.499L66.5,17.084
	c-0.319,1.233-1.277,3.739-2.074,4.732c0.079,0.16,0.199,0.399,0.199,0.598h7.537C72.083,18.914,70.048,15.931,67.137,14.499z"/>
<path fill="#FFFFFF" d="M68.095,10.442l0.279-1.593h18.863l-5.264,11.059c-0.199-0.12-0.359-0.278-0.719-0.198v-3.144h0.439v-0.556
	h-1.437v0.556h0.439v3.144c-0.519,0.158-0.957,0.357-1.356,0.636L68.095,10.442z"/>
<path fill="none" stroke="#000000" stroke-width="0.199" stroke-miterlimit="3.863" d="M68.095,10.442l0.279-1.593h18.863
	l-5.264,11.059c-0.199-0.12-0.359-0.278-0.719-0.198v-3.144h0.439v-0.556h-1.437v0.556h0.439v3.144
	c-0.519,0.158-0.957,0.357-1.356,0.636L68.095,10.442z"/>
<path fill="#FFFFFF" d="M97.247,21.658l5.981-3.302c0.718,1.273,1.077,2.745,1.077,4.296c0,4.972-3.988,8.989-8.934,8.989
	c-4.865,0-8.813-3.817-9.012-8.592h7.019c0.159,0.915,0.997,1.592,1.993,1.592c1.078,0,2.035-0.915,2.035-1.989
	c0-0.358-0.08-0.676-0.24-0.954L97.247,21.658z"/>
<path fill="none" stroke="#000000" stroke-width="0.199" stroke-miterlimit="3.863" d="M97.247,21.658l5.981-3.302
	c0.718,1.273,1.077,2.745,1.077,4.296c0,4.972-3.988,8.989-8.934,8.989c-4.865,0-8.813-3.817-9.012-8.592h7.019
	c0.159,0.915,0.997,1.592,1.993,1.592c1.078,0,2.035-0.915,2.035-1.989c0-0.358-0.08-0.676-0.24-0.954L97.247,21.658z"/>
<path fill="#FFFFFF" d="M96.928,21.261l6.062-3.302c-1.556-2.586-4.467-4.295-7.696-4.295c-1.437,0-2.832,0.357-4.068,0.993
	l3.429,6.086c0.2-0.04,0.479-0.119,0.759-0.119C95.971,20.624,96.489,20.902,96.928,21.261z"/>
<path fill="none" stroke="#000000" stroke-width="0.199" stroke-miterlimit="3.863" d="M96.928,21.261l6.062-3.302
	c-1.556-2.586-4.467-4.295-7.696-4.295c-1.437,0-2.832,0.357-4.068,0.993l3.429,6.086c0.2-0.04,0.479-0.119,0.759-0.119
	C95.971,20.624,96.489,20.902,96.928,21.261z"/>
<path fill="#FFFFFF" d="M90.746,15.016l3.43,6.165c-0.358,0.238-0.638,0.716-0.717,1.193h-7.14c0.08-3.142,1.756-5.887,4.308-7.398
	L90.746,15.016z"/>
<path fill="none" stroke="#000000" stroke-width="0.199" stroke-miterlimit="3.863" d="M90.747,15.016l3.429,6.165
	c-0.358,0.238-0.638,0.716-0.717,1.193h-7.14c0.08-3.142,1.756-5.887,4.308-7.398L90.747,15.016z"/>
<path fill="#FFFFFF" d="M87.596,9.367L82.69,20.226c0.719,0.478,1.276,1.273,1.316,2.188h1.476c0.04-3.5,1.954-6.563,4.785-8.234
	L87.596,9.367z"/>
<path fill="none" stroke="#000000" stroke-width="0.199" stroke-miterlimit="3.863" d="M87.596,9.367L82.69,20.226
	c0.719,0.478,1.276,1.273,1.316,2.188h1.476c0.04-3.5,1.954-6.563,4.785-8.234L87.596,9.367z"/>
<path fill="none" stroke="#000000" stroke-width="0.199" stroke-miterlimit="3.863" d="M84.804,24.243
	c-0.08-0.517-0.12-1.034-0.12-1.591c0-5.966,4.826-10.779,10.768-10.779c4.387,0,8.136,2.626,9.811,6.444"/>
</svg>
