<?xml version="1.0" encoding="utf-8"?>
<!-- Generator: Adobe Illustrator 14.0.0, SVG Export Plug-In . SVG Version: 6.00 Build 43363)  -->
<!DOCTYPE svg PUBLIC "-//W3C//DTD SVG 1.1//EN" "http://www.w3.org/Graphics/SVG/1.1/DTD/svg11.dtd">
<svg version="1.1" id="Calque_1" xmlns="http://www.w3.org/2000/svg" xmlns:xlink="http://www.w3.org/1999/xlink" x="0px" y="0px"
	 width="136.78px" height="102.641px" viewBox="0 0 136.78 102.641" enable-background="new 0 0 136.78 102.641"
	 xml:space="preserve">
<path fill="none" stroke="#000000" stroke-width="0.2" stroke-miterlimit="3.863" d="M0.14,68.328l0.04-54.398
	c0-7.514,6.077-13.59,13.594-13.59L121.808,0.1c7.516,0,14.873,6.435,14.873,13.989v54.078l-0.041,20.783
	c0,7.515-6.076,13.591-13.594,13.591H13.694c-7.517,0-13.634-6.076-13.594-13.55l0.04-20.824V68.328z"/>
<path d="M49.918,27.958l6.357-13.23c-0.759-0.319-2.159,0.6-3.718,0.521c-0.16-0.12-0.72,0.36-0.88-1.359
	c-0.44-1.039-0.2-1.279-0.2-2.358c1.44,0,3.119-1.919,4.558-0.36c0.12,0.32,0.32,0.44,0.44,0.719c0.16-0.04,0.52,0.56,0.72,0.56
	c0.88-1.679,0.12-4.796,1.559-6.315c0.24-0.32,1.799,0.2,2.039-0.04c-0.799,1.199,1.32,0.4,2.039,0.759
	c0,0.56-0.479,1.559-0.719,2.119c-0.92,0.16-1.52,0-2.399-0.08c-0.44,1.319-0.24,4.197-1.4,5.875l0.84,1.399v1.119l-1.359,3.837
	l0.359,0.56l1.48,0.4l0.44,0.839v1.639l6.277,8.753h11.875l4.758-12.67l-6.916-1.359l-1.721-1.159l0.36-0.6l0.239-0.48h12.236
	c1.078,0.44,0.719,2.758,0.279,3.438c-0.52,0.399-1.359,0.519-2.079,0.639l-0.84,2.958h17.392l0.48,1.079l1.199,0.16
	c1,2.238,3.998,11.471,3.879,13.949c-0.04,1-0.4,1.559-0.4,2.398c0,7.595-6.197,13.79-13.794,13.79
	c-5.478,0-10.194-3.238-12.354-7.794h-5.518c0.12,0.12-0.32,0.719,0.48,0.599c0.4-0.079,0.119,1.919-1.08,1.719
	c-0.12-0.12-1.279,0.08-1.399-0.599c-0.04-0.28,0-0.6,0.12-0.88c0.12-0.24,0.36-0.2,0.48-0.319v-0.52h-8.757
	c-7.476-0.56-2.559-11.831-2.638-14.269c0-0.6-1-2.638-6.118-4.157c-1.359-0.44-2.319-3.357-3.158-3.677l-1.64,3.357
	c4.158,2.798,6.917,7.515,6.917,12.79c0,0.68-0.08,1.319-0.12,2.039c-0.08,0.559-1.559,0.48-1.999,0.679
	c-1.239,6.276-6.837,11.032-13.434,11.032c-7.597,0-13.794-6.195-13.794-13.79c0-6.794,4.918-12.43,11.395-13.629l-0.04,0.04
	c-0.24-0.4,0-1.679,0.52-1.719c0.68-0.08,1.319-0.12,1.999-0.12c2.519,0,4.918,0.6,6.997,1.679L49.918,27.958z"/>
<path fill="none" stroke="#000000" stroke-width="0" stroke-miterlimit="3.863" d="M49.918,27.958l6.357-13.23
	c-0.759-0.319-2.159,0.6-3.718,0.521c-0.16-0.12-0.72,0.36-0.88-1.359c-0.44-1.039-0.2-1.279-0.2-2.358
	c1.44,0,3.119-1.919,4.558-0.36c0.12,0.32,0.32,0.44,0.44,0.719c0.16-0.04,0.52,0.56,0.72,0.56c0.88-1.679,0.12-4.796,1.559-6.315
	c0.24-0.32,1.799,0.2,2.039-0.04c-0.799,1.199,1.32,0.4,2.039,0.759c0,0.56-0.479,1.559-0.719,2.119c-0.92,0.16-1.52,0-2.399-0.08
	c-0.44,1.319-0.24,4.197-1.4,5.875l0.84,1.399v1.119l-1.359,3.837l0.359,0.56l1.48,0.4l0.44,0.839v1.639l6.277,8.753h11.875
	l4.758-12.67l-6.916-1.359l-1.721-1.159l0.36-0.6l0.239-0.48h12.236c1.078,0.44,0.719,2.758,0.279,3.438
	c-0.52,0.399-1.359,0.519-2.079,0.639l-0.84,2.958h17.392l0.48,1.079l1.199,0.16c1,2.238,3.998,11.471,3.879,13.949
	c-0.04,1-0.4,1.559-0.4,2.398c0,7.595-6.197,13.79-13.794,13.79c-5.478,0-10.194-3.238-12.354-7.794h-5.518
	c0.12,0.12-0.32,0.719,0.48,0.599c0.4-0.079,0.119,1.919-1.08,1.719c-0.12-0.12-1.279,0.08-1.399-0.599c-0.04-0.28,0-0.6,0.12-0.88
	c0.12-0.24,0.36-0.2,0.48-0.319v-0.52h-8.757c-7.476-0.56-2.559-11.831-2.638-14.269c0-0.6-1-2.638-6.118-4.157
	c-1.359-0.44-2.319-3.357-3.158-3.677l-1.64,3.357c4.158,2.798,6.917,7.515,6.917,12.79c0,0.68-0.08,1.319-0.12,2.039
	c-0.08,0.559-1.559,0.48-1.999,0.679c-1.239,6.276-6.837,11.032-13.434,11.032c-7.597,0-13.794-6.195-13.794-13.79
	c0-6.794,4.918-12.43,11.395-13.629l-0.04,0.04c-0.24-0.4,0-1.679,0.52-1.719c0.68-0.08,1.319-0.12,1.999-0.12
	c2.519,0,4.918,0.6,6.997,1.679L49.918,27.958z"/>
<path fill="#FFFFFF" d="M44.64,38.71l3.239-6.275c-1.479-0.72-3.039-1.159-4.718-1.159c-5.758,0-10.435,4.676-10.435,10.431
	c0,5.756,4.677,10.432,10.435,10.432c5.518,0,10.076-4.316,10.435-9.752H46.52c-0.36,1.359-1.56,2.318-2.999,2.318
	c-1.799,0-3.199-1.359-3.199-3.157c0-1.759,1.4-3.118,3.199-3.118c0.4,0,0.839,0.04,1.199,0.24L44.64,38.71z"/>
<path fill="none" stroke="#FFFFFF" stroke-width="0" stroke-miterlimit="3.863" d="M44.64,38.71l3.239-6.275
	c-1.479-0.72-3.039-1.159-4.718-1.159c-5.758,0-10.435,4.676-10.435,10.431c0,5.756,4.677,10.432,10.435,10.432
	c5.518,0,10.076-4.316,10.435-9.752H46.52c-0.36,1.359-1.56,2.318-2.999,2.318c-1.799,0-3.199-1.359-3.199-3.157
	c0-1.759,1.4-3.118,3.199-3.118c0.4,0,0.839,0.04,1.199,0.24L44.64,38.71z"/>
<path fill="#FFFFFF" d="M46.2,40.508h7.316c-0.359-2.877-1.839-5.315-3.958-6.954L46.2,40.389V40.508z"/>
<path fill="none" stroke="#FFFFFF" stroke-width="0" stroke-miterlimit="3.863" d="M46.2,40.508h7.316
	c-0.359-2.877-1.839-5.315-3.958-6.954L46.2,40.389V40.508z"/>
<path fill="#FFFFFF" d="M86.742,29.477c-2.88,1.439-5.078,3.837-6.037,6.795l-0.841,0.04l3.4-9.433h2.478
	C85.662,28.917,86.342,28.678,86.742,29.477z"/>
<path fill="none" stroke="#FFFFFF" stroke-width="0" stroke-miterlimit="3.863" d="M86.742,29.477
	c-2.88,1.439-5.078,3.837-6.037,6.795l-0.841,0.04l3.4-9.433h2.478C85.662,28.917,86.342,28.678,86.742,29.477z"/>
<path fill="#FFFFFF" d="M94.778,31.635c5.238,0.72,9.236,5.036,9.236,10.192c0,5.756-4.838,10.392-10.796,10.392
	c-3.718,0-6.877-1.758-8.876-4.396l15.674-0.4v-3.717l-4.519,0.04c0.601-0.52,1.04-1.359,1.04-2.318c0-1.079-0.561-1.999-1.52-2.518
	L94.778,31.635z"/>
<path fill="none" stroke="#FFFFFF" stroke-width="0" stroke-miterlimit="3.863" d="M94.778,31.635
	c5.238,0.72,9.236,5.036,9.236,10.192c0,5.756-4.838,10.392-10.796,10.392c-3.718,0-6.877-1.758-8.876-4.396l15.674-0.4v-3.717
	l-4.519,0.04c0.601-0.52,1.04-1.359,1.04-2.318c0-1.079-0.561-1.999-1.52-2.518L94.778,31.635z"/>
<path fill="#FFFFFF" d="M90.78,42.787l-7.676,0.479c0.039,0.48,0.16,0.96,0.278,1.399l8.356-0.799
	C91.38,43.586,91.021,43.266,90.78,42.787z"/>
<path fill="none" stroke="#FFFFFF" stroke-width="0" stroke-miterlimit="3.863" d="M90.78,42.787l-7.676,0.479
	c0.039,0.48,0.16,0.96,0.278,1.399l8.356-0.799C91.38,43.586,91.021,43.266,90.78,42.787z"/>
<path fill="#FFFFFF" d="M92.38,38.43c-1.199,0.4-2.04,1.559-2.04,2.878l-7.315-0.36c0.358-4.796,3.957-8.713,8.715-9.433
	L92.38,38.43z"/>
<path fill="none" stroke="#FFFFFF" stroke-width="0" stroke-miterlimit="3.863" d="M92.38,38.43c-1.199,0.4-2.04,1.559-2.04,2.878
	l-7.315-0.36c0.358-4.796,3.957-8.713,8.715-9.433L92.38,38.43z"/>
<path fill="#FFFFFF" d="M66.431,43.626h-3.439c0,1.159,0.56,1.399,1.16,1.998c0.4,0.28,0.959,0.28,1.119,0.28h2.239
	C66.831,45.305,67.071,43.626,66.431,43.626z"/>
<path fill="none" stroke="#FFFFFF" stroke-width="0" stroke-miterlimit="3.863" d="M66.431,43.626h-3.439
	c0,1.159,0.56,1.399,1.16,1.998c0.4,0.28,0.959,0.28,1.119,0.28h2.239C66.831,45.305,67.071,43.626,66.431,43.626z"/>
<path fill="#FFFFFF" d="M78.905,40.708c0,0.36-0.719,1.479,0.119,2.079c0.16,0.08,0.36,0.439,0.521-0.12
	c-0.16-0.4-0.399-0.52-0.36-1.319C79.385,41.188,79.306,40.389,78.905,40.708z"/>
<path fill="none" stroke="#FFFFFF" stroke-width="0" stroke-miterlimit="3.863" d="M78.905,40.708c0,0.36-0.719,1.479,0.119,2.079
	c0.16,0.08,0.36,0.439,0.521-0.12c-0.16-0.4-0.399-0.52-0.36-1.319C79.385,41.188,79.306,40.389,78.905,40.708z"/>
<path fill="#FFFFFF" d="M75.347,45.065l2-0.04c0.039,0,0.119-0.12,0.239-0.08c0-0.16,0.12-0.36,0.04-0.52
	c-0.04-0.08-0.12-0.12-0.16-0.199c-0.8-0.28-1.639-0.04-2.279,0.319c-0.08,0.12,0.041,0.16,0.041,0.28
	C75.308,44.905,75.427,44.945,75.347,45.065z"/>
<path fill="none" stroke="#FFFFFF" stroke-width="0" stroke-miterlimit="3.863" d="M75.347,45.065l2-0.04
	c0.039,0,0.119-0.12,0.239-0.08c0-0.16,0.12-0.36,0.04-0.52c-0.04-0.08-0.12-0.12-0.16-0.199c-0.8-0.28-1.639-0.04-2.279,0.319
	c-0.08,0.12,0.041,0.16,0.041,0.28C75.308,44.905,75.427,44.945,75.347,45.065z"/>
<path fill="#FFFFFF" d="M72.308,45.385c0.48,0,0.961,0.04,1.44-0.2c-0.08-0.12,0.04-0.16,0.04-0.24c-0.48-0.16-1,0-1.36,0.12
	C72.349,45.065,72.108,45.385,72.308,45.385z"/>
<path fill="none" stroke="#FFFFFF" stroke-width="0" stroke-miterlimit="3.863" d="M72.308,45.385c0.48,0,0.961,0.04,1.44-0.2
	c-0.08-0.12,0.04-0.16,0.04-0.24c-0.48-0.16-1,0-1.36,0.12C72.349,45.065,72.108,45.385,72.308,45.385z"/>
<path fill="#FFFFFF" d="M102.056,26.879c-0.32,1.319-1.199,2.278-1.92,2.878c0.721,0.919,2.639,1.039,3.119,2.078
	C103.614,29.997,102.415,27.359,102.056,26.879z"/>
<path fill="none" stroke="#FFFFFF" stroke-width="0" stroke-miterlimit="3.863" d="M102.056,26.879
	c-0.32,1.319-1.199,2.278-1.92,2.878c0.721,0.919,2.639,1.039,3.119,2.078C103.614,29.997,102.415,27.359,102.056,26.879z"/>
<path fill-rule="evenodd" clip-rule="evenodd" d="M22.09,94.387c-1.319,0-1.519-0.919-1.519-2.758v-5.276
	c0-1.798,0.2-2.718,1.519-2.718c1.36,0,1.559,0.92,1.559,2.718v5.276C23.649,93.468,23.45,94.387,22.09,94.387z M22.09,96.226
	c-3.158,0-3.918-1.639-3.918-7.234c0-5.597,0.76-7.194,3.918-7.194c3.199,0,3.958,1.598,3.958,7.194
	C26.048,94.587,25.289,96.226,22.09,96.226z"/>
<path fill="none" stroke="#000000" stroke-width="0" stroke-miterlimit="3.863" d="M22.09,94.387c-1.319,0-1.519-0.919-1.519-2.758
	v-5.276c0-1.798,0.2-2.718,1.519-2.718c1.36,0,1.559,0.92,1.559,2.718v5.276C23.649,93.468,23.45,94.387,22.09,94.387z
	 M22.09,96.226c-3.158,0-3.918-1.639-3.918-7.234c0-5.597,0.76-7.194,3.918-7.194c3.199,0,3.958,1.598,3.958,7.194
	C26.048,94.587,25.289,96.226,22.09,96.226z"/>
<path fill-rule="evenodd" clip-rule="evenodd" d="M31.006,89.511h0.52c1.839,0,2.239,0.559,2.239,2.277
	c0,1.879-0.44,2.279-2.239,2.279h-0.52V89.511z M31.006,83.916h0.52c1.599,0,1.959,0.52,1.959,1.479c0,1.719-0.12,2.278-1.959,2.278
	h-0.52V83.916z M28.607,95.947V82.076h2.839c2.559,0,4.518,0.36,4.518,3.318c0,1.639-0.24,2.518-1.439,3.117
	c1.279,0.32,1.799,1.68,1.799,3.277c0,2.879-1.479,4.158-4.878,4.158H28.607z"/>
<path fill="none" stroke="#000000" stroke-width="0" stroke-miterlimit="3.863" d="M31.006,89.511h0.52
	c1.839,0,2.239,0.559,2.239,2.277c0,1.879-0.44,2.279-2.239,2.279h-0.52V89.511z M31.006,83.916h0.52
	c1.599,0,1.959,0.52,1.959,1.479c0,1.719-0.12,2.278-1.959,2.278h-0.52V83.916z M28.607,95.947V82.076h2.839
	c2.559,0,4.518,0.36,4.518,3.318c0,1.639-0.24,2.518-1.439,3.117c1.279,0.32,1.799,1.68,1.799,3.277
	c0,2.879-1.479,4.158-4.878,4.158H28.607z"/>
<polygon fill-rule="evenodd" clip-rule="evenodd" points="38.883,82.076 38.883,95.947 45.88,95.947 45.88,93.708 41.282,93.708 
	41.282,82.076 "/>
<polygon fill="none" stroke="#000000" stroke-width="0" stroke-miterlimit="3.863" points="38.883,82.076 38.883,95.947 
	45.88,95.947 45.88,93.708 41.282,93.708 41.282,82.076 "/>
<path fill-rule="evenodd" clip-rule="evenodd" d="M48.439,82.076 M50.838,82.076h-2.399v13.869h2.399V82.076z"/>
<path fill="none" stroke="#000000" stroke-width="0" stroke-miterlimit="3.863" d="M48.439,82.076 M50.838,82.076h-2.399v13.869
	h2.399V82.076z"/>
<path fill-rule="evenodd" clip-rule="evenodd" d="M61.393,86.353c-0.08-2.958-0.92-4.556-4.038-4.556
	c-4.078,0-3.958,3.397-3.958,7.194c0,3.836-0.12,7.234,3.958,7.234c0.839,0,2.159-0.4,2.639-1.199v0.92h1.399v-7.555h-4.118v2.238
	h1.719v0.999c0,1.119,0.04,2.758-1.639,2.758c-1.44,0-1.56-1.639-1.56-2.758v-5.276c0-1.119,0.12-2.718,1.56-2.718
	c1.679,0,1.479,1.64,1.639,2.718H61.393z"/>
<path fill="none" stroke="#000000" stroke-width="0" stroke-miterlimit="3.863" d="M61.393,86.353
	c-0.08-2.958-0.92-4.556-4.038-4.556c-4.078,0-3.958,3.397-3.958,7.194c0,3.836-0.12,7.234,3.958,7.234
	c0.839,0,2.159-0.4,2.639-1.199v0.92h1.399v-7.555h-4.118v2.238h1.719v0.999c0,1.119,0.04,2.758-1.639,2.758
	c-1.44,0-1.56-1.639-1.56-2.758v-5.276c0-1.119,0.12-2.718,1.56-2.718c1.679,0,1.479,1.64,1.639,2.718H61.393z"/>
<path fill-rule="evenodd" clip-rule="evenodd" d="M67.67,90.35l0.92-4.437l0.96,4.437H67.67z M63.952,95.947l2.959-13.871h3.398
	l2.959,13.871h-2.52l-0.76-3.519h-2.758l-0.76,3.519H63.952z"/>
<path fill="none" stroke="#000000" stroke-width="0" stroke-miterlimit="3.863" d="M67.67,90.35l0.92-4.437l0.96,4.437H67.67z
	 M63.952,95.947l2.959-13.871h3.398l2.959,13.871h-2.52l-0.76-3.519h-2.758l-0.76,3.519H63.952z"/>
<polygon fill-rule="evenodd" clip-rule="evenodd" points="74.867,82.076 74.867,84.275 77.666,84.275 77.666,95.947 80.024,95.947 
	80.024,84.275 82.824,84.275 82.824,82.076 "/>
<polygon fill="none" stroke="#000000" stroke-width="0" stroke-miterlimit="3.863" points="74.867,82.076 74.867,84.275 
	77.666,84.275 77.666,95.947 80.024,95.947 80.024,84.275 82.824,84.275 82.824,82.076 "/>
<path fill-rule="evenodd" clip-rule="evenodd" d="M89.301,94.387c-1.319,0-1.519-0.919-1.519-2.758v-5.276
	c0-1.798,0.199-2.718,1.519-2.718c1.359,0,1.56,0.92,1.56,2.718v5.276C90.86,93.468,90.66,94.387,89.301,94.387z M89.301,96.226
	c-3.159,0-3.918-1.639-3.918-7.234c0-5.597,0.759-7.194,3.918-7.194c3.199,0,3.958,1.598,3.958,7.194
	C93.259,94.587,92.5,96.226,89.301,96.226z"/>
<path fill="none" stroke="#000000" stroke-width="0" stroke-miterlimit="3.863" d="M89.301,94.387c-1.319,0-1.519-0.919-1.519-2.758
	v-5.276c0-1.798,0.199-2.718,1.519-2.718c1.359,0,1.56,0.92,1.56,2.718v5.276C90.86,93.468,90.66,94.387,89.301,94.387z
	 M89.301,96.226c-3.159,0-3.918-1.639-3.918-7.234c0-5.597,0.759-7.194,3.918-7.194c3.199,0,3.958,1.598,3.958,7.194
	C93.259,94.587,92.5,96.226,89.301,96.226z"/>
<path fill-rule="evenodd" clip-rule="evenodd" d="M95.817,82.076 M98.217,82.076h-2.399v13.869h2.399V82.076z"/>
<path fill="none" stroke="#000000" stroke-width="0" stroke-miterlimit="3.863" d="M95.817,82.076 M98.217,82.076h-2.399v13.869
	h2.399V82.076z"/>
<path fill-rule="evenodd" clip-rule="evenodd" d="M103.175,84.275v3.518h1.799c1.719,0,1.719-3.518,0-3.518H103.175z
	 M100.776,82.076v13.871h2.398v-6.315h1.799c0.801,0,1.479,0.879,1.479,1.758v2.558c0,0.681,0.12,1.359,0.36,2h2.398v-0.28
	c-0.2-0.24-0.359-1.239-0.359-1.72V90.99c0-1-0.84-1.799-2.08-2.278c1.041-0.279,1.881-0.999,1.881-2.679
	c0-2.638-1.68-3.957-3.68-3.957H100.776z"/>
<path fill="none" stroke="#000000" stroke-width="0" stroke-miterlimit="3.863" d="M103.175,84.275v3.518h1.799
	c1.719,0,1.719-3.518,0-3.518H103.175z M100.776,82.076v13.871h2.398v-6.315h1.799c0.801,0,1.479,0.879,1.479,1.758v2.558
	c0,0.681,0.12,1.359,0.36,2h2.398v-0.28c-0.2-0.24-0.359-1.239-0.359-1.72V90.99c0-1-0.84-1.799-2.08-2.278
	c1.041-0.279,1.881-0.999,1.881-2.679c0-2.638-1.68-3.957-3.68-3.957H100.776z"/>
<polygon fill-rule="evenodd" clip-rule="evenodd" points="111.771,82.076 111.771,95.947 118.608,95.947 118.608,93.708 
	114.17,93.708 114.17,89.791 118.208,89.791 118.208,87.552 114.17,87.552 114.17,84.275 118.608,84.275 118.608,82.076 "/>
<polygon fill="none" stroke="#000000" stroke-width="0" stroke-miterlimit="3.863" points="111.771,82.076 111.771,95.947 
	118.608,95.947 118.608,93.708 114.17,93.708 114.17,89.791 118.208,89.791 118.208,87.552 114.17,87.552 114.17,84.275 
	118.608,84.275 118.608,82.076 "/>
<path fill-rule="evenodd" clip-rule="evenodd" d="M65.351,68.607h3.559c1.799,0,2.319,0.84,2.319,2.038
	c0,1.119-0.521,1.999-2.319,1.999h-3.559V68.607z M65.351,66.049v-3.317h3.679c0.998,0,1.839,0.52,1.839,1.639
	c0,1.158-0.841,1.679-1.839,1.679H65.351z M62.433,60.013v15.309h6.716c2.799,0,5.158-1.559,5.158-4.877
	c0-1.478-0.76-2.758-2.199-3.396c1.119-0.439,1.68-1.439,1.68-3.118c0-2.478-1.88-3.917-4.639-3.917H62.433z"/>
<path fill="none" stroke="#000000" stroke-width="0" stroke-miterlimit="3.863" d="M65.351,68.607h3.559
	c1.799,0,2.319,0.84,2.319,2.038c0,1.119-0.521,1.999-2.319,1.999h-3.559V68.607z M65.351,66.049v-3.317h3.679
	c0.998,0,1.839,0.52,1.839,1.639c0,1.158-0.841,1.679-1.839,1.679H65.351z M62.433,60.013v15.309h6.716
	c2.799,0,5.158-1.559,5.158-4.877c0-1.478-0.76-2.758-2.199-3.396c1.119-0.439,1.68-1.439,1.68-3.118
	c0-2.478-1.88-3.917-4.639-3.917H62.433z"/>
<path fill-rule="evenodd" clip-rule="evenodd" d="M65.351,68.648h3.559c1.799,0,2.319,0.758,2.319,1.957
	c0,1.239-0.521,1.999-2.319,1.999h-3.559V68.648z M65.351,66.089v-3.357h3.679c0.998,0,1.839,0.479,1.839,1.678
	c0,1.08-0.841,1.68-1.839,1.68H65.351z M62.433,60.013v15.309h6.716c2.799,0,5.158-1.519,5.158-4.836
	c0-1.519-0.76-2.759-2.199-3.518c1.119-0.279,1.68-1.359,1.68-2.998c0-2.598-1.88-3.957-4.639-3.957H62.433z"/>
<path fill="none" stroke="#000000" stroke-width="0" stroke-miterlimit="3.863" d="M65.351,68.648h3.559
	c1.799,0,2.319,0.758,2.319,1.957c0,1.239-0.521,1.999-2.319,1.999h-3.559V68.648z M65.351,66.089v-3.357h3.679
	c0.998,0,1.839,0.479,1.839,1.678c0,1.08-0.841,1.68-1.839,1.68H65.351z M62.433,60.013v15.309h6.716
	c2.799,0,5.158-1.519,5.158-4.836c0-1.519-0.76-2.759-2.199-3.518c1.119-0.279,1.68-1.359,1.68-2.998
	c0-2.598-1.88-3.957-4.639-3.957H62.433z"/>
</svg>
