<?xml version="1.0" encoding="utf-8"?>
<!-- Generator: Adobe Illustrator 14.0.0, SVG Export Plug-In . SVG Version: 6.00 Build 43363)  -->
<!DOCTYPE svg PUBLIC "-//W3C//DTD SVG 1.1//EN" "http://www.w3.org/Graphics/SVG/1.1/DTD/svg11.dtd">
<svg version="1.1" id="Calque_1" xmlns="http://www.w3.org/2000/svg" xmlns:xlink="http://www.w3.org/1999/xlink" x="0px" y="0px"
	 width="136.78px" height="102.641px" viewBox="0 0 136.78 102.641" enable-background="new 0 0 136.78 102.641"
	 xml:space="preserve">
<path fill="none" stroke="#000000" stroke-width="0.2" stroke-miterlimit="3.863" d="M0.14,68.327l0.04-54.398
	c0-7.514,6.077-13.59,13.594-13.59L121.808,0.1c7.516,0,14.873,6.435,14.873,13.989v54.078l-0.041,20.784
	c0,7.514-6.076,13.59-13.594,13.59H13.694c-7.517,0-13.634-6.076-13.594-13.55l0.04-20.824V68.327z"/>
<path d="M49.918,27.958l6.357-13.23c-0.759-0.319-2.159,0.6-3.718,0.52c-0.16-0.12-0.72,0.36-0.88-1.359
	c-0.44-1.039-0.2-1.279-0.2-2.358c1.44,0,3.119-1.919,4.558-0.36c0.12,0.32,0.32,0.44,0.44,0.719c0.16-0.04,0.52,0.56,0.72,0.56
	c0.88-1.679,0.12-4.796,1.559-6.315c0.24-0.32,1.799,0.2,2.039-0.04c-0.799,1.199,1.32,0.4,2.039,0.759
	c0,0.56-0.479,1.559-0.719,2.119c-0.92,0.16-1.52,0-2.399-0.08c-0.44,1.319-0.24,4.197-1.4,5.875l0.84,1.399v1.119l-1.359,3.837
	l0.359,0.56l1.48,0.4l0.44,0.839v1.639l6.277,8.753h11.875l4.758-12.67l-6.916-1.359l-1.721-1.159l0.36-0.6l0.239-0.48h12.236
	c1.078,0.44,0.719,2.758,0.279,3.438c-0.52,0.399-1.359,0.519-2.079,0.639l-0.84,2.958h17.392l0.48,1.079l1.199,0.16
	c1,2.238,3.998,11.471,3.879,13.949c-0.04,1-0.4,1.559-0.4,2.399c0,7.594-6.197,13.789-13.794,13.789
	c-5.478,0-10.194-3.237-12.354-7.794h-5.518c0.12,0.12-0.32,0.719,0.48,0.599c0.4-0.08,0.119,1.919-1.08,1.719
	c-0.12-0.12-1.279,0.08-1.399-0.599c-0.04-0.28,0-0.6,0.12-0.88c0.12-0.24,0.36-0.2,0.48-0.32v-0.519h-8.757
	c-7.476-0.56-2.559-11.831-2.638-14.269c0-0.6-1-2.638-6.118-4.157c-1.359-0.44-2.319-3.357-3.158-3.677l-1.64,3.357
	c4.158,2.798,6.917,7.515,6.917,12.79c0,0.68-0.08,1.319-0.12,2.039c-0.08,0.559-1.559,0.48-1.999,0.679
	c-1.239,6.276-6.837,11.032-13.434,11.032c-7.597,0-13.794-6.195-13.794-13.789c0-6.795,4.918-12.431,11.395-13.63l-0.04,0.04
	c-0.24-0.4,0-1.679,0.52-1.719c0.68-0.08,1.319-0.12,1.999-0.12c2.519,0,4.918,0.6,6.997,1.679L49.918,27.958z"/>
<path fill="none" stroke="#000000" stroke-width="0" stroke-miterlimit="3.863" d="M49.918,27.958l6.357-13.23
	c-0.759-0.319-2.159,0.6-3.718,0.52c-0.16-0.12-0.72,0.36-0.88-1.359c-0.44-1.039-0.2-1.279-0.2-2.358
	c1.44,0,3.119-1.919,4.558-0.36c0.12,0.32,0.32,0.44,0.44,0.719c0.16-0.04,0.52,0.56,0.72,0.56c0.88-1.679,0.12-4.796,1.559-6.315
	c0.24-0.32,1.799,0.2,2.039-0.04c-0.799,1.199,1.32,0.4,2.039,0.759c0,0.56-0.479,1.559-0.719,2.119c-0.92,0.16-1.52,0-2.399-0.08
	c-0.44,1.319-0.24,4.197-1.4,5.875l0.84,1.399v1.119l-1.359,3.837l0.359,0.56l1.48,0.4l0.44,0.839v1.639l6.277,8.753h11.875
	l4.758-12.67l-6.916-1.359l-1.721-1.159l0.36-0.6l0.239-0.48h12.236c1.078,0.44,0.719,2.758,0.279,3.438
	c-0.52,0.399-1.359,0.519-2.079,0.639l-0.84,2.958h17.392l0.48,1.079l1.199,0.16c1,2.238,3.998,11.471,3.879,13.949
	c-0.04,1-0.4,1.559-0.4,2.399c0,7.594-6.197,13.789-13.794,13.789c-5.478,0-10.194-3.237-12.354-7.794h-5.518
	c0.12,0.12-0.32,0.719,0.48,0.599c0.4-0.08,0.119,1.919-1.08,1.719c-0.12-0.12-1.279,0.08-1.399-0.599c-0.04-0.28,0-0.6,0.12-0.88
	c0.12-0.24,0.36-0.2,0.48-0.32v-0.519h-8.757c-7.476-0.56-2.559-11.831-2.638-14.269c0-0.6-1-2.638-6.118-4.157
	c-1.359-0.44-2.319-3.357-3.158-3.677l-1.64,3.357c4.158,2.798,6.917,7.515,6.917,12.79c0,0.68-0.08,1.319-0.12,2.039
	c-0.08,0.559-1.559,0.48-1.999,0.679c-1.239,6.276-6.837,11.032-13.434,11.032c-7.597,0-13.794-6.195-13.794-13.789
	c0-6.795,4.918-12.431,11.395-13.63l-0.04,0.04c-0.24-0.4,0-1.679,0.52-1.719c0.68-0.08,1.319-0.12,1.999-0.12
	c2.519,0,4.918,0.6,6.997,1.679L49.918,27.958z"/>
<path fill="#FFFFFF" d="M44.64,38.71l3.239-6.275c-1.479-0.72-3.039-1.159-4.718-1.159c-5.758,0-10.435,4.676-10.435,10.431
	c0,5.756,4.677,10.433,10.435,10.433c5.518,0,10.076-4.316,10.435-9.752H46.52c-0.36,1.359-1.56,2.318-2.999,2.318
	c-1.799,0-3.199-1.359-3.199-3.157c0-1.759,1.4-3.118,3.199-3.118c0.4,0,0.839,0.04,1.199,0.24L44.64,38.71z"/>
<path fill="none" stroke="#FFFFFF" stroke-width="0" stroke-miterlimit="3.863" d="M44.64,38.71l3.239-6.275
	c-1.479-0.72-3.039-1.159-4.718-1.159c-5.758,0-10.435,4.676-10.435,10.431c0,5.756,4.677,10.433,10.435,10.433
	c5.518,0,10.076-4.316,10.435-9.752H46.52c-0.36,1.359-1.56,2.318-2.999,2.318c-1.799,0-3.199-1.359-3.199-3.157
	c0-1.759,1.4-3.118,3.199-3.118c0.4,0,0.839,0.04,1.199,0.24L44.64,38.71z"/>
<path fill="#FFFFFF" d="M46.2,40.508h7.316c-0.359-2.877-1.839-5.315-3.958-6.954L46.2,40.388V40.508z"/>
<path fill="none" stroke="#FFFFFF" stroke-width="0" stroke-miterlimit="3.863" d="M46.2,40.508h7.316
	c-0.359-2.877-1.839-5.315-3.958-6.954L46.2,40.388V40.508z"/>
<path fill="#FFFFFF" d="M86.742,29.477c-2.88,1.439-5.078,3.837-6.037,6.795l-0.841,0.04l3.4-9.433h2.478
	C85.662,28.917,86.342,28.677,86.742,29.477z"/>
<path fill="none" stroke="#FFFFFF" stroke-width="0" stroke-miterlimit="3.863" d="M86.742,29.477
	c-2.88,1.439-5.078,3.837-6.037,6.795l-0.841,0.04l3.4-9.433h2.478C85.662,28.917,86.342,28.677,86.742,29.477z"/>
<path fill="#FFFFFF" d="M94.778,31.635c5.238,0.72,9.236,5.036,9.236,10.192c0,5.756-4.838,10.393-10.796,10.393
	c-3.718,0-6.877-1.759-8.876-4.396l15.674-0.4v-3.717l-4.519,0.04c0.601-0.52,1.04-1.359,1.04-2.318c0-1.079-0.561-1.999-1.52-2.518
	L94.778,31.635z"/>
<path fill="none" stroke="#FFFFFF" stroke-width="0" stroke-miterlimit="3.863" d="M94.778,31.635
	c5.238,0.72,9.236,5.036,9.236,10.192c0,5.756-4.838,10.393-10.796,10.393c-3.718,0-6.877-1.759-8.876-4.396l15.674-0.4v-3.717
	l-4.519,0.04c0.601-0.52,1.04-1.359,1.04-2.318c0-1.079-0.561-1.999-1.52-2.518L94.778,31.635z"/>
<path fill="#FFFFFF" d="M90.78,42.787l-7.676,0.479c0.039,0.48,0.16,0.96,0.278,1.399l8.356-0.799
	C91.38,43.586,91.021,43.266,90.78,42.787z"/>
<path fill="none" stroke="#FFFFFF" stroke-width="0" stroke-miterlimit="3.863" d="M90.78,42.787l-7.676,0.479
	c0.039,0.48,0.16,0.96,0.278,1.399l8.356-0.799C91.38,43.586,91.021,43.266,90.78,42.787z"/>
<path fill="#FFFFFF" d="M92.38,38.43c-1.199,0.4-2.04,1.559-2.04,2.878l-7.315-0.36c0.358-4.796,3.957-8.713,8.715-9.433
	L92.38,38.43z"/>
<path fill="none" stroke="#FFFFFF" stroke-width="0" stroke-miterlimit="3.863" d="M92.38,38.43c-1.199,0.4-2.04,1.559-2.04,2.878
	l-7.315-0.36c0.358-4.796,3.957-8.713,8.715-9.433L92.38,38.43z"/>
<path fill="#FFFFFF" d="M66.431,43.626h-3.439c0,1.159,0.56,1.399,1.16,1.998c0.4,0.28,0.959,0.28,1.119,0.28h2.239
	C66.831,45.305,67.071,43.626,66.431,43.626z"/>
<path fill="none" stroke="#FFFFFF" stroke-width="0" stroke-miterlimit="3.863" d="M66.431,43.626h-3.439
	c0,1.159,0.56,1.399,1.16,1.998c0.4,0.28,0.959,0.28,1.119,0.28h2.239C66.831,45.305,67.071,43.626,66.431,43.626z"/>
<path fill="#FFFFFF" d="M78.905,40.708c0,0.36-0.719,1.479,0.119,2.079c0.16,0.08,0.36,0.439,0.521-0.12
	c-0.16-0.4-0.399-0.52-0.36-1.319C79.385,41.188,79.306,40.388,78.905,40.708z"/>
<path fill="none" stroke="#FFFFFF" stroke-width="0" stroke-miterlimit="3.863" d="M78.905,40.708c0,0.36-0.719,1.479,0.119,2.079
	c0.16,0.08,0.36,0.439,0.521-0.12c-0.16-0.4-0.399-0.52-0.36-1.319C79.385,41.188,79.306,40.388,78.905,40.708z"/>
<path fill="#FFFFFF" d="M75.347,45.065l2-0.04c0.039,0,0.119-0.12,0.239-0.08c0-0.16,0.12-0.36,0.04-0.52
	c-0.04-0.08-0.12-0.12-0.16-0.199c-0.8-0.28-1.639-0.04-2.279,0.319c-0.08,0.12,0.041,0.16,0.041,0.28
	C75.308,44.905,75.427,44.945,75.347,45.065z"/>
<path fill="none" stroke="#FFFFFF" stroke-width="0" stroke-miterlimit="3.863" d="M75.347,45.065l2-0.04
	c0.039,0,0.119-0.12,0.239-0.08c0-0.16,0.12-0.36,0.04-0.52c-0.04-0.08-0.12-0.12-0.16-0.199c-0.8-0.28-1.639-0.04-2.279,0.319
	c-0.08,0.12,0.041,0.16,0.041,0.28C75.308,44.905,75.427,44.945,75.347,45.065z"/>
<path fill="#FFFFFF" d="M72.308,45.385c0.48,0,0.961,0.04,1.44-0.2c-0.08-0.12,0.04-0.16,0.04-0.24c-0.48-0.16-1,0-1.36,0.12
	C72.349,45.065,72.108,45.385,72.308,45.385z"/>
<path fill="none" stroke="#FFFFFF" stroke-width="0" stroke-miterlimit="3.863" d="M72.308,45.385c0.48,0,0.961,0.04,1.44-0.2
	c-0.08-0.12,0.04-0.16,0.04-0.24c-0.48-0.16-1,0-1.36,0.12C72.349,45.065,72.108,45.385,72.308,45.385z"/>
<path fill="#FFFFFF" d="M102.056,26.879c-0.32,1.319-1.199,2.278-1.92,2.878c0.721,0.919,2.639,1.039,3.119,2.078
	C103.614,29.996,102.415,27.359,102.056,26.879z"/>
<path fill="none" stroke="#FFFFFF" stroke-width="0" stroke-miterlimit="3.863" d="M102.056,26.879
	c-0.32,1.319-1.199,2.278-1.92,2.878c0.721,0.919,2.639,1.039,3.119,2.078C103.614,29.996,102.415,27.359,102.056,26.879z"/>
<path fill-rule="evenodd" clip-rule="evenodd" d="M65.351,67.009h3.559c1.799,0,2.319,0.758,2.319,1.957
	c0,1.24-0.521,1.999-2.319,1.999h-3.559V67.009z M65.351,64.45v-3.357h3.679c0.998,0,1.839,0.479,1.839,1.678
	c0,1.08-0.841,1.68-1.839,1.68H65.351z M62.433,58.375v15.308h6.716c2.799,0,5.158-1.519,5.158-4.836
	c0-1.519-0.76-2.758-2.199-3.518c1.119-0.279,1.68-1.359,1.68-2.997c0-2.599-1.88-3.957-4.639-3.957H62.433z"/>
<path fill="none" stroke="#000000" stroke-width="0" stroke-miterlimit="3.863" d="M65.351,67.009h3.559
	c1.799,0,2.319,0.758,2.319,1.957c0,1.24-0.521,1.999-2.319,1.999h-3.559V67.009z M65.351,64.45v-3.357h3.679
	c0.998,0,1.839,0.479,1.839,1.678c0,1.08-0.841,1.68-1.839,1.68H65.351z M62.433,58.375v15.308h6.716
	c2.799,0,5.158-1.519,5.158-4.836c0-1.519-0.76-2.758-2.199-3.518c1.119-0.279,1.68-1.359,1.68-2.997
	c0-2.599-1.88-3.957-4.639-3.957H62.433z"/>
<path fill-rule="evenodd" clip-rule="evenodd" d="M20.331,81.197 M23.25,81.197h-2.919v15.308h2.919V81.197z"/>
<path fill="none" stroke="#000000" stroke-width="0" stroke-miterlimit="3.863" d="M20.331,81.197 M23.25,81.197h-2.919v15.308
	h2.919V81.197z"/>
<polygon fill-rule="evenodd" clip-rule="evenodd" points="26.128,81.197 26.128,96.505 29.087,96.505 29.087,86.433 34.605,96.505 
	37.803,96.505 37.803,81.197 34.845,81.197 34.845,91.269 29.287,81.197 "/>
<polygon fill="none" stroke="#000000" stroke-width="0" stroke-miterlimit="3.863" points="26.128,81.197 26.128,96.505 
	29.087,96.505 29.087,86.433 34.605,96.505 37.803,96.505 37.803,81.197 34.845,81.197 34.845,91.269 29.287,81.197 "/>
<polygon fill-rule="evenodd" clip-rule="evenodd" points="40.682,81.197 40.682,83.915 45.04,83.915 45.04,96.505 48.039,96.505 
	48.039,83.915 52.357,83.915 52.357,81.197 "/>
<polygon fill="none" stroke="#000000" stroke-width="0" stroke-miterlimit="3.863" points="40.682,81.197 40.682,83.915 
	45.04,83.915 45.04,96.505 48.039,96.505 48.039,83.915 52.357,83.915 52.357,81.197 "/>
<polygon fill-rule="evenodd" clip-rule="evenodd" points="55.236,81.197 55.236,96.505 66.311,96.505 66.311,93.827 58.274,93.827 
	58.274,89.87 65.311,89.87 65.311,87.192 58.274,87.192 58.274,83.915 65.951,83.915 65.951,81.197 "/>
<polygon fill="none" stroke="#000000" stroke-width="0" stroke-miterlimit="3.863" points="55.236,81.197 55.236,96.505 
	66.311,96.505 66.311,93.827 58.274,93.827 58.274,89.87 65.311,89.87 65.311,87.192 58.274,87.192 58.274,83.915 65.951,83.915 
	65.951,81.197 "/>
<path fill-rule="evenodd" clip-rule="evenodd" d="M72.108,83.835h3.679c1.358,0,2.039,0.68,2.039,2.038
	c0,1.319-0.681,1.999-2.039,1.999h-3.679V83.835z M69.149,81.197v15.308h2.959V90.47h3.078c3.639,0,1.68,3.797,2.68,6.035h3.199
	v-0.519c-1.44-0.88,0.639-5.757-2.319-6.835c1.358-0.641,2.118-1.879,2.118-3.438c0-2.958-1.879-4.517-4.557-4.517H69.149z"/>
<path fill="none" stroke="#000000" stroke-width="0" stroke-miterlimit="3.863" d="M72.108,83.835h3.679
	c1.358,0,2.039,0.68,2.039,2.038c0,1.319-0.681,1.999-2.039,1.999h-3.679V83.835z M69.149,81.197v15.308h2.959V90.47h3.078
	c3.639,0,1.68,3.797,2.68,6.035h3.199v-0.519c-1.44-0.88,0.639-5.757-2.319-6.835c1.358-0.641,2.118-1.879,2.118-3.438
	c0-2.958-1.879-4.517-4.557-4.517H69.149z"/>
<path fill-rule="evenodd" clip-rule="evenodd" d="M86.942,93.787v-9.912h2.799c2.798,0,3.277,2.958,3.277,4.956
	c0,2.039-0.479,4.956-3.277,4.956H86.942z M83.983,81.197v15.308h6.277c3.799,0,5.838-3.597,5.838-7.674
	c0-4.037-2.039-7.634-5.838-7.634H83.983z"/>
<path fill="none" stroke="#000000" stroke-width="0" stroke-miterlimit="3.863" d="M86.942,93.787v-9.912h2.799
	c2.798,0,3.277,2.958,3.277,4.956c0,2.039-0.479,4.956-3.277,4.956H86.942z M83.983,81.197v15.308h6.277
	c3.799,0,5.838-3.597,5.838-7.674c0-4.037-2.039-7.634-5.838-7.634H83.983z"/>
<path fill-rule="evenodd" clip-rule="evenodd" d="M98.978,81.197 M101.896,81.197h-2.92v15.308h2.92V81.197z"/>
<path fill="none" stroke="#000000" stroke-width="0" stroke-miterlimit="3.863" d="M98.978,81.197 M101.896,81.197h-2.92v15.308
	h2.92V81.197z"/>
<polygon fill-rule="evenodd" clip-rule="evenodd" points="104.813,81.197 104.813,83.915 109.092,83.915 109.092,96.505 
	112.091,96.505 112.091,83.915 116.449,83.915 116.449,81.197 "/>
<polygon fill="none" stroke="#000000" stroke-width="0" stroke-miterlimit="3.863" points="104.813,81.197 104.813,83.915 
	109.092,83.915 109.092,96.505 112.091,96.505 112.091,83.915 116.449,83.915 116.449,81.197 "/>
</svg>
