<?xml version="1.0" encoding="utf-8"?>
<!-- Generator: Adobe Illustrator 14.0.0, SVG Export Plug-In . SVG Version: 6.00 Build 43363)  -->
<!DOCTYPE svg PUBLIC "-//W3C//DTD SVG 1.1//EN" "http://www.w3.org/Graphics/SVG/1.1/DTD/svg11.dtd">
<svg version="1.1" id="Calque_1" xmlns="http://www.w3.org/2000/svg" xmlns:xlink="http://www.w3.org/1999/xlink" x="0px" y="0px"
	 width="136.466px" height="138.895px" viewBox="0 0 136.466 138.895" enable-background="new 0 0 136.466 138.895"
	 xml:space="preserve">
<path fill="none" stroke="#000000" stroke-width="0.2" stroke-miterlimit="3.863" d="M136.326,87.968v37.199
	c0,7.535-6.063,13.628-13.563,13.628H13.663c-7.499,0-13.603-6.093-13.563-13.589l0.04-20.884v0.16V87.406L0.18,13.97
	c0-7.537,6.064-13.63,13.563-13.63L121.526,0.1c7.499,0,14.839,6.454,14.839,14.03L136.326,87.968z"/>
<path d="M49.804,94.101l6.342-13.269c-0.757-0.32-2.154,0.602-3.71,0.521c-0.16-0.12-0.717,0.36-0.876-1.363
	c-0.439-1.042-0.2-1.282-0.2-2.365c1.436,0,3.111-1.924,4.547-0.36c0.12,0.32,0.319,0.44,0.439,0.722
	c0.16-0.04,0.519,0.562,0.718,0.562c0.878-1.685,0.12-4.811,1.556-6.334c0.238-0.32,1.794,0.201,2.034-0.04
	c-0.798,1.202,1.316,0.4,2.034,0.761c0,0.562-0.479,1.564-0.717,2.126c-0.917,0.16-1.516,0-2.394-0.081
	c-0.439,1.322-0.239,4.209-1.396,5.893l0.837,1.402v1.123l-1.355,3.849l0.359,0.561l1.476,0.401l0.439,0.841v1.645l6.263,8.778
	h11.848l4.746-12.707l-6.901-1.362l-1.714-1.163l0.358-0.602l0.239-0.48h12.207c1.076,0.44,0.718,2.766,0.279,3.447
	c-0.52,0.4-1.357,0.521-2.076,0.642l-0.836,2.966h17.352l0.479,1.083l1.197,0.16c0.997,2.244,3.988,11.504,3.869,13.989
	c-0.04,1.002-0.398,1.563-0.398,2.405c0,7.616-6.184,13.83-13.763,13.83c-5.465,0-10.173-3.247-12.326-7.817h-5.505
	c0.119,0.12-0.318,0.722,0.479,0.602c0.398-0.08,0.119,1.924-1.076,1.724c-0.12-0.12-1.277,0.08-1.396-0.602
	c-0.041-0.281,0-0.601,0.119-0.882c0.119-0.24,0.359-0.2,0.479-0.32v-0.521h-8.735c-7.459-0.562-2.554-11.864-2.633-14.311
	c0-0.602-0.997-2.646-6.103-4.168c-1.356-0.441-2.313-3.367-3.151-3.688l-1.635,3.367c4.148,2.806,6.901,7.535,6.901,12.827
	c0,0.682-0.08,1.322-0.12,2.044c-0.08,0.562-1.556,0.481-1.995,0.682c-1.236,6.294-6.821,11.064-13.403,11.064
	c-7.579,0-13.761-6.214-13.761-13.83c0-6.814,4.906-12.466,11.368-13.669l-0.04,0.04c-0.239-0.401,0-1.684,0.519-1.725
	c0.679-0.08,1.317-0.12,1.994-0.12c2.514,0,4.907,0.602,6.981,1.685L49.804,94.101z"/>
<path fill="none" stroke="#000000" stroke-width="0" stroke-miterlimit="3.863" d="M49.804,94.101l6.342-13.269
	c-0.757-0.32-2.154,0.602-3.71,0.521c-0.16-0.12-0.717,0.36-0.876-1.363c-0.439-1.042-0.2-1.282-0.2-2.365
	c1.436,0,3.111-1.925,4.547-0.36c0.12,0.32,0.319,0.44,0.439,0.722c0.16-0.04,0.519,0.562,0.718,0.562
	c0.878-1.685,0.12-4.811,1.556-6.334c0.238-0.32,1.794,0.201,2.034-0.04c-0.798,1.202,1.316,0.4,2.034,0.761
	c0,0.562-0.479,1.564-0.717,2.126c-0.917,0.16-1.516,0-2.394-0.081c-0.439,1.322-0.239,4.209-1.396,5.893l0.837,1.402v1.123
	l-1.355,3.849l0.359,0.561l1.476,0.401l0.439,0.841v1.645l6.263,8.778h11.848l4.746-12.707l-6.901-1.362l-1.714-1.163l0.358-0.602
	l0.239-0.48h12.207c1.076,0.44,0.718,2.766,0.279,3.447c-0.52,0.4-1.357,0.521-2.076,0.642l-0.836,2.966h17.352l0.479,1.083
	l1.197,0.16c0.997,2.244,3.988,11.504,3.869,13.989c-0.04,1.002-0.398,1.563-0.398,2.405c0,7.616-6.184,13.83-13.763,13.83
	c-5.465,0-10.173-3.247-12.326-7.817h-5.505c0.119,0.12-0.318,0.722,0.479,0.602c0.398-0.08,0.119,1.924-1.076,1.724
	c-0.12-0.121-1.277,0.08-1.396-0.602c-0.041-0.281,0-0.601,0.119-0.882c0.119-0.24,0.359-0.2,0.479-0.32v-0.521h-8.735
	c-7.459-0.562-2.554-11.864-2.633-14.311c0-0.602-0.997-2.646-6.103-4.168c-1.356-0.441-2.313-3.367-3.151-3.688l-1.635,3.367
	c4.148,2.806,6.901,7.535,6.901,12.827c0,0.682-0.08,1.322-0.12,2.044c-0.08,0.562-1.556,0.481-1.995,0.682
	c-1.236,6.294-6.821,11.064-13.403,11.064c-7.579,0-13.761-6.214-13.761-13.83c0-6.814,4.906-12.466,11.368-13.669l-0.04,0.04
	c-0.239-0.401,0-1.684,0.519-1.725c0.679-0.08,1.317-0.12,1.994-0.12c2.514,0,4.907,0.602,6.981,1.685L49.804,94.101z"/>
<path fill="#FFFFFF" d="M44.539,104.884l3.231-6.293c-1.476-0.723-3.032-1.163-4.708-1.163c-5.744,0-10.412,4.689-10.412,10.462
	s4.668,10.463,10.412,10.463c5.506,0,10.053-4.33,10.412-9.781h-7.061c-0.359,1.362-1.555,2.325-2.992,2.325
	c-1.795,0-3.191-1.363-3.191-3.167c0-1.765,1.396-3.127,3.191-3.127c0.399,0,0.838,0.041,1.197,0.241L44.539,104.884z"/>
<path fill="none" stroke="#FFFFFF" stroke-width="0" stroke-miterlimit="3.863" d="M44.539,104.884l3.231-6.293
	c-1.476-0.723-3.031-1.163-4.708-1.163c-5.744,0-10.412,4.689-10.412,10.462s4.668,10.463,10.412,10.463
	c5.506,0,10.053-4.33,10.412-9.781h-7.061c-0.359,1.362-1.555,2.325-2.992,2.325c-1.795,0-3.191-1.363-3.191-3.167
	c0-1.765,1.396-3.127,3.191-3.127c0.399,0,0.838,0.041,1.197,0.241L44.539,104.884z"/>
<path fill="#FFFFFF" d="M46.094,106.688h7.3c-0.359-2.887-1.834-5.331-3.95-6.976l-3.351,6.854V106.688z"/>
<path fill="none" stroke="#FFFFFF" stroke-width="0" stroke-miterlimit="3.863" d="M46.094,106.688h7.3
	c-0.359-2.887-1.834-5.331-3.95-6.976l-3.351,6.854V106.688z"/>
<path fill="#FFFFFF" d="M86.543,95.623c-2.872,1.443-5.066,3.849-6.023,6.814l-0.838,0.04l3.391-9.46h2.473
	C85.465,95.063,86.144,94.822,86.543,95.623z"/>
<path fill="none" stroke="#FFFFFF" stroke-width="0" stroke-miterlimit="3.863" d="M86.543,95.623
	c-2.872,1.443-5.066,3.849-6.023,6.814l-0.838,0.04l3.391-9.46h2.473C85.465,95.063,86.144,94.822,86.543,95.623z"/>
<path fill="#FFFFFF" d="M94.561,97.788c5.227,0.722,9.215,5.051,9.215,10.223c0,5.771-4.827,10.422-10.771,10.422
	c-3.71,0-6.861-1.765-8.855-4.41l15.638-0.4v-3.729l-4.509,0.04c0.599-0.521,1.038-1.362,1.038-2.324
	c0-1.083-0.559-2.005-1.516-2.525L94.561,97.788z"/>
<path fill="none" stroke="#FFFFFF" stroke-width="0" stroke-miterlimit="3.863" d="M94.561,97.788
	c5.227,0.722,9.215,5.051,9.215,10.223c0,5.771-4.827,10.422-10.771,10.422c-3.71,0-6.861-1.765-8.855-4.41l15.638-0.4v-3.729
	l-4.509,0.04c0.599-0.521,1.038-1.362,1.038-2.324c0-1.083-0.559-2.005-1.516-2.525L94.561,97.788z"/>
<path fill="#FFFFFF" d="M90.572,108.972l-7.66,0.481c0.041,0.48,0.16,0.962,0.279,1.403l8.338-0.802
	C91.17,109.773,90.812,109.453,90.572,108.972z"/>
<path fill="none" stroke="#FFFFFF" stroke-width="0" stroke-miterlimit="3.863" d="M90.572,108.972l-7.66,0.481
	c0.041,0.48,0.16,0.962,0.279,1.403l8.338-0.802C91.17,109.773,90.812,109.453,90.572,108.972z"/>
<path fill="#FFFFFF" d="M92.167,104.603c-1.196,0.401-2.034,1.563-2.034,2.887l-7.3-0.361c0.358-4.811,3.949-8.738,8.696-9.46
	L92.167,104.603z"/>
<path fill="none" stroke="#FFFFFF" stroke-width="0" stroke-miterlimit="3.863" d="M92.167,104.603
	c-1.196,0.401-2.034,1.563-2.034,2.887l-7.3-0.361c0.358-4.811,3.949-8.738,8.696-9.46L92.167,104.603z"/>
<path fill="#FFFFFF" d="M66.278,109.813h-3.431c0,1.163,0.559,1.403,1.157,2.005c0.399,0.28,0.958,0.28,1.117,0.28h2.233
	C66.677,111.498,66.917,109.813,66.278,109.813z"/>
<path fill="none" stroke="#FFFFFF" stroke-width="0" stroke-miterlimit="3.863" d="M66.278,109.813h-3.431
	c0,1.163,0.559,1.403,1.157,2.005c0.399,0.28,0.958,0.28,1.117,0.28h2.233C66.677,111.498,66.917,109.813,66.278,109.813z"/>
<path fill="#FFFFFF" d="M78.725,106.888c0,0.36-0.718,1.483,0.119,2.084c0.16,0.08,0.359,0.441,0.519-0.12
	c-0.159-0.4-0.399-0.521-0.358-1.322C79.203,107.369,79.123,106.566,78.725,106.888z"/>
<path fill="none" stroke="#FFFFFF" stroke-width="0" stroke-miterlimit="3.863" d="M78.725,106.888c0,0.36-0.718,1.483,0.119,2.084
	c0.16,0.08,0.359,0.441,0.519-0.12c-0.159-0.4-0.399-0.521-0.358-1.322C79.203,107.369,79.123,106.566,78.725,106.888z"/>
<path fill="#FFFFFF" d="M75.175,111.257l1.994-0.04c0.04,0,0.12-0.12,0.239-0.08c0-0.16,0.119-0.36,0.04-0.521
	c-0.04-0.08-0.12-0.12-0.159-0.2c-0.799-0.28-1.637-0.04-2.273,0.321c-0.08,0.12,0.039,0.16,0.039,0.28
	C75.135,111.097,75.254,111.137,75.175,111.257z"/>
<path fill="none" stroke="#FFFFFF" stroke-width="0" stroke-miterlimit="3.863" d="M75.175,111.257l1.994-0.04
	c0.04,0,0.12-0.12,0.239-0.08c0-0.16,0.119-0.36,0.04-0.521c-0.04-0.08-0.12-0.12-0.159-0.2c-0.799-0.28-1.637-0.04-2.273,0.321
	c-0.08,0.12,0.039,0.16,0.039,0.28C75.135,111.097,75.254,111.137,75.175,111.257z"/>
<path fill="#FFFFFF" d="M72.143,111.578c0.479,0,0.957,0.04,1.436-0.2c-0.08-0.121,0.04-0.161,0.04-0.241
	c-0.479-0.16-0.997,0-1.356,0.12C72.182,111.257,71.943,111.578,72.143,111.578z"/>
<path fill="none" stroke="#FFFFFF" stroke-width="0" stroke-miterlimit="3.863" d="M72.143,111.578c0.479,0,0.957,0.04,1.436-0.2
	c-0.08-0.121,0.04-0.161,0.04-0.241c-0.479-0.16-0.997,0-1.356,0.12C72.182,111.257,71.943,111.578,72.143,111.578z"/>
<path fill="#FFFFFF" d="M101.82,93.018c-0.318,1.323-1.195,2.286-1.914,2.887c0.719,0.922,2.633,1.042,3.111,2.085
	C103.377,96.145,102.18,93.499,101.82,93.018z"/>
<path fill="none" stroke="#FFFFFF" stroke-width="0" stroke-miterlimit="3.863" d="M101.82,93.018
	c-0.318,1.323-1.195,2.286-1.914,2.887c0.719,0.922,2.633,1.042,3.111,2.085C103.377,96.145,102.18,93.499,101.82,93.018z"/>
<path d="M51.918,24.753l15.796,14.07c-0.639,0.681-0.998,1.683-0.998,2.646c0,2.004,1.636,3.808,3.63,4.049v4.648h-0.599v0.883
	h1.995v-0.883h-0.559v-4.608c1.874-0.12,3.311-1.645,3.63-3.407h2.194c0.318,7.695,6.661,13.868,14.32,13.868
	c7.938,0,14.359-6.453,14.359-14.43c0-7.938-6.422-14.432-14.359-14.432c-2.395,0-4.668,0.642-6.621,1.685l-3.99-7.456l0.878-1.924
	c0.358-0.642,1.156-0.441,1.675-0.963c0.08-0.28,0.08-0.561,0.08-0.882c-0.279-0.08-0.359-0.441-0.719-0.441h-5.305
	c-0.119,0.161-0.318,0.081-0.438,0.081c-0.04,0.08-0.12,0.12-0.2,0.2c-0.039,0.24-0.119,0.602,0,0.882
	c0.08,0.04,0.2,0.08,0.279,0.08h2.673c0.359-0.04,0.559,0.08,0.918,0.161c0.079,0.12,0.079,0.12,0.199,0.16
	c-0.04,0.2,0.12,0.44,0.04,0.642L80.2,20.664H52.795l0.798-3.287c0.599-0.201,1.117,0.24,2.354-0.361
	c0.519,0,1.676-0.602,3.151-0.12c0.199-0.08-0.12-0.24,0.04-0.441c-0.12-0.04,0.16-0.359,0.12-0.479
	c-0.837-0.241-2.632-0.401-3.55,0.12c-0.837,0.521-2.034,0.159-2.832,0.239L50.163,28.08c-1.555-0.642-3.311-1.003-5.105-1.003
	c-7.938,0-14.321,6.534-14.321,14.432c0,7.976,6.382,14.47,14.321,14.47c7.858,0,14.32-6.494,14.32-14.47
	c0-5.813-3.471-10.783-8.337-13.028L51.918,24.753z"/>
<path fill="none" stroke="#000000" stroke-width="0.2" stroke-miterlimit="3.863" d="M51.918,24.753l15.796,14.07
	c-0.639,0.681-0.998,1.683-0.998,2.646c0,2.004,1.636,3.808,3.63,4.049v4.648h-0.599v0.883h1.995v-0.883h-0.559v-4.608
	c1.874-0.121,3.311-1.645,3.63-3.407h2.194c0.318,7.695,6.661,13.868,14.32,13.868c7.938,0,14.359-6.453,14.359-14.43
	c0-7.938-6.422-14.432-14.359-14.432c-2.395,0-4.668,0.642-6.621,1.685l-3.99-7.456l0.878-1.924
	c0.358-0.642,1.156-0.441,1.675-0.963c0.08-0.28,0.08-0.561,0.08-0.882c-0.279-0.08-0.359-0.441-0.719-0.441h-5.305
	c-0.119,0.161-0.318,0.081-0.438,0.081c-0.04,0.08-0.12,0.12-0.2,0.2c-0.039,0.24-0.119,0.602,0,0.882
	c0.08,0.04,0.2,0.08,0.279,0.08h2.673c0.359-0.04,0.559,0.08,0.918,0.161c0.079,0.12,0.079,0.12,0.199,0.16
	c-0.04,0.2,0.12,0.44,0.04,0.642L80.2,20.664H52.795l0.798-3.287c0.599-0.201,1.117,0.24,2.354-0.361
	c0.519,0,1.676-0.602,3.151-0.12c0.199-0.08-0.12-0.24,0.04-0.441c-0.12-0.04,0.16-0.359,0.12-0.479
	c-0.837-0.241-2.632-0.401-3.55,0.12c-0.837,0.521-2.034,0.159-2.832,0.239L50.163,28.08c-1.555-0.642-3.311-1.003-5.105-1.003
	c-7.938,0-14.321,6.534-14.321,14.432c0,7.976,6.382,14.47,14.321,14.47c7.858,0,14.32-6.494,14.32-14.47
	c0-5.813-3.471-10.783-8.337-13.028L51.918,24.753z"/>
<path fill="none" stroke="#000000" stroke-width="0.2" stroke-miterlimit="3.863" d="M42.703,26.195
	c0.878-0.159,1.596-0.28,2.354-0.28c8.536,0,15.477,7.015,15.477,15.674c0,0.48,0,0.882-0.08,1.482"/>
<path fill="#FFFFFF" d="M46.253,39.784c-0.319-0.28-0.797-0.2-1.236-0.2c-1.118,0-2.115,1.002-2.115,2.125
	c0,1.162,0.998,2.084,2.115,2.084c0.957,0,1.834-0.642,2.074-1.522h10.811c-0.399,6.814-5.983,12.226-12.884,12.226
	c-7.221,0-13.044-5.813-13.044-13.027c0-7.256,5.824-13.068,13.044-13.068c1.714,0,3.391,0.281,4.826,0.923l-0.758,3.606
	C48.568,34.895,47.81,37.299,46.253,39.784z"/>
<path fill="none" stroke="#000000" stroke-width="0.2" stroke-miterlimit="3.863" d="M46.253,39.784
	c-0.319-0.28-0.797-0.2-1.236-0.2c-1.118,0-2.115,1.002-2.115,2.125c0,1.162,0.998,2.084,2.115,2.084
	c0.957,0,1.834-0.642,2.074-1.522h10.811c-0.399,6.814-5.983,12.226-12.884,12.226c-7.221,0-13.044-5.813-13.044-13.027
	c0-7.256,5.824-13.068,13.044-13.068c1.714,0,3.391,0.281,4.826,0.922l-0.758,3.607C48.568,34.895,47.81,37.299,46.253,39.784z"/>
<path fill="#FFFFFF" d="M50.721,29.723l-0.917,3.769c-0.439,1.804-1.834,5.412-2.992,6.895c0.16,0.24,0.279,0.562,0.319,0.882h10.85
	C57.862,36.137,54.95,31.808,50.721,29.723z"/>
<path fill="none" stroke="#000000" stroke-width="0.2" stroke-miterlimit="3.863" d="M50.721,29.723l-0.917,3.769
	c-0.439,1.804-1.834,5.412-2.992,6.895c0.16,0.24,0.279,0.562,0.319,0.882h10.85C57.862,36.137,54.95,31.808,50.721,29.723z"/>
<path fill="#FFFFFF" d="M52.118,23.83l0.398-2.284h27.206L72.143,37.58c-0.279-0.16-0.559-0.401-1.037-0.281V32.77h0.639v-0.842
	h-2.075v0.842h0.639v4.569c-0.759,0.201-1.396,0.521-1.954,0.923L52.118,23.83z"/>
<path fill="none" stroke="#000000" stroke-width="0.2" stroke-miterlimit="3.863" d="M52.118,23.83l0.398-2.284h27.206L72.143,37.58
	c-0.279-0.16-0.559-0.401-1.037-0.281V32.77h0.639v-0.842h-2.075v0.842h0.639v4.569c-0.759,0.201-1.396,0.521-1.954,0.923
	L52.118,23.83z"/>
<path fill="#FFFFFF" d="M94.162,40.146l8.616-4.771c0.997,1.804,1.556,3.969,1.556,6.214c0,7.215-5.785,13.027-12.924,13.027
	c-6.981,0-12.686-5.531-12.965-12.466h10.131c0.24,1.322,1.438,2.324,2.834,2.324c1.555,0,2.951-1.323,2.951-2.886
	c0-0.521-0.119-0.963-0.318-1.363L94.162,40.146z"/>
<path fill="none" stroke="#000000" stroke-width="0.2" stroke-miterlimit="3.863" d="M94.162,40.146l8.616-4.771
	c0.997,1.804,1.556,3.969,1.556,6.214c0,7.215-5.785,13.027-12.924,13.027c-6.98,0-12.686-5.531-12.965-12.466h10.131
	c0.24,1.322,1.438,2.324,2.834,2.324c1.555,0,2.951-1.323,2.951-2.886c0-0.521-0.119-0.963-0.318-1.363L94.162,40.146z"/>
<path fill="#FFFFFF" d="M93.684,39.584l8.735-4.81c-2.273-3.729-6.423-6.254-11.089-6.254c-2.074,0-4.068,0.521-5.865,1.442
	l4.908,8.86c0.318-0.08,0.718-0.161,1.117-0.161C92.287,38.662,93.045,39.023,93.684,39.584z"/>
<path fill="none" stroke="#000000" stroke-width="0.2" stroke-miterlimit="3.863" d="M93.684,39.584l8.735-4.81
	c-2.273-3.729-6.423-6.254-11.089-6.254c-2.074,0-4.068,0.521-5.865,1.442l4.908,8.86c0.318-0.081,0.718-0.161,1.117-0.161
	C92.287,38.662,93.045,39.023,93.684,39.584z"/>
<path fill="#FFFFFF" d="M84.788,30.484l4.905,8.939c-0.518,0.4-0.877,1.082-0.997,1.764H78.365c0.12-4.57,2.553-8.538,6.223-10.743
	L84.788,30.484z"/>
<path fill="none" stroke="#000000" stroke-width="0.2" stroke-miterlimit="3.863" d="M84.788,30.484l4.906,8.939
	c-0.519,0.4-0.878,1.082-0.998,1.764H78.365c0.12-4.57,2.553-8.538,6.223-10.743L84.788,30.484z"/>
<path fill="#FFFFFF" d="M80.2,22.308L73.14,38.061c1.077,0.683,1.835,1.844,1.915,3.207h2.114c0.079-5.091,2.832-9.54,6.901-11.985
	L80.2,22.308z"/>
<path fill="none" stroke="#000000" stroke-width="0.2" stroke-miterlimit="3.863" d="M80.2,22.308L73.14,38.061
	c1.077,0.682,1.835,1.844,1.915,3.207h2.114c0.079-5.091,2.832-9.54,6.901-11.985L80.2,22.308z"/>
<path fill="none" stroke="#000000" stroke-width="0.2" stroke-miterlimit="3.863" d="M76.211,43.913
	c-0.119-0.762-0.199-1.522-0.199-2.324c0-8.659,6.98-15.674,15.518-15.674c6.343,0,11.728,3.848,14.16,9.38"/>
</svg>
