<?xml version="1.0" encoding="utf-8"?>
<!-- Generator: Adobe Illustrator 14.0.0, SVG Export Plug-In . SVG Version: 6.00 Build 43363)  -->
<!DOCTYPE svg PUBLIC "-//W3C//DTD SVG 1.1//EN" "http://www.w3.org/Graphics/SVG/1.1/DTD/svg11.dtd">
<svg version="1.1" id="Calque_1" xmlns="http://www.w3.org/2000/svg" xmlns:xlink="http://www.w3.org/1999/xlink" x="0px" y="0px"
	 width="136.466px" height="136.465px" viewBox="0 0 136.466 136.465" enable-background="new 0 0 136.466 136.465"
	 xml:space="preserve">
<path fill="none" stroke="#000000" stroke-width="0.199" stroke-miterlimit="3.863" d="M136.325,86.422v36.541
	c0,7.418-6.063,13.402-13.562,13.402H13.663c-7.499,0-13.602-5.984-13.563-13.363l0.04-20.504v0.159V85.865l0.04-72.122
	c0-7.42,6.064-13.404,13.563-13.404L121.526,0.1c7.5,0,14.84,6.343,14.84,13.802L136.325,86.422z"/>
<path d="M51.917,25.869l15.797,14.002c-0.638,0.678-0.997,1.675-0.997,2.633c0,1.994,1.635,3.789,3.63,4.029v4.627h-0.599v0.877
	h1.994V51.16h-0.559v-4.588c1.875-0.119,3.311-1.635,3.63-3.39h2.194c0.318,7.659,6.662,13.802,14.32,13.802
	c7.938,0,14.361-6.423,14.361-14.361c0-7.898-6.423-14.36-14.361-14.36c-2.393,0-4.666,0.638-6.621,1.675l-3.989-7.42l0.878-1.914
	c0.359-0.639,1.156-0.439,1.675-0.958c0.08-0.279,0.08-0.558,0.08-0.877c-0.278-0.08-0.358-0.439-0.718-0.439h-5.307
	c-0.119,0.16-0.318,0.08-0.438,0.08c-0.04,0.08-0.12,0.119-0.2,0.199c-0.04,0.24-0.118,0.599,0,0.878c0.08,0.04,0.2,0.08,0.279,0.08
	h2.673c0.359-0.04,0.559,0.079,0.918,0.159c0.079,0.12,0.079,0.12,0.199,0.16c-0.04,0.199,0.119,0.438,0.04,0.638L80.2,21.8H52.795
	l0.798-3.271c0.598-0.199,1.117,0.24,2.353-0.359c0.519,0,1.676-0.598,3.151-0.119c0.2-0.08-0.119-0.24,0.04-0.439
	c-0.119-0.04,0.16-0.359,0.12-0.479c-0.838-0.239-2.633-0.399-3.55,0.12c-0.838,0.52-2.035,0.159-2.832,0.239L50.163,29.18
	c-1.556-0.638-3.311-0.997-5.106-0.997c-7.938,0-14.321,6.502-14.321,14.36c0,7.939,6.383,14.401,14.321,14.401
	c7.858,0,14.321-6.462,14.321-14.401c0-5.784-3.471-10.73-8.337-12.964L51.917,25.869z"/>
<path fill="none" stroke="#000000" stroke-width="0.199" stroke-miterlimit="3.863" d="M51.917,25.869l15.797,14.002
	c-0.638,0.678-0.997,1.675-0.997,2.633c0,1.994,1.635,3.789,3.63,4.029v4.627h-0.599v0.877h1.994V51.16h-0.559v-4.588
	c1.875-0.119,3.311-1.635,3.63-3.39h2.194c0.318,7.659,6.662,13.802,14.32,13.802c7.938,0,14.361-6.423,14.361-14.361
	c0-7.898-6.423-14.36-14.361-14.36c-2.393,0-4.666,0.638-6.621,1.675l-3.989-7.42l0.878-1.914c0.359-0.639,1.156-0.439,1.675-0.958
	c0.08-0.279,0.08-0.558,0.08-0.877c-0.278-0.08-0.358-0.439-0.718-0.439h-5.307c-0.119,0.16-0.318,0.08-0.438,0.08
	c-0.04,0.08-0.12,0.119-0.2,0.199c-0.04,0.24-0.118,0.599,0,0.878c0.08,0.04,0.2,0.08,0.279,0.08h2.673
	c0.359-0.04,0.559,0.079,0.918,0.159c0.079,0.12,0.079,0.12,0.199,0.16c-0.04,0.199,0.119,0.438,0.04,0.638L80.2,21.8H52.795
	l0.798-3.271c0.598-0.199,1.117,0.24,2.353-0.359c0.519,0,1.676-0.598,3.151-0.119c0.2-0.08-0.119-0.24,0.04-0.439
	c-0.119-0.04,0.16-0.359,0.12-0.479c-0.838-0.239-2.633-0.399-3.55,0.12c-0.838,0.52-2.035,0.159-2.832,0.239L50.163,29.18
	c-1.556-0.638-3.311-0.997-5.106-0.997c-7.938,0-14.321,6.502-14.321,14.36c0,7.939,6.383,14.401,14.321,14.401
	c7.858,0,14.321-6.462,14.321-14.401c0-5.784-3.471-10.73-8.337-12.964L51.917,25.869z"/>
<path fill="none" stroke="#000000" stroke-width="0.199" stroke-miterlimit="3.863" d="M42.704,27.305
	c0.877-0.159,1.595-0.279,2.353-0.279c8.537,0,15.478,6.981,15.478,15.597c0,0.479,0,0.878-0.08,1.476"/>
<path fill="#FFFFFF" d="M46.253,40.828c-0.319-0.279-0.798-0.199-1.237-0.199c-1.117,0-2.114,0.997-2.114,2.114
	c0,1.157,0.997,2.074,2.114,2.074c0.958,0,1.835-0.638,2.074-1.516h10.811c-0.399,6.782-5.984,12.167-12.885,12.167
	c-7.22,0-13.044-5.784-13.044-12.964c0-7.221,5.824-13.005,13.044-13.005c1.715,0,3.391,0.28,4.827,0.918l-0.758,3.59
	C48.566,35.962,47.81,38.355,46.253,40.828z"/>
<path fill="none" stroke="#000000" stroke-width="0.199" stroke-miterlimit="3.863" d="M46.253,40.828
	c-0.319-0.279-0.798-0.199-1.237-0.199c-1.117,0-2.114,0.997-2.114,2.114c0,1.157,0.997,2.074,2.114,2.074
	c0.958,0,1.835-0.638,2.074-1.516h10.811c-0.399,6.782-5.984,12.167-12.885,12.167c-7.22,0-13.044-5.784-13.044-12.964
	c0-7.221,5.824-13.005,13.044-13.005c1.715,0,3.391,0.28,4.827,0.918l-0.758,3.59C48.566,35.962,47.81,38.355,46.253,40.828z"/>
<path fill="#FFFFFF" d="M50.721,30.816l-0.917,3.749c-0.439,1.795-1.835,5.386-2.992,6.862c0.16,0.239,0.279,0.558,0.319,0.877
	h10.851C57.862,37.198,54.95,32.89,50.721,30.816z"/>
<path fill="none" stroke="#000000" stroke-width="0.199" stroke-miterlimit="3.863" d="M50.721,30.816l-0.917,3.749
	c-0.439,1.795-1.835,5.386-2.992,6.862c0.16,0.239,0.279,0.558,0.319,0.877h10.851C57.862,37.198,54.95,32.89,50.721,30.816z"/>
<path fill="#FFFFFF" d="M52.118,24.952l0.399-2.274h27.205l-7.579,15.956c-0.28-0.159-0.56-0.399-1.037-0.279v-4.508h0.638V33.01
	h-2.074v0.837h0.639v4.548c-0.758,0.199-1.396,0.518-1.955,0.917L52.118,24.952z"/>
<path fill="none" stroke="#000000" stroke-width="0.199" stroke-miterlimit="3.863" d="M52.118,24.952l0.399-2.274h27.205
	l-7.579,15.956c-0.28-0.159-0.56-0.399-1.037-0.279v-4.508h0.638V33.01h-2.074v0.837h0.639v4.548
	c-0.758,0.199-1.396,0.518-1.955,0.917L52.118,24.952z"/>
<path fill="#FFFFFF" d="M94.161,41.187l8.617-4.747c0.997,1.795,1.555,3.949,1.555,6.183c0,7.181-5.783,12.965-12.924,12.965
	c-6.98,0-12.685-5.505-12.965-12.406h10.133c0.239,1.316,1.437,2.313,2.832,2.313c1.557,0,2.953-1.316,2.953-2.872
	c0-0.518-0.121-0.957-0.32-1.356L94.161,41.187z"/>
<path fill="none" stroke="#000000" stroke-width="0.199" stroke-miterlimit="3.863" d="M94.161,41.187l8.617-4.747
	c0.997,1.795,1.555,3.949,1.555,6.183c0,7.181-5.783,12.965-12.924,12.965c-6.98,0-12.685-5.505-12.965-12.406h10.133
	c0.239,1.316,1.437,2.313,2.832,2.313c1.557,0,2.953-1.316,2.953-2.872c0-0.518-0.121-0.957-0.32-1.356L94.161,41.187z"/>
<path fill="#FFFFFF" d="M93.684,40.629l8.735-4.787c-2.273-3.71-6.422-6.223-11.09-6.223c-2.073,0-4.068,0.519-5.863,1.436
	l4.906,8.816c0.319-0.08,0.719-0.16,1.117-0.16C92.286,39.71,93.044,40.07,93.684,40.629z"/>
<path fill="none" stroke="#000000" stroke-width="0.199" stroke-miterlimit="3.863" d="M93.684,40.629l8.735-4.787
	c-2.273-3.71-6.422-6.223-11.09-6.223c-2.073,0-4.068,0.519-5.863,1.436l4.906,8.816c0.319-0.08,0.719-0.16,1.117-0.16
	C92.286,39.71,93.044,40.07,93.684,40.629z"/>
<path fill="#FFFFFF" d="M84.788,31.574l4.906,8.895c-0.519,0.399-0.878,1.077-0.998,1.755h-10.33
	c0.118-4.547,2.553-8.496,6.223-10.69L84.788,31.574z"/>
<path fill="none" stroke="#000000" stroke-width="0.199" stroke-miterlimit="3.863" d="M84.788,31.574l4.906,8.895
	c-0.519,0.399-0.878,1.077-0.998,1.755h-10.33c0.118-4.547,2.553-8.496,6.223-10.69L84.788,31.574z"/>
<path fill="#FFFFFF" d="M80.2,23.436L73.14,39.113c1.077,0.678,1.835,1.835,1.915,3.191h2.114c0.08-5.066,2.832-9.494,6.9-11.927
	L80.2,23.436z"/>
<path fill="none" stroke="#000000" stroke-width="0.199" stroke-miterlimit="3.863" d="M80.2,23.436L73.14,39.113
	c1.077,0.678,1.835,1.835,1.915,3.191h2.114c0.08-5.066,2.832-9.494,6.9-11.927L80.2,23.436z"/>
<path fill="none" stroke="#000000" stroke-width="0.199" stroke-miterlimit="3.863" d="M76.212,44.937
	c-0.12-0.758-0.2-1.516-0.2-2.314c0-8.616,6.981-15.597,15.517-15.597c6.344,0,11.729,3.83,14.162,9.334"/>
<polygon points="45.616,110.357 45.616,113.748 78.924,113.828 78.924,118.854 90.811,112.113 78.924,105.291 78.924,110.357 "/>
<polygon fill="none" stroke="#000000" stroke-width="0" stroke-miterlimit="3.863" points="45.616,110.357 45.616,113.748 
	78.924,113.828 78.924,118.854 90.811,112.113 78.924,105.291 78.924,110.357 "/>
<polygon points="90.811,79.323 90.811,82.713 57.502,82.792 57.502,87.819 45.616,81.078 57.502,74.256 57.502,79.323 "/>
<polygon fill="none" stroke="#000000" stroke-width="0" stroke-miterlimit="3.863" points="90.811,79.323 90.811,82.713 
	57.502,82.792 57.502,87.819 45.616,81.078 57.502,74.256 57.502,79.323 "/>
</svg>
