<?xml version="1.0" encoding="utf-8"?>
<!-- Generator: Adobe Illustrator 14.0.0, SVG Export Plug-In . SVG Version: 6.00 Build 43363)  -->
<!DOCTYPE svg PUBLIC "-//W3C//DTD SVG 1.1//EN" "http://www.w3.org/Graphics/SVG/1.1/DTD/svg11.dtd">
<svg version="1.1" id="Calque_1" xmlns="http://www.w3.org/2000/svg" xmlns:xlink="http://www.w3.org/1999/xlink" x="0px" y="0px"
	 width="95.797px" height="83.713px" viewBox="0 0 95.797 83.713" enable-background="new 0 0 95.797 83.713" xml:space="preserve">
<path fill="#ED1C24" d="M52.198,2.272C51.319,0.877,49.759,0,47.96,0c-1.719,0-2.479,0.838-3.397,2.113L0.95,75.294
	c-1.519,1.993-1.16,5.142,0.68,6.977c1.04,1.035,2.238,1.514,3.598,1.434l86.386-0.039c0.999-0.16,1.959-0.639,2.72-1.395
	c1.479-1.516,1.838-3.708,1.078-5.582L52.198,2.272z"/>
<path fill="none" stroke="#ED1C24" stroke-width="0" stroke-miterlimit="3.863" d="M52.198,2.272C51.319,0.877,49.759,0,47.961,0
	c-1.72,0-2.479,0.837-3.398,2.113L0.95,75.294c-1.519,1.993-1.16,5.142,0.68,6.977c1.04,1.035,2.238,1.514,3.598,1.434l86.386-0.039
	c0.999-0.16,1.959-0.639,2.72-1.395c1.479-1.516,1.838-3.708,1.078-5.582L52.198,2.272z"/>
<polygon fill-rule="evenodd" clip-rule="evenodd" fill="#FFFFFF" points="81.139,72.903 47.92,15.465 14.702,72.903 "/>
<polygon fill="none" stroke="#ED1C24" stroke-width="0" stroke-miterlimit="3.863" points="81.139,72.903 47.92,15.465 
	14.702,72.903 "/>
<polygon fill="#120C0E" points="31.21,44.284 80.899,72.783 15.021,72.783 "/>
<polygon fill="none" stroke="#120C0E" stroke-width="0" stroke-miterlimit="3.863" points="31.21,44.284 80.899,72.783 
	15.021,72.783 "/>
<polygon fill="#120C0E" points="40.246,36.95 40.765,36.113 43.043,34.877 44.603,35.754 38.887,45.878 36.967,44.841 
	41.285,37.587 "/>
<polygon fill="none" stroke="#120C0E" stroke-width="0.2" stroke-miterlimit="3.863" points="40.246,36.95 40.765,36.113 
	43.043,34.877 44.603,35.754 38.887,45.878 36.967,44.841 41.285,37.587 "/>
<path fill="#120C0E" d="M44.842,40.019c0.68-1.155,1.798-1.793,3.238-1.793c2.159,0,3.917,1.754,3.917,3.907
	c0,0.637-0.159,1.235-0.479,1.833l-2.198,3.985c-0.601,1.077-1.959,1.794-3.318,1.794c-2.159,0-3.918-1.753-3.918-3.906
	c0-0.717,0.2-1.435,0.56-2.033L44.842,40.019z"/>
<path fill="none" stroke="#120C0E" stroke-width="0.2" stroke-miterlimit="3.863" d="M44.842,40.019
	c0.68-1.155,1.798-1.793,3.238-1.793c2.159,0,3.917,1.754,3.917,3.907c0,0.637-0.159,1.235-0.479,1.833l-2.198,3.986
	c-0.601,1.077-1.959,1.794-3.318,1.794c-2.159,0-3.918-1.753-3.918-3.906c0-0.717,0.2-1.435,0.56-2.033L44.842,40.019z"/>
<path fill-rule="evenodd" clip-rule="evenodd" fill="#120C0E" d="M56.915,45.679c-2.238,0-3.598-2.391-2.479-4.266
	c1.08-1.913,3.838-1.913,4.917,0C60.473,43.289,59.114,45.679,56.915,45.679z"/>
<path fill="none" stroke="#120C0E" stroke-width="0.2" stroke-miterlimit="3.863" d="M56.915,45.679
	c-2.238,0-3.598-2.391-2.479-4.266c1.08-1.913,3.838-1.913,4.917,0C60.473,43.289,59.114,45.679,56.915,45.679z"/>
<path fill-rule="evenodd" clip-rule="evenodd" d="M57.954,56.601c-2.238,0-3.598-2.393-2.479-4.266c1.08-1.913,3.838-1.913,4.918,0
	C61.512,54.208,60.153,56.601,57.954,56.601z"/>
<path fill="none" stroke="#000000" stroke-width="0.2" stroke-miterlimit="3.863" d="M57.954,56.601
	c-2.238,0-3.598-2.393-2.479-4.266c1.08-1.913,3.838-1.913,4.918,0C61.512,54.208,60.153,56.601,57.954,56.601z"/>
<path fill-rule="evenodd" clip-rule="evenodd" fill="#FFFFFF" d="M57.954,54.728c-0.759,0-1.238-0.799-0.879-1.476
	c0.4-0.638,1.319-0.638,1.719,0C59.154,53.929,58.674,54.728,57.954,54.728z"/>
<path fill="none" stroke="#120C0E" stroke-width="0.2" stroke-miterlimit="3.863" d="M57.954,54.728
	c-0.759,0-1.238-0.799-0.879-1.476c0.4-0.638,1.319-0.638,1.719,0C59.154,53.929,58.674,54.728,57.954,54.728z"/>
<path fill-rule="evenodd" clip-rule="evenodd" fill="#FFFFFF" d="M56.915,43.805c-0.759,0-1.238-0.797-0.879-1.474
	c0.399-0.638,1.318-0.638,1.719,0C58.114,43.008,57.635,43.805,56.915,43.805z"/>
<path fill="none" stroke="#1A1A1A" stroke-width="0.2" stroke-miterlimit="3.863" d="M56.915,43.805
	c-0.759,0-1.238-0.797-0.879-1.474c0.399-0.638,1.318-0.638,1.719,0C58.114,43.008,57.635,43.805,56.915,43.805z"/>
<polygon fill-rule="evenodd" clip-rule="evenodd" fill="#120C0E" points="50.598,52.775 49.12,51.937 60.913,45.122 62.352,45.958 
	"/>
<polygon fill="none" stroke="#120C0E" stroke-width="0" stroke-miterlimit="3.863" points="50.598,52.775 49.12,51.937 
	60.913,45.122 62.352,45.958 "/>
<path fill="#FFFFFF" d="M44.202,45.24c-0.119,0.28-0.199,0.559-0.199,0.878c0,0.997,0.799,1.794,1.839,1.794
	c0.56,0,1.08-0.279,1.399-0.678l2.679-4.584c0.119-0.24,0.159-0.479,0.159-0.758c0-1.036-0.799-1.833-1.798-1.833
	c-0.68,0-1.279,0.359-1.6,0.877L44.202,45.24z"/>
<path fill="none" stroke="#120C0E" stroke-width="0.2" stroke-miterlimit="3.863" d="M44.202,45.24
	c-0.119,0.279-0.199,0.559-0.199,0.878c0,0.997,0.799,1.794,1.839,1.794c0.56,0,1.08-0.279,1.399-0.678l2.679-4.584
	c0.119-0.24,0.159-0.479,0.159-0.758c0-1.036-0.799-1.833-1.798-1.833c-0.68,0-1.279,0.359-1.6,0.877L44.202,45.24z"/>
</svg>
