<?xml version="1.0" encoding="utf-8"?>
<!-- Generator: Adobe Illustrator 14.0.0, SVG Export Plug-In . SVG Version: 6.00 Build 43363)  -->
<!DOCTYPE svg PUBLIC "-//W3C//DTD SVG 1.1//EN" "http://www.w3.org/Graphics/SVG/1.1/DTD/svg11.dtd">
<svg version="1.1" id="Calque_1" xmlns="http://www.w3.org/2000/svg" xmlns:xlink="http://www.w3.org/1999/xlink" x="0px" y="0px"
	 width="95.798px" height="83.713px" viewBox="0 0 95.798 83.713" enable-background="new 0 0 95.798 83.713" xml:space="preserve">
<path fill="#ED1C24" d="M52.198,2.272C51.319,0.877,49.759,0,47.961,0c-1.72,0-2.479,0.837-3.398,2.112L0.95,75.294
	c-1.519,1.992-1.16,5.143,0.68,6.976c1.04,1.036,2.238,1.515,3.597,1.435l86.385-0.039c1-0.16,1.959-0.639,2.72-1.396
	c1.479-1.515,1.839-3.706,1.079-5.581L52.198,2.272z"/>
<path fill="none" stroke="#ED1C24" stroke-width="0" stroke-miterlimit="3.863" d="M52.198,2.272C51.319,0.877,49.759,0,47.961,0
	c-1.72,0-2.479,0.837-3.398,2.112L0.95,75.294c-1.519,1.992-1.16,5.143,0.68,6.976c1.04,1.036,2.238,1.515,3.597,1.435l86.385-0.039
	c1-0.16,1.959-0.639,2.72-1.396c1.479-1.515,1.839-3.706,1.079-5.581L52.198,2.272z"/>
<polygon fill-rule="evenodd" clip-rule="evenodd" fill="#FFFFFF" points="81.14,72.902 47.921,15.466 14.702,72.902 "/>
<polygon fill="none" stroke="#ED1C24" stroke-width="0" stroke-miterlimit="3.863" points="81.14,72.902 47.921,15.466 
	14.702,72.902 "/>
<polygon fill="#120C0E" points="64.71,44.284 15.021,72.783 80.899,72.783 "/>
<polygon fill="none" stroke="#120C0E" stroke-width="0" stroke-miterlimit="3.863" points="64.71,44.284 15.021,72.783 
	80.899,72.783 "/>
<path fill-rule="evenodd" clip-rule="evenodd" d="M57.155,45.917c-1.119,1.914-3.878,1.873-4.917-0.039
	c-1.12-1.914,0.319-4.266,2.519-4.226C56.915,41.652,58.274,44.044,57.155,45.917z"/>
<path fill="none" stroke="#000000" stroke-width="0.2" stroke-miterlimit="3.863" d="M57.155,45.917
	c-1.119,1.914-3.878,1.873-4.917-0.039c-1.12-1.914,0.319-4.266,2.519-4.226C56.915,41.652,58.274,44.044,57.155,45.917z"/>
<polygon fill="#120C0E" points="31.17,51.101 30.652,50.263 30.851,47.672 32.33,46.675 38.126,56.88 36.288,57.955 32.17,50.622 
	"/>
<polygon fill="none" stroke="#120C0E" stroke-width="0.2" stroke-miterlimit="3.863" points="31.17,51.101 30.652,50.263 
	30.851,47.672 32.33,46.675 38.126,56.88 36.288,57.955 32.17,50.622 "/>
<path fill="#120C0E" d="M36.248,48.628c-0.68-1.156-0.68-2.431,0.08-3.667c1.04-1.833,3.518-2.472,5.397-1.354
	c0.559,0.279,0.999,0.637,1.359,1.275l2.238,3.985c0.6,1.116,0.56,2.671-0.12,3.747c-1.119,1.834-3.518,2.471-5.476,1.396
	c-0.48-0.399-1-0.956-1.319-1.476L36.248,48.628z"/>
<path fill="none" stroke="#120C0E" stroke-width="0.2" stroke-miterlimit="3.863" d="M36.248,48.628
	c-0.68-1.156-0.68-2.431,0.08-3.667c1.04-1.833,3.518-2.472,5.397-1.354c0.559,0.279,0.999,0.637,1.359,1.275l2.238,3.985
	c0.6,1.116,0.56,2.671-0.12,3.747c-1.119,1.834-3.517,2.471-5.476,1.396c-0.48-0.399-1-0.956-1.319-1.476L36.248,48.628z"/>
<path fill-rule="evenodd" clip-rule="evenodd" fill="#120C0E" d="M47.161,41.174c-1.119,1.913-3.877,1.874-4.916-0.04
	c-1.12-1.913,0.319-4.265,2.518-4.225C46.921,36.91,48.28,39.301,47.161,41.174z"/>
<path fill="none" stroke="#120C0E" stroke-width="0.2" stroke-miterlimit="3.863" d="M47.161,41.174
	c-1.119,1.913-3.877,1.874-4.916-0.04c-1.12-1.913,0.319-4.265,2.518-4.225C46.921,36.91,48.28,39.301,47.161,41.174z"/>
<path fill-rule="evenodd" clip-rule="evenodd" fill="#FFFFFF" d="M55.556,44.961c-0.399,0.638-1.318,0.638-1.719,0
	c-0.359-0.677,0.119-1.476,0.88-1.476C55.476,43.526,55.915,44.323,55.556,44.961z"/>
<path fill="none" stroke="#120C0E" stroke-width="0.2" stroke-miterlimit="3.863" d="M55.556,44.961
	c-0.399,0.638-1.318,0.638-1.719,0c-0.359-0.677,0.119-1.476,0.88-1.476C55.476,43.526,55.915,44.323,55.556,44.961z"/>
<path fill-rule="evenodd" clip-rule="evenodd" fill="#FFFFFF" d="M45.563,40.218c-0.399,0.638-1.32,0.638-1.72,0
	c-0.359-0.677,0.12-1.475,0.879-1.475C45.482,38.783,45.922,39.581,45.563,40.218z"/>
<path fill="none" stroke="#1A1A1A" stroke-width="0.2" stroke-miterlimit="3.863" d="M45.563,40.218c-0.399,0.638-1.32,0.638-1.72,0
	c-0.359-0.677,0.12-1.475,0.879-1.475C45.482,38.783,45.922,39.581,45.563,40.218z"/>
<polygon fill-rule="evenodd" clip-rule="evenodd" fill="#120C0E" points="50.159,50.144 48.521,51.14 48.48,37.388 50.159,36.71 "/>
<polygon fill="none" stroke="#120C0E" stroke-width="0" stroke-miterlimit="3.863" points="50.159,50.144 48.521,51.14 
	48.48,37.388 50.159,36.71 "/>
<path fill="#FFFFFF" d="M40.445,51.856c0.121,0.24,0.281,0.438,0.64,0.639c0.799,0.518,1.839,0.238,2.398-0.719
	c0.319-0.518,0.319-1.036,0.12-1.514l-2.519-4.624c-0.16-0.278-0.279-0.358-0.64-0.558c-0.839-0.559-1.999-0.279-2.438,0.638
	c-0.319,0.599-0.399,1.235-0.04,1.794L40.445,51.856z"/>
<path fill="none" stroke="#120C0E" stroke-width="0.2" stroke-miterlimit="3.863" d="M40.445,51.856
	c0.121,0.24,0.281,0.438,0.64,0.639c0.799,0.518,1.839,0.238,2.398-0.719c0.319-0.518,0.319-1.036,0.12-1.514l-2.519-4.624
	c-0.16-0.278-0.279-0.358-0.64-0.558c-0.839-0.559-1.999-0.279-2.438,0.638c-0.319,0.599-0.399,1.235-0.04,1.794L40.445,51.856z"/>
</svg>
