<?xml version="1.0" encoding="utf-8"?>
<!-- Generator: Adobe Illustrator 14.0.0, SVG Export Plug-In . SVG Version: 6.00 Build 43363)  -->
<!DOCTYPE svg PUBLIC "-//W3C//DTD SVG 1.1//EN" "http://www.w3.org/Graphics/SVG/1.1/DTD/svg11.dtd">
<svg version="1.1" id="Calque_1" xmlns="http://www.w3.org/2000/svg" xmlns:xlink="http://www.w3.org/1999/xlink" x="0px" y="0px"
	 width="95.797px" height="83.713px" viewBox="0 0 95.797 83.713" enable-background="new 0 0 95.797 83.713" xml:space="preserve">
<path fill="#ED1C24" d="M52.198,2.272C51.319,0.878,49.759,0,47.96,0c-1.719,0-2.479,0.838-3.397,2.113L0.95,75.295
	c-1.519,1.993-1.16,5.141,0.68,6.975c1.04,1.037,2.238,1.515,3.598,1.436l86.386-0.041c0.999-0.158,1.959-0.637,2.72-1.395
	c1.479-1.514,1.838-3.707,1.078-5.58L52.198,2.272z"/>
<path fill="none" stroke="#ED1C24" stroke-width="0" stroke-miterlimit="3.863" d="M52.198,2.272C51.319,0.878,49.759,0,47.961,0
	c-1.72,0-2.479,0.838-3.398,2.113L0.95,75.295c-1.519,1.992-1.16,5.141,0.68,6.975c1.04,1.037,2.238,1.515,3.598,1.436l86.386-0.041
	c0.999-0.158,1.959-0.637,2.72-1.395c1.479-1.514,1.838-3.707,1.078-5.58L52.198,2.272z"/>
<polygon fill-rule="evenodd" clip-rule="evenodd" fill="#FFFFFF" points="81.139,72.903 47.92,15.466 14.702,72.903 "/>
<polygon fill="none" stroke="#ED1C24" stroke-width="0" stroke-miterlimit="3.863" points="81.139,72.903 47.92,15.465 
	14.702,72.903 "/>
<path fill="#ED1C24" d="M52.198,2.272C51.319,0.878,49.759,0,47.96,0c-1.719,0-2.479,0.838-3.397,2.113L0.95,75.295
	c-1.519,1.993-1.16,5.141,0.68,6.975c1.04,1.037,2.238,1.515,3.598,1.436l86.386-0.041c0.999-0.158,1.959-0.637,2.72-1.395
	c1.479-1.514,1.838-3.707,1.078-5.58L52.198,2.272z"/>
<path fill="none" stroke="#ED1C24" stroke-width="0" stroke-miterlimit="3.863" d="M52.198,2.272C51.319,0.878,49.759,0,47.961,0
	c-1.72,0-2.479,0.838-3.398,2.113L0.95,75.295c-1.519,1.992-1.16,5.141,0.68,6.975c1.04,1.037,2.238,1.515,3.598,1.436l86.386-0.041
	c0.999-0.158,1.959-0.637,2.72-1.395c1.479-1.514,1.838-3.707,1.078-5.58L52.198,2.272z"/>
<polygon fill-rule="evenodd" clip-rule="evenodd" fill="#FFFFFF" points="81.139,72.903 47.92,15.466 14.702,72.903 "/>
<polygon fill="none" stroke="#ED1C24" stroke-width="0" stroke-miterlimit="3.863" points="81.139,72.903 47.92,15.465 
	14.702,72.903 "/>
<polygon fill="#120C0E" points="45.442,34.598 40.326,34.598 40.326,67.283 45.522,67.283 "/>
<polygon fill="none" stroke="#120C0E" stroke-width="0" stroke-miterlimit="3.863" points="45.442,34.598 40.326,34.598 
	40.326,67.283 45.522,67.283 "/>
<polygon fill="#120C0E" points="55.676,52.734 50.678,45.759 50.678,34.797 55.795,34.797 55.795,44.165 60.833,51.22 
	60.833,67.441 55.715,67.441 55.715,52.535 "/>
<polygon fill="none" stroke="#120C0E" stroke-width="0" stroke-miterlimit="3.863" points="55.676,52.734 50.678,45.759 
	50.678,34.797 55.795,34.797 55.795,44.165 60.833,51.22 60.833,67.441 55.715,67.441 55.715,52.535 "/>
</svg>
