<?xml version="1.0" encoding="utf-8"?>
<!-- Generator: Adobe Illustrator 14.0.0, SVG Export Plug-In . SVG Version: 6.00 Build 43363)  -->
<!DOCTYPE svg PUBLIC "-//W3C//DTD SVG 1.1//EN" "http://www.w3.org/Graphics/SVG/1.1/DTD/svg11.dtd">
<svg version="1.1" id="Calque_1" xmlns="http://www.w3.org/2000/svg" xmlns:xlink="http://www.w3.org/1999/xlink" x="0px" y="0px"
	 width="100.274px" height="130.357px" viewBox="0 0 100.274 130.357" enable-background="new 0 0 100.274 130.357"
	 xml:space="preserve">
<path fill="#FFFFFF" d="M44.881,2.775c2.898-2.9,7.614-2.9,10.512,0l42.108,42.127c2.897,2.898,2.897,7.617,0,10.517L55.393,97.546
	c-2.897,2.899-7.614,2.899-10.512,0L2.773,55.418c-2.898-2.899-2.898-7.618,0-10.517L44.881,2.775z"/>
<path fill="none" stroke="#120C0E" stroke-width="1.199" stroke-miterlimit="3.863" d="M44.881,2.775c2.898-2.9,7.614-2.9,10.512,0
	l42.108,42.127c2.897,2.898,2.897,7.617,0,10.517L55.393,97.546c-2.897,2.899-7.614,2.899-10.512,0L2.773,55.418
	c-2.898-2.899-2.898-7.618,0-10.517L44.881,2.775z"/>
<polygon fill-rule="evenodd" clip-rule="evenodd" fill="#FFCB04" points="13.885,50.18 50.137,13.911 86.39,50.18 50.137,86.429 "/>
<polygon fill="none" stroke="#120C0E" stroke-width="1.999" stroke-miterlimit="3.863" points="13.885,50.18 50.137,13.911 
	86.39,50.18 50.137,86.429 "/>
<polygon fill="#120C0E" points="17.682,70.594 70.563,17.69 82.592,29.726 29.713,82.63 "/>
<polygon fill="none" stroke="#120C0E" stroke-width="0" stroke-miterlimit="3.863" points="17.682,70.594 70.563,17.69 
	82.592,29.726 29.713,82.63 "/>
<path fill="#0071B3" d="M15.583,130.357c-3.617,0-5.076-2.14-5.076-5.759l-0.02-11.457c0-3.339,1.579-5.438,4.917-5.438
	l69.448-0.021c3.496,0,4.795,1.6,4.815,5.099l0.101,12.276c0.02,3.579-1.34,5.299-4.916,5.299H15.583z"/>
<path fill="none" stroke="#0071B3" stroke-width="0" stroke-miterlimit="3.863" d="M15.583,130.357c-3.617,0-5.076-2.14-5.076-5.759
	l-0.02-11.457c0-3.339,1.579-5.438,4.917-5.438l69.448-0.021c3.496,0,4.795,1.6,4.815,5.099l0.101,12.276
	c0.02,3.579-1.34,5.299-4.916,5.299H15.583z"/>
<path fill-rule="evenodd" clip-rule="evenodd" fill="#FFFFFF" d="M15.344,115.741h3.457c-0.08-1.56,0.3-3.459,2.198-3.459
	c1.579,0,2.199,1.34,2.199,2.879c0,4.499-8.234,5.039-7.994,12.297h11.491v-3.159H19.68c1.859-3.398,6.975-3.799,6.975-9.477
	c0-2-1.019-5.499-5.656-5.499C17.042,109.323,15.184,111.822,15.344,115.741"/>
<path fill-rule="evenodd" clip-rule="evenodd" fill="#FFFFFF" d="M34.169,109.422l-1.159,9.877l3.338,0.26
	c0.819-1.959,4.556-1.839,4.556,1.98c0,4.918-5.016,4.078-5.016,0.959l-3.377,0.26c0.119,3.06,2.598,5.219,5.775,5.219
	c3.737,0,6.116-2.619,6.116-6.718c0-5.559-5.436-7.018-7.894-5.259l0.419-3.539h6.755v-3.039H34.169"/>
<path fill-rule="evenodd" clip-rule="evenodd" fill="#FFFFFF" d="M56.152,124.739c-1.398,0-2.438-0.98-2.438-4.839V117
	c0-3.859,1.04-4.839,2.438-4.839c1.418,0,2.459,0.979,2.459,4.839v2.899C58.611,123.758,57.57,124.739,56.152,124.739
	 M56.152,127.597c-3.957,0-5.755-2.619-5.755-9.156c0-6.52,1.798-9.158,5.755-9.158c3.978,0,5.775,2.639,5.775,9.158
	C61.928,124.978,60.13,127.597,56.152,127.597z"/>
<path fill-rule="evenodd" clip-rule="evenodd" fill="#FFFFFF" d="M67.924,114.902v12.556h3.157v-7.038
	c0-3.119,1.938-3.319,2.798-2.919c0.62,0.3,1.02,0.96,1.02,2.239v7.718h3.178v-7.038c0-3.119,1.918-3.319,2.777-2.919
	c0.619,0.3,1.02,0.96,1.02,2.239v7.718h3.178v-8.738c0-4.578-5.137-5.438-7.415-2.299c-1.438-2.659-5.235-2.459-6.694,0.12v-1.639
	H67.924"/>
</svg>
