<?xml version="1.0" encoding="utf-8"?>
<!-- Generator: Adobe Illustrator 14.0.0, SVG Export Plug-In . SVG Version: 6.00 Build 43363)  -->
<!DOCTYPE svg PUBLIC "-//W3C//DTD SVG 1.1//EN" "http://www.w3.org/Graphics/SVG/1.1/DTD/svg11.dtd">
<svg version="1.1" id="Calque_1" xmlns="http://www.w3.org/2000/svg" xmlns:xlink="http://www.w3.org/1999/xlink" x="0px" y="0px"
	 width="95.798px" height="114.542px" viewBox="0 0 95.798 114.542" enable-background="new 0 0 95.798 114.542"
	 xml:space="preserve">
<path fill="#ED1C24" d="M43.6,82.082c0.88,1.406,2.438,2.29,4.237,2.29c1.719,0,2.478-0.843,3.398-2.13L94.849,8.485
	c1.519-2.008,1.159-5.182-0.679-7.03c-1.04-1.043-2.24-1.526-3.599-1.446L4.184,0.049c-1,0.161-1.959,0.643-2.718,1.406
	C-0.013,2.981-0.373,5.191,0.387,7.08L43.6,82.082z"/>
<path fill="none" stroke="#ED1C24" stroke-width="0" stroke-miterlimit="3.863" d="M43.6,82.082c0.88,1.406,2.438,2.29,4.237,2.29
	c1.719,0,2.478-0.843,3.398-2.13L94.849,8.485c1.519-2.008,1.159-5.182-0.679-7.03c-1.04-1.043-2.24-1.526-3.599-1.446L4.184,0.049
	c-1,0.161-1.959,0.643-2.718,1.406C-0.013,2.981-0.373,5.191,0.387,7.08L43.6,82.082z"/>
<polygon fill-rule="evenodd" clip-rule="evenodd" fill="#FFFFFF" points="14.657,10.976 47.917,68.785 81.178,10.976 "/>
<polygon fill="none" stroke="#ED1C24" stroke-width="0" stroke-miterlimit="3.863" points="14.657,10.976 47.917,68.785 
	81.178,10.976 "/>
<path fill="#0071B3" d="M12.62,114.542c-3.598,0-5.078-2.169-5.078-5.785V97.228c0-3.334,1.559-5.464,4.917-5.464h69.438
	c3.518,0,4.797,1.607,4.837,5.102l0.08,12.334c0.04,3.615-1.319,5.343-4.917,5.343H12.62z"/>
<path fill="none" stroke="#0071B3" stroke-width="0" stroke-miterlimit="3.863" d="M12.62,114.542c-3.598,0-5.078-2.169-5.078-5.785
	V97.228c0-3.334,1.559-5.464,4.917-5.464h69.438c3.518,0,4.797,1.607,4.838,5.102l0.079,12.334c0.04,3.615-1.319,5.343-4.917,5.343
	H12.62z"/>
<path fill-rule="evenodd" clip-rule="evenodd" fill="#FFFFFF" d="M52.873,109.043c-1.279,0-2.239-0.885-2.239-4.42v-2.652
	c0-3.494,0.96-4.418,2.239-4.418s2.199,0.924,2.199,4.418v2.652C55.072,108.158,54.152,109.043,52.873,109.043 M52.873,111.653
	c-3.598,0-5.237-2.37-5.237-8.356c0-5.945,1.64-8.355,5.237-8.355s5.236,2.41,5.236,8.355
	C58.109,109.283,56.471,111.653,52.873,111.653z"/>
<path fill-rule="evenodd" clip-rule="evenodd" fill="#FFFFFF" d="M63.746,100.204v11.449h2.879v-6.429
	c0-2.852,1.718-3.053,2.518-2.65c0.561,0.241,0.92,0.844,0.92,2.049v7.03h2.879v-6.429c0-2.852,1.758-3.053,2.518-2.65
	c0.56,0.241,0.959,0.844,0.959,2.049v7.03h2.879v-7.994c0-4.178-4.678-4.942-6.716-2.089c-1.319-2.411-4.798-2.25-6.116,0.12v-1.486
	H63.746"/>
<path fill="#FFFFFF" d="M15.656,100.203c0-3.172,2.519-5.703,5.677-5.703c3.119,0,5.636,2.531,5.636,5.703
	c0,1.567-0.639,2.974-1.639,3.979l-4.837,4.86h6.876v2.612H15.896v-2.773l7.155-7.23c0.44-0.442,0.719-1.045,0.719-1.728
	c0-1.407-1.119-2.531-2.478-2.531c-1.399,0-2.519,1.124-2.519,2.531v0.362h-3.158L15.656,100.203z"/>
<path fill="none" stroke="#FFFFFF" stroke-width="0.2" stroke-miterlimit="3.863" d="M15.656,100.203
	c0-3.172,2.519-5.703,5.677-5.703c3.118,0,5.636,2.531,5.636,5.703c0,1.567-0.639,2.974-1.639,3.979l-4.837,4.86h6.876v2.611H15.896
	v-2.772l7.156-7.23c0.439-0.442,0.719-1.045,0.719-1.728c0-1.407-1.119-2.531-2.478-2.531c-1.399,0-2.519,1.124-2.519,2.531v0.362
	h-3.158L15.656,100.203z"/>
<path fill-rule="evenodd" clip-rule="evenodd" fill="#00AEEF" d="M36.762,109.006c-1.279,0-2.239-0.884-2.239-4.419v-2.651
	c0-3.496,0.96-4.42,2.239-4.42s2.199,0.924,2.199,4.42v2.651C38.961,108.122,38.041,109.006,36.762,109.006 M36.762,111.617
	c-3.598,0-5.237-2.37-5.237-8.356c0-5.946,1.639-8.356,5.237-8.356s5.237,2.41,5.237,8.356
	C41.999,109.247,40.36,111.617,36.762,111.617z"/>
<path fill="#FFFFFF" d="M42.599,106.032c0,3.134-2.519,5.625-5.636,5.625c-3.158,0-5.677-2.531-5.677-5.665v-6.105
	c0-3.174,2.519-5.705,5.677-5.705c3.117,0,5.636,2.531,5.636,5.705V106.032z"/>
<path fill="none" stroke="#FFFFFF" stroke-width="0.2" stroke-miterlimit="3.863" d="M42.599,106.032
	c0,3.134-2.519,5.625-5.636,5.625c-3.158,0-5.677-2.531-5.677-5.665v-6.105c0-3.174,2.519-5.705,5.677-5.705
	c3.117,0,5.636,2.531,5.636,5.705V106.032z"/>
<path fill="#0071B3" d="M34.165,106.152v-6.508c0-1.566,1.239-2.812,2.798-2.812c1.519,0,2.758,1.245,2.758,2.812v6.508
	c0,1.527-1.239,2.773-2.758,2.773C35.404,108.926,34.165,107.68,34.165,106.152z"/>
<path fill="none" stroke="#0071B3" stroke-width="0.2" stroke-miterlimit="3.863" d="M34.165,106.152v-6.508
	c0-1.566,1.239-2.813,2.798-2.813c1.519,0,2.758,1.246,2.758,2.813v6.508c0,1.527-1.239,2.773-2.758,2.773
	C35.404,108.926,34.165,107.68,34.165,106.152z"/>
<path fill-rule="evenodd" clip-rule="evenodd" fill="#FFFFFF" d="M52.512,109.01c-1.279,0-2.238-0.885-2.238-4.42v-2.651
	c0-3.495,0.959-4.419,2.238-4.419c1.278,0,2.198,0.924,2.198,4.419v2.651C54.71,108.125,53.79,109.01,52.512,109.01 M52.512,111.62
	c-3.599,0-5.237-2.37-5.237-8.355c0-5.946,1.639-8.356,5.237-8.356c3.598,0,5.236,2.41,5.236,8.356
	C57.748,109.25,56.109,111.62,52.512,111.62z"/>
<path fill="#FFFFFF" d="M58.348,106.035c0,3.135-2.518,5.625-5.636,5.625c-3.158,0-5.677-2.531-5.677-5.664V99.89
	c0-3.174,2.519-5.704,5.677-5.704c3.118,0,5.636,2.53,5.636,5.704V106.035z"/>
<path fill="none" stroke="#FFFFFF" stroke-width="0.2" stroke-miterlimit="3.863" d="M58.348,106.035
	c0,3.135-2.518,5.625-5.636,5.625c-3.158,0-5.677-2.531-5.677-5.664V99.89c0-3.174,2.519-5.704,5.677-5.704
	c3.118,0,5.636,2.53,5.636,5.704V106.035z"/>
<path fill="#0071B3" d="M49.914,106.156v-6.508c0-1.566,1.238-2.813,2.798-2.813c1.519,0,2.759,1.246,2.759,2.813v6.508
	c0,1.526-1.24,2.772-2.759,2.772C51.152,108.929,49.914,107.683,49.914,106.156z"/>
<path fill="none" stroke="#0071B3" stroke-width="0.2" stroke-miterlimit="3.863" d="M49.914,106.156v-6.508
	c0-1.566,1.238-2.813,2.798-2.813c1.519,0,2.759,1.246,2.759,2.813v6.508c0,1.526-1.24,2.772-2.759,2.772
	C51.152,108.929,49.914,107.683,49.914,106.156z"/>
</svg>
