<?xml version="1.0" encoding="utf-8"?>
<!-- Generator: Adobe Illustrator 14.0.0, SVG Export Plug-In . SVG Version: 6.00 Build 43363)  -->
<!DOCTYPE svg PUBLIC "-//W3C//DTD SVG 1.1//EN" "http://www.w3.org/Graphics/SVG/1.1/DTD/svg11.dtd">
<svg version="1.1" id="Calque_1" xmlns="http://www.w3.org/2000/svg" xmlns:xlink="http://www.w3.org/1999/xlink" x="0px" y="0px"
	 width="95.796px" height="114.54px" viewBox="0 0 95.796 114.54" enable-background="new 0 0 95.796 114.54" xml:space="preserve">
<path fill="#0071B3" d="M12.619,114.54c-3.598,0-5.077-2.17-5.077-5.785V97.226c0-3.334,1.559-5.464,4.917-5.464h69.477
	c3.518,0,4.836,1.607,4.836,5.102v13.096c0,3.616-1.238,4.581-4.836,4.581H12.619z"/>
<path fill="none" stroke="#0071B3" stroke-width="0" stroke-miterlimit="3.863" d="M12.619,114.539
	c-3.598,0-5.077-2.169-5.077-5.784V97.226c0-3.334,1.559-5.464,4.917-5.464h69.477c3.518,0,4.836,1.607,4.836,5.102v13.096
	c0,3.616-1.238,4.58-4.836,4.58H12.619z"/>
<path fill="#FFFFFF" d="M44.118,101.202c0,1.446-1.199,2.651-2.678,2.651l-2.238,0.04v6.065h-1.879V96.543h4.038
	c1.439,0,2.718,1.205,2.718,2.731v1.968L44.118,101.202z"/>
<path fill="none" stroke="#FFFFFF" stroke-width="0.2" stroke-miterlimit="3.863" d="M44.118,101.202
	c0,1.446-1.199,2.651-2.678,2.651l-2.238,0.04v6.065h-1.879V96.543h4.038c1.439,0,2.718,1.205,2.718,2.731v1.968L44.118,101.202z"/>
<path fill="#FFFFFF" d="M17.735,99.756h1.839c0-1.848-1.479-3.294-3.238-3.294c-1.839,0-3.279,1.446-3.279,3.294
	c0,1.044,0.48,2.009,1.28,2.611l3.238,3.415c0.08,0.24,0.16,0.481,0.16,0.723c0,0.884-0.679,1.566-1.519,1.566
	c-0.839,0-1.559-0.683-1.559-1.566v-0.482h-1.799v0.482c0,1.848,1.52,3.374,3.398,3.374c1.839,0,3.358-1.526,3.358-3.374
	c0-0.964-0.4-1.848-1.079-2.491l-3.238-3.414c-0.24-0.24-0.4-0.603-0.4-1.005c0-0.723,0.6-1.365,1.359-1.365
	C17.016,98.229,17.735,98.952,17.735,99.756z"/>
<path fill="none" stroke="#FFFFFF" stroke-width="0.2" stroke-miterlimit="3.863" d="M17.735,99.756h1.839
	c0-1.848-1.479-3.294-3.238-3.294c-1.839,0-3.279,1.446-3.279,3.294c0,1.044,0.48,2.009,1.28,2.611l3.238,3.415
	c0.08,0.24,0.16,0.481,0.16,0.723c0,0.884-0.679,1.566-1.519,1.566c-0.839,0-1.559-0.683-1.559-1.566v-0.482h-1.799v0.482
	c0,1.848,1.52,3.374,3.398,3.374c1.839,0,3.358-1.526,3.358-3.374c0-0.964-0.4-1.848-1.079-2.491l-3.238-3.414
	c-0.24-0.24-0.4-0.603-0.4-1.005c0-0.723,0.6-1.365,1.359-1.365C17.016,98.229,17.735,98.952,17.735,99.756z"/>
<polygon fill="#FFFFFF" points="20.613,96.543 27.329,96.543 27.329,98.27 24.89,98.27 24.89,109.959 23.052,109.959 23.052,98.229 
	20.613,98.229 "/>
<polygon fill="none" stroke="#FFFFFF" stroke-width="0.2" stroke-miterlimit="3.863" points="20.613,96.543 27.329,96.543 
	27.329,98.27 24.89,98.27 24.89,109.959 23.052,109.959 23.052,98.229 20.613,98.229 "/>
<path fill="#FFFFFF" d="M34.964,106.827c0,1.847-1.479,3.172-3.317,3.172s-3.358-1.485-3.358-3.334v-6.949
	c0-1.888,1.52-3.375,3.358-3.375s3.317,1.487,3.317,3.375V106.827z"/>
<path fill="none" stroke="#FFFFFF" stroke-width="0.2" stroke-miterlimit="3.863" d="M34.964,106.827
	c0,1.847-1.479,3.172-3.317,3.172s-3.358-1.485-3.358-3.334v-6.949c0-1.888,1.52-3.375,3.358-3.375s3.317,1.487,3.317,3.375V106.827
	z"/>
<path fill="#0071B3" d="M33.206,106.785c0,0.845-0.72,1.567-1.559,1.567c-0.84,0-1.52-0.723-1.52-1.567v-7.069
	c0-0.844,0.68-1.566,1.52-1.566c0.839,0,1.559,0.723,1.559,1.566V106.785z"/>
<path fill="none" stroke="#FFFFFF" stroke-width="0.2" stroke-miterlimit="3.863" d="M33.206,106.785
	c0,0.845-0.72,1.567-1.559,1.567c-0.84,0-1.52-0.723-1.52-1.567v-7.069c0-0.844,0.68-1.566,1.52-1.566
	c0.839,0,1.559,0.723,1.559,1.566V106.785z"/>
<path fill="#0071B3" d="M42.28,99.515v1.447c0,0.723-0.6,1.325-1.32,1.325h-1.719V98.31h1.719c0.72,0,1.32,0.643,1.32,1.365V99.515z
	"/>
<path fill="none" stroke="#FFFFFF" stroke-width="0.2" stroke-miterlimit="3.863" d="M42.28,99.515v1.446
	c0,0.724-0.6,1.326-1.32,1.326h-1.719V98.31h1.719c0.72,0,1.32,0.643,1.32,1.365V99.515z"/>
<path fill="#ED1C24" d="M43.599,82.08c0.88,1.406,2.439,2.29,4.237,2.29c1.719,0,2.478-0.843,3.397-2.129L94.847,8.484
	c1.519-2.008,1.158-5.182-0.68-7.029c-1.039-1.045-2.238-1.526-3.599-1.446L4.184,0.049c-1,0.161-1.959,0.643-2.718,1.406
	C-0.014,2.981-0.373,5.19,0.386,7.079L43.599,82.08z"/>
<path fill="none" stroke="#ED1C24" stroke-width="0" stroke-miterlimit="3.863" d="M43.599,82.08c0.88,1.406,2.439,2.29,4.237,2.29
	c1.719,0,2.478-0.843,3.397-2.129L94.847,8.484c1.519-2.008,1.158-5.182-0.68-7.029c-1.039-1.045-2.238-1.526-3.598-1.446
	L4.184,0.049c-1,0.161-1.959,0.643-2.718,1.406C-0.014,2.981-0.373,5.19,0.386,7.079L43.599,82.08z"/>
<polygon fill-rule="evenodd" clip-rule="evenodd" fill="#FFFFFF" points="14.657,10.976 47.916,68.783 81.175,10.976 "/>
<polygon fill="none" stroke="#ED1C24" stroke-width="0" stroke-miterlimit="3.863" points="14.657,10.976 47.916,68.783 
	81.175,10.976 "/>
<polygon fill="#FFFFFF" points="50.954,110.643 50.954,100.077 49.755,100.077 49.755,99.274 50.954,96.983 52.792,96.983 
	52.792,110.643 "/>
<polygon fill="none" stroke="#FFFFFF" stroke-width="0" stroke-miterlimit="3.863" points="50.954,110.643 50.954,100.077 
	49.755,100.077 49.755,99.274 50.954,96.983 52.792,96.983 52.792,110.643 "/>
<path fill="#FFFFFF" d="M57.39,102.407c0.521-0.361,1.119-0.603,1.799-0.603c1.56,0,2.799,1.286,2.799,2.853v2.65
	c0,1.849-1.48,3.335-3.278,3.335c-1.839,0-3.317-1.486-3.317-3.335v-0.48h1.878v0.803c0,0.763,0.681,1.446,1.439,1.446
	s1.439-0.684,1.439-1.446v-2.973c0-0.764-0.681-1.406-1.439-1.406c-0.56,0-1.079,0.322-1.319,0.843h-1.719v-7.11h5.996v1.729H57.39
	V102.407z"/>
<path fill="none" stroke="#FFFFFF" stroke-width="0.2" stroke-miterlimit="3.863" d="M57.39,102.407
	c0.521-0.361,1.119-0.603,1.799-0.603c1.56,0,2.799,1.286,2.799,2.853v2.65c0,1.849-1.48,3.335-3.278,3.335
	c-1.839,0-3.317-1.486-3.317-3.335v-0.48h1.878v0.803c0,0.763,0.681,1.446,1.439,1.446s1.439-0.684,1.439-1.446v-2.973
	c0-0.764-0.681-1.406-1.439-1.406c-0.56,0-1.079,0.322-1.319,0.843h-1.719v-7.11h5.996v1.729H57.39V102.407z"/>
<path fill="#FFFFFF" d="M74.938,110.643H73.3v-9.762h1.599v0.401c0.4-0.442,0.999-0.683,1.64-0.683c0.879,0,1.639,0.482,1.998,1.245
	c0.4-0.683,1.119-1.165,1.998-1.165c1.24,0,2.24,1.005,2.24,2.29v7.673h-1.56v-7.069c0-0.644-0.52-1.166-1.159-1.166
	c-0.641,0-1.16,0.522-1.16,1.166l0.041,7.069h-1.68v-7.069c0-0.644-0.52-1.166-1.159-1.166s-1.159,0.522-1.159,1.166V110.643z"/>
<path fill="none" stroke="#FFFFFF" stroke-width="0.2" stroke-miterlimit="3.863" d="M74.938,110.643H73.3v-9.762h1.599v0.401
	c0.4-0.442,0.999-0.683,1.64-0.683c0.879,0,1.639,0.482,1.998,1.245c0.4-0.683,1.119-1.165,1.998-1.165c1.24,0,2.24,1.005,2.24,2.29
	v7.673h-1.56v-7.069c0-0.644-0.52-1.166-1.159-1.166c-0.641,0-1.16,0.522-1.16,1.166l0.041,7.069h-1.68v-7.069
	c0-0.644-0.52-1.166-1.159-1.166s-1.159,0.522-1.159,1.166V110.643z"/>
<path fill="#FFFFFF" d="M64.386,107.348c0,1.809,1.479,3.295,3.277,3.295s3.278-1.486,3.278-3.295v-7.471
	c0-1.809-1.479-3.294-3.278-3.294s-3.277,1.485-3.277,3.294V107.348z"/>
<path fill="none" stroke="#FFFFFF" stroke-width="0.2" stroke-miterlimit="3.863" d="M64.386,107.348
	c0,1.809,1.479,3.295,3.277,3.295s3.278-1.486,3.278-3.295v-7.471c0-1.809-1.479-3.294-3.278-3.294s-3.277,1.485-3.277,3.294
	V107.348z"/>
<path fill="#0071B3" d="M69.263,107.43v-7.553c0-0.885-0.721-1.607-1.6-1.607s-1.599,0.723-1.599,1.607v7.471
	c0,0.885,0.72,1.607,1.599,1.607S69.263,108.313,69.263,107.43z"/>
<path fill="none" stroke="#FFFFFF" stroke-width="0.2" stroke-miterlimit="3.863" d="M69.263,107.429v-7.552
	c0-0.885-0.721-1.607-1.6-1.607s-1.599,0.723-1.599,1.607v7.471c0,0.885,0.72,1.607,1.599,1.607S69.263,108.313,69.263,107.429z"/>
</svg>
