<?xml version="1.0" encoding="utf-8"?>
<!-- Generator: Adobe Illustrator 14.0.0, SVG Export Plug-In . SVG Version: 6.00 Build 43363)  -->
<!DOCTYPE svg PUBLIC "-//W3C//DTD SVG 1.1//EN" "http://www.w3.org/Graphics/SVG/1.1/DTD/svg11.dtd">
<svg version="1.1" id="Calque_1" xmlns="http://www.w3.org/2000/svg" xmlns:xlink="http://www.w3.org/1999/xlink" x="0px" y="0px"
	 width="79.403px" height="79.271px" viewBox="0 0 79.403 79.271" enable-background="new 0 0 79.403 79.271" xml:space="preserve">
<path fill-rule="evenodd" clip-rule="evenodd" fill="#ED1C24" d="M39.721,0c30.504,0,49.576,33.023,34.303,59.45
	c-15.232,26.427-53.374,26.427-68.646,0C-9.894,33.023,9.176,0,39.721,0z"/>
<path fill="none" stroke="#ED1C24" stroke-width="0" stroke-miterlimit="3.863" d="M39.721,0c30.504,0,49.576,33.023,34.303,59.45
	c-15.232,26.427-53.374,26.427-68.646,0C-9.894,33.023,9.176,0,39.721,0z"/>
<path fill-rule="evenodd" clip-rule="evenodd" fill="#FFFFFF" d="M39.681,68.286c-22.069,0-35.862-23.868-24.828-42.979
	c11.035-19.11,38.662-19.15,49.696,0C75.583,44.418,61.79,68.286,39.681,68.286z"/>
<path fill="none" stroke="#ED1C24" stroke-width="0" stroke-miterlimit="3.863" d="M39.681,68.286
	c-22.069,0-35.862-23.868-24.828-42.979c11.035-19.11,38.662-19.15,49.696,0C75.583,44.418,61.79,68.286,39.681,68.286z"/>
<path d="M29.286,32.344l10.035,8.915c-0.4,0.44-0.599,1.04-0.599,1.64c0,1.279,1.039,2.398,2.318,2.558v2.959h-0.398v0.521h1.278
	v-0.521h-0.36v-2.919c1.2-0.08,2.119-1.039,2.319-2.159h1.399c0.199,4.878,4.197,8.756,9.076,8.756c5.037,0,9.114-4.077,9.114-9.116
	c0-4.997-4.077-9.075-9.114-9.075c-1.52,0-2.959,0.36-4.199,1.039l-2.559-4.677l0.6-1.24c0.201-0.399,0.721-0.279,1.039-0.599
	c0.041-0.2,0.041-0.36,0.041-0.56c-0.16-0.08-0.24-0.28-0.439-0.28h-3.359c-0.08,0.08-0.199,0.04-0.279,0.04
	c-0.04,0.04-0.08,0.08-0.12,0.12c-0.04,0.16-0.08,0.4,0,0.56c0.04,0.04,0.12,0.08,0.159,0.08h1.72c0.2-0.04,0.36,0.04,0.56,0.08
	c0.041,0.08,0.041,0.08,0.121,0.12c-0.041,0.12,0.079,0.279,0.039,0.399l-0.359,0.8H29.886l0.48-2.079
	c0.4-0.12,0.719,0.16,1.519-0.2c0.32,0,1.039-0.4,1.959-0.08c0.16-0.08-0.08-0.16,0.04-0.28c-0.08-0.04,0.12-0.24,0.08-0.32
	c-0.52-0.159-1.679-0.239-2.239,0.08c-0.56,0.32-1.319,0.12-1.799,0.16l-1.719,7.397c-1-0.4-2.119-0.6-3.239-0.6
	c-5.037,0-9.115,4.078-9.115,9.075c0,5.038,4.078,9.116,9.115,9.116c4.998,0,9.076-4.078,9.076-9.116
	c0-3.678-2.199-6.796-5.317-8.235L29.286,32.344z"/>
<path fill="none" stroke="#000000" stroke-width="0.2" stroke-miterlimit="3.863" d="M29.286,32.344l10.035,8.915
	c-0.4,0.44-0.599,1.04-0.599,1.64c0,1.279,1.039,2.398,2.318,2.558v2.959h-0.398v0.521h1.278v-0.521h-0.36v-2.919
	c1.2-0.08,2.119-1.039,2.319-2.159h1.399c0.199,4.878,4.197,8.756,9.076,8.756c5.037,0,9.114-4.077,9.114-9.116
	c0-4.997-4.077-9.075-9.114-9.075c-1.52,0-2.959,0.36-4.199,1.039l-2.559-4.677l0.6-1.24c0.201-0.399,0.721-0.279,1.039-0.599
	c0.041-0.2,0.041-0.36,0.041-0.56c-0.16-0.08-0.24-0.28-0.439-0.28h-3.359c-0.08,0.08-0.199,0.04-0.279,0.04
	c-0.04,0.04-0.08,0.08-0.12,0.12c-0.04,0.16-0.08,0.4,0,0.56c0.04,0.04,0.12,0.08,0.159,0.08h1.72c0.2-0.04,0.36,0.04,0.56,0.08
	c0.041,0.08,0.041,0.08,0.121,0.12c-0.041,0.12,0.079,0.279,0.039,0.399l-0.359,0.8H29.886l0.48-2.079
	c0.4-0.12,0.719,0.16,1.519-0.2c0.32,0,1.039-0.4,1.959-0.08c0.16-0.08-0.08-0.16,0.04-0.28c-0.08-0.04,0.12-0.24,0.08-0.32
	c-0.52-0.159-1.679-0.239-2.239,0.08c-0.56,0.32-1.319,0.12-1.799,0.16l-1.719,7.397c-1-0.4-2.119-0.6-3.239-0.6
	c-5.037,0-9.115,4.078-9.115,9.075c0,5.038,4.078,9.116,9.115,9.116c4.998,0,9.076-4.078,9.076-9.116
	c0-3.678-2.199-6.796-5.317-8.235L29.286,32.344z"/>
<path fill="none" stroke="#000000" stroke-width="0.2" stroke-miterlimit="3.863" d="M23.489,33.263c0.52-0.08,1-0.16,1.479-0.16
	c5.398,0,9.796,4.438,9.796,9.875c0,0.32,0,0.601-0.04,0.92"/>
<path fill-rule="evenodd" clip-rule="evenodd" d="M17.012,52.534 M62.271,52.534H17.012v-0.641h45.258V52.534z"/>
<path fill="none" stroke="#000000" stroke-width="0.2" stroke-miterlimit="3.863" d="M17.012,52.534 M62.271,52.534H17.012v-0.641
	h45.258V52.534z"/>
<path fill="#FFFFFF" d="M25.688,41.859c-0.2-0.16-0.48-0.12-0.76-0.12c-0.719,0-1.359,0.6-1.359,1.319c0,0.721,0.64,1.32,1.359,1.32
	c0.6,0,1.16-0.4,1.32-0.96h6.876c-0.28,4.317-3.838,7.716-8.196,7.716c-4.597,0-8.276-3.678-8.276-8.235
	c0-4.558,3.679-8.236,8.276-8.236c1.08,0,2.119,0.199,3.079,0.599l-0.52,2.239C27.167,38.781,26.728,40.3,25.688,41.859z"/>
<path fill="none" stroke="#000000" stroke-width="0.2" stroke-miterlimit="3.863" d="M25.688,41.859c-0.2-0.16-0.48-0.12-0.76-0.12
	c-0.719,0-1.359,0.6-1.359,1.319c0,0.721,0.64,1.32,1.359,1.32c0.6,0,1.16-0.4,1.32-0.96h6.876c-0.28,4.317-3.838,7.716-8.196,7.716
	c-4.597,0-8.276-3.678-8.276-8.235c0-4.558,3.679-8.236,8.276-8.236c1.08,0,2.119,0.199,3.079,0.599l-0.52,2.239
	C27.167,38.781,26.728,40.3,25.688,41.859z"/>
<path fill="#FFFFFF" d="M28.567,35.502l-0.6,2.359c-0.28,1.159-1.16,3.438-1.919,4.358c0.12,0.16,0.2,0.36,0.24,0.56h6.876
	C33.084,39.54,31.245,36.822,28.567,35.502z"/>
<path fill="none" stroke="#000000" stroke-width="0.2" stroke-miterlimit="3.863" d="M28.567,35.502l-0.6,2.359
	c-0.28,1.159-1.16,3.438-1.919,4.358c0.12,0.16,0.2,0.36,0.24,0.56h6.876C33.084,39.54,31.245,36.822,28.567,35.502z"/>
<path fill="#FFFFFF" d="M29.446,31.784l0.24-1.439h17.311L42.2,40.46c-0.2-0.08-0.36-0.24-0.68-0.16v-2.879h0.399v-0.52h-1.319v0.52
	H41v2.919c-0.479,0.08-0.879,0.28-1.239,0.56L29.446,31.784z"/>
<path fill="none" stroke="#000000" stroke-width="0.2" stroke-miterlimit="3.863" d="M29.446,31.784l0.24-1.439h17.311L42.2,40.46
	c-0.2-0.08-0.36-0.24-0.68-0.16v-2.879h0.399v-0.52h-1.319v0.52H41v2.919c-0.479,0.08-0.879,0.28-1.239,0.56L29.446,31.784z"/>
<path fill="#FFFFFF" d="M56.153,42.059l5.477-2.999c0.641,1.16,1,2.519,1,3.917c0,4.559-3.678,8.236-8.236,8.236
	c-4.438,0-8.035-3.479-8.235-7.876h6.437c0.16,0.84,0.92,1.479,1.799,1.479c1,0,1.879-0.84,1.879-1.84
	c0-0.318-0.08-0.599-0.199-0.838L56.153,42.059z"/>
<path fill="none" stroke="#000000" stroke-width="0.2" stroke-miterlimit="3.863" d="M56.153,42.059l5.477-2.999
	c0.641,1.16,1,2.519,1,3.917c0,4.559-3.678,8.236-8.236,8.236c-4.438,0-8.035-3.479-8.235-7.876h6.437
	c0.16,0.84,0.92,1.479,1.799,1.479c1,0,1.879-0.84,1.879-1.84c0-0.318-0.08-0.599-0.199-0.838L56.153,42.059z"/>
<path fill="#FFFFFF" d="M55.833,41.739l5.557-3.038c-1.438-2.359-4.037-3.958-7.035-3.958c-1.32,0-2.6,0.319-3.719,0.879
	l3.118,5.637c0.2-0.08,0.44-0.12,0.681-0.12C54.954,41.139,55.433,41.379,55.833,41.739z"/>
<path fill="none" stroke="#000000" stroke-width="0.2" stroke-miterlimit="3.863" d="M55.833,41.739l5.557-3.038
	c-1.438-2.359-4.037-3.958-7.035-3.958c-1.32,0-2.6,0.319-3.719,0.879l3.118,5.637c0.2-0.08,0.44-0.12,0.681-0.12
	C54.954,41.139,55.433,41.379,55.833,41.739z"/>
<path fill="#FFFFFF" d="M50.196,35.982l3.117,5.637c-0.319,0.28-0.559,0.68-0.639,1.12h-6.557c0.08-2.879,1.639-5.398,3.958-6.797
	L50.196,35.982z"/>
<path fill="none" stroke="#000000" stroke-width="0.2" stroke-miterlimit="3.863" d="M50.196,35.982l3.117,5.637
	c-0.319,0.28-0.559,0.68-0.639,1.12h-6.557c0.08-2.879,1.639-5.398,3.958-6.797L50.196,35.982z"/>
<path fill="#FFFFFF" d="M47.317,30.825L42.8,40.74c0.68,0.439,1.159,1.199,1.199,2.039h1.359c0.08-3.199,1.799-5.997,4.397-7.557
	L47.317,30.825z"/>
<path fill="none" stroke="#000000" stroke-width="0.2" stroke-miterlimit="3.863" d="M47.317,30.825L42.8,40.74
	c0.68,0.439,1.159,1.199,1.199,2.039h1.359c0.08-3.199,1.799-5.997,4.397-7.557L47.317,30.825z"/>
<path fill="none" stroke="#000000" stroke-width="0.2" stroke-miterlimit="3.863" d="M44.759,44.458
	c-0.08-0.48-0.119-0.96-0.119-1.48c0-5.437,4.396-9.875,9.834-9.875c4.039,0,7.477,2.439,8.995,5.917"/>
</svg>
