<?xml version="1.0" encoding="utf-8"?>
<!-- Generator: Adobe Illustrator 14.0.0, SVG Export Plug-In . SVG Version: 6.00 Build 43363)  -->
<!DOCTYPE svg PUBLIC "-//W3C//DTD SVG 1.1//EN" "http://www.w3.org/Graphics/SVG/1.1/DTD/svg11.dtd">
<svg version="1.1" id="Calque_1" xmlns="http://www.w3.org/2000/svg" xmlns:xlink="http://www.w3.org/1999/xlink" x="0px" y="0px"
	 width="78.916px" height="78.899px" viewBox="0 0 78.916 78.899" enable-background="new 0 0 78.916 78.899" xml:space="preserve">
<path fill-rule="evenodd" clip-rule="evenodd" fill="#ED1C24" d="M39.458,78.899c-30.325,0-49.285-32.857-34.123-59.167
	s53.083-26.31,68.245,0C88.743,46.042,69.782,78.899,39.458,78.899z"/>
<path fill="none" stroke="#ED1C24" stroke-width="0" stroke-miterlimit="3.863" d="M39.458,78.899
	c-30.325,0-49.285-32.857-34.123-59.167s53.083-26.31,68.245,0C88.743,46.042,69.782,78.899,39.458,78.899z"/>
<path fill-rule="evenodd" clip-rule="evenodd" fill="#FFFFFF" d="M39.458,67.535c-21.647,0-35.142-23.407-24.334-42.121
	c10.808-18.713,37.859-18.744,48.667,0C74.601,44.128,61.074,67.535,39.458,67.535z"/>
<path fill="none" stroke="#ED1C24" stroke-width="0" stroke-miterlimit="3.863" d="M39.458,67.535
	c-21.647,0-35.142-23.407-24.334-42.121c10.808-18.713,37.859-18.744,48.667,0C74.601,44.128,61.074,67.535,39.458,67.535z"/>
<path d="M19.941,24.427v18.157l6.423-0.03c1.575-3.49,8.647-3.335,8.647,3.52c0,8.832-9.542,7.35-9.542,1.76l-6.238,0.031
	c0.216,5.436,4.756,9.758,10.839,9.758c7.041,0,11.117-4.569,11.117-11.857c0-9.943-9.913-12.753-14.545-9.573l-0.03-6.361
	l12.506-0.03l0.062-5.436L19.941,24.427z"/>
<path fill="none" stroke="#120C0E" stroke-width="0" stroke-miterlimit="3.863" d="M19.941,24.427v18.157l6.423-0.03
	c1.575-3.49,8.647-3.335,8.647,3.52c0,8.832-9.542,7.35-9.542,1.76l-6.238,0.031c0.216,5.436,4.756,9.758,10.839,9.758
	c7.041,0,11.117-4.569,11.117-11.857c0-9.943-9.913-12.753-14.545-9.573l-0.03-6.361l12.506-0.03l0.062-5.436L19.941,24.427z"/>
<path d="M49.648,41.441v9.079h3.088c0.741-1.76,4.2-1.606,4.2,1.76c0,4.416-4.694,3.798-4.694,0.957h-3.088
	c0.124,2.78,2.472,4.849,5.342,4.849c3.459,0,5.25-2.315,5.25-5.99c0-5.003-4.538-6.331-6.823-4.787v-3.181l5.989-0.03V41.41
	L49.648,41.441z"/>
<path fill="none" stroke="#120C0E" stroke-width="0" stroke-miterlimit="3.863" d="M49.648,41.441v9.079h3.088
	c0.741-1.76,4.2-1.606,4.2,1.76c0,4.416-4.694,3.798-4.694,0.957h-3.088c0.124,2.78,2.472,4.849,5.342,4.849
	c3.459,0,5.25-2.315,5.25-5.99c0-5.003-4.538-6.331-6.823-4.787v-3.181l5.989-0.03V41.41L49.648,41.441z"/>
<path d="M50.761,22.697v1.76h-1.235v1.638h1.235v5.465c0,1.668,1.05,1.853,2.315,1.853h1.173v-1.821
	c-1.05,0-1.297-0.031-1.297-0.557v-4.939h2.225v-1.638h-2.225v-2.439L50.761,22.697z"/>
<path fill="none" stroke="#120C0E" stroke-width="0" stroke-miterlimit="3.863" d="M50.761,22.697v1.76h-1.235v1.638h1.235v5.465
	c0,1.668,1.05,1.853,2.315,1.853h1.173v-1.821c-1.05,0-1.297-0.031-1.297-0.557v-4.939h2.225v-1.638h-2.225v-2.439L50.761,22.697z"
	/>
</svg>
