<?xml version="1.0" encoding="utf-8"?>
<!-- Generator: Adobe Illustrator 14.0.0, SVG Export Plug-In . SVG Version: 6.00 Build 43363)  -->
<!DOCTYPE svg PUBLIC "-//W3C//DTD SVG 1.1//EN" "http://www.w3.org/Graphics/SVG/1.1/DTD/svg11.dtd">
<svg version="1.1" id="Calque_1" xmlns="http://www.w3.org/2000/svg" xmlns:xlink="http://www.w3.org/1999/xlink" x="0px" y="0px"
	 width="78.916px" height="78.899px" viewBox="0 0 78.916 78.899" enable-background="new 0 0 78.916 78.899" xml:space="preserve">
<path fill-rule="evenodd" clip-rule="evenodd" fill="#ED1C24" d="M39.458,78.899c-30.325,0-49.285-32.856-34.123-59.167
	c15.162-26.31,53.083-26.31,68.245,0C88.743,46.043,69.782,78.899,39.458,78.899z"/>
<path fill="none" stroke="#ED1C24" stroke-width="0" stroke-miterlimit="3.863" d="M39.458,78.899
	c-30.325,0-49.285-32.856-34.123-59.167c15.162-26.31,53.083-26.31,68.245,0C88.743,46.043,69.782,78.899,39.458,78.899z"/>
<path fill-rule="evenodd" clip-rule="evenodd" fill="#FFFFFF" d="M39.458,67.535c-21.647,0-35.142-23.406-24.334-42.121
	c10.808-18.713,37.859-18.743,48.667,0C74.601,44.129,61.074,67.535,39.458,67.535z"/>
<path fill="none" stroke="#ED1C24" stroke-width="0" stroke-miterlimit="3.863" d="M39.458,67.535
	c-21.647,0-35.142-23.406-24.334-42.121c10.808-18.713,37.859-18.743,48.667,0C74.601,44.129,61.074,67.535,39.458,67.535z"/>
<polygon fill-rule="evenodd" clip-rule="evenodd" fill="#120C0E" points="33.004,56.141 33.004,51.478 32.542,51.478 32.542,50.489 
	33.22,49.563 34.333,49.563 34.333,56.141 "/>
<polygon fill="none" stroke="#120C0E" stroke-width="0.154" stroke-miterlimit="3.863" points="33.004,56.141 33.004,51.478 
	32.542,51.478 32.542,50.489 33.22,49.563 34.333,49.563 34.333,56.141 "/>
<path fill-rule="evenodd" clip-rule="evenodd" fill="#120C0E" d="M40.446,51.633v2.47c0,0.71-0.124,0.896-0.494,1.482
	c-0.402,0.648-0.988,0.771-1.73,0.771c-0.432,0-0.772-0.092-1.111-0.278c-0.247-0.153-0.494-0.185-0.772-0.679
	C36.092,54.937,36,54.875,36,54.318v-2.563c0-0.617,0.124-0.834,0.494-1.39c0.371-0.617,0.957-0.927,1.699-0.927
	c0.432,0,0.772,0.093,1.08,0.278c0.34,0.216,0.433,0.34,0.771,0.741C40.261,50.705,40.446,51.076,40.446,51.633z"/>
<path fill="none" stroke="#120C0E" stroke-width="0.154" stroke-miterlimit="3.863" d="M40.446,51.633v2.47
	c0,0.71-0.124,0.896-0.494,1.482c-0.402,0.648-0.988,0.771-1.73,0.771c-0.432,0-0.772-0.092-1.111-0.278
	c-0.247-0.153-0.494-0.185-0.772-0.679C36.092,54.937,36,54.875,36,54.318v-2.563c0-0.617,0.124-0.834,0.494-1.39
	c0.371-0.617,0.957-0.927,1.699-0.927c0.432,0,0.772,0.093,1.08,0.278c0.34,0.216,0.433,0.34,0.771,0.741
	C40.261,50.705,40.446,51.076,40.446,51.633z"/>
<path fill-rule="evenodd" clip-rule="evenodd" fill="#FFFFFF" d="M39.303,52.312c0-0.556,0-1.019-0.339-1.482
	c-0.155-0.216-0.433-0.34-0.772-0.34c-0.309,0-0.556,0.124-0.742,0.402c-0.339,0.401-0.308,0.771-0.308,1.358v1.266
	c0,0.587-0.031,1.05,0.308,1.483c0.155,0.216,0.464,0.308,0.772,0.308c0.309,0,0.587-0.092,0.803-0.339
	c0.278-0.402,0.278-0.834,0.278-1.421V52.312z"/>
<path fill="none" stroke="#120C0E" stroke-width="0.154" stroke-miterlimit="3.863" d="M39.303,52.312c0-0.556,0-1.019-0.339-1.482
	c-0.155-0.216-0.433-0.34-0.772-0.34c-0.309,0-0.556,0.124-0.742,0.402c-0.339,0.401-0.308,0.771-0.308,1.358v1.266
	c0,0.587-0.031,1.05,0.308,1.483c0.155,0.216,0.464,0.308,0.772,0.308c0.309,0,0.587-0.092,0.803-0.339
	c0.278-0.402,0.278-0.834,0.278-1.421V52.312z"/>
<path fill="#120C0E" d="M45.757,53.146v3.15h0.865v-3.459c0-0.927-0.525-1.359-1.203-1.359c-0.465,0-0.772,0.216-1.082,0.68
	c-0.246-0.494-0.617-0.68-1.111-0.68c-0.247,0-0.494,0.124-0.741,0.309v-0.309H41.65v4.787h0.896v-3.088
	c0-0.34,0.248-0.618,0.586-0.618c0.34,0,0.588,0.278,0.588,0.618v3.057h0.865v-3.088c0-0.34,0.246-0.618,0.586-0.618
	S45.757,52.806,45.757,53.146z"/>
<path fill="none" stroke="#120C0E" stroke-width="0.154" stroke-miterlimit="3.863" d="M45.757,53.146v3.15h0.865v-3.459
	c0-0.927-0.525-1.359-1.203-1.359c-0.465,0-0.772,0.216-1.082,0.68c-0.246-0.494-0.617-0.68-1.111-0.68
	c-0.247,0-0.494,0.124-0.741,0.309v-0.309H41.65v4.787h0.896v-3.088c0-0.34,0.248-0.618,0.586-0.618c0.34,0,0.588,0.278,0.588,0.618
	v3.057h0.865v-3.088c0-0.34,0.246-0.618,0.586-0.618S45.757,52.806,45.757,53.146z"/>
<polygon fill="#120C0E" points="51.47,50.212 54.033,53.084 51.47,55.554 51.47,53.64 48.907,53.64 48.907,52.374 51.47,52.374 "/>
<polygon fill="none" stroke="#120C0E" stroke-width="0.154" stroke-miterlimit="3.863" points="51.47,50.212 54.033,53.084 
	51.47,55.554 51.47,53.64 48.907,53.64 48.907,52.374 51.47,52.374 "/>
<polygon fill="#120C0E" points="27.445,50.212 24.882,53.084 27.445,55.554 27.445,53.64 30.008,53.64 30.008,52.374 27.445,52.374 
	"/>
<polygon fill="none" stroke="#120C0E" stroke-width="0.154" stroke-miterlimit="3.863" points="27.445,50.212 24.882,53.084 
	27.445,55.554 27.445,53.64 30.008,53.64 30.008,52.374 27.445,52.374 "/>
<path fill-rule="evenodd" clip-rule="evenodd" fill="#1C1D21" d="M28.742,36.934c-1.914,0-3.088-2.069-2.13-3.706
	c0.957-1.637,3.304-1.637,4.261,0S30.657,36.934,28.742,36.934z"/>
<path fill="none" stroke="#1C1D21" stroke-width="0.154" stroke-miterlimit="3.863" d="M28.742,36.934
	c-1.914,0-3.088-2.069-2.13-3.706c0.957-1.637,3.304-1.637,4.261,0S30.657,36.934,28.742,36.934z"/>
<path fill-rule="evenodd" clip-rule="evenodd" fill="#120C0E" d="M48.29,36.841c-1.914,0-3.089-2.069-2.131-3.706
	c0.957-1.637,3.305-1.637,4.262,0S50.204,36.841,48.29,36.841z"/>
<path fill="none" stroke="#120C0E" stroke-width="0.154" stroke-miterlimit="3.863" d="M48.29,36.841
	c-1.914,0-3.089-2.069-2.131-3.706c0.957-1.637,3.305-1.637,4.262,0S50.204,36.841,48.29,36.841z"/>
<path fill-rule="evenodd" clip-rule="evenodd" fill="#FFFFFF" d="M28.711,35.266c-0.648,0-1.05-0.679-0.71-1.235
	c0.309-0.556,1.112-0.556,1.421,0C29.761,34.587,29.36,35.266,28.711,35.266z"/>
<path fill="none" stroke="#120C0E" stroke-width="0.154" stroke-miterlimit="3.863" d="M28.711,35.266
	c-0.648,0-1.05-0.679-0.71-1.235c0.309-0.556,1.112-0.556,1.421,0C29.761,34.587,29.36,35.266,28.711,35.266z"/>
<path fill-rule="evenodd" clip-rule="evenodd" fill="#FFFFFF" d="M48.259,35.203c-0.648,0-1.049-0.71-0.711-1.266
	c0.31-0.586,1.112-0.586,1.422,0C49.31,34.493,48.907,35.203,48.259,35.203z"/>
<path fill="none" stroke="#120C0E" stroke-width="0.154" stroke-miterlimit="3.863" d="M48.259,35.203
	c-0.648,0-1.049-0.71-0.711-1.266c0.31-0.586,1.112-0.586,1.422,0C49.31,34.493,48.907,35.203,48.259,35.203z"/>
<path fill="#120C0E" d="M51.408,34h1.144v-0.618h2.285v-1.204h-3.922v-0.648h3.922v-8.832L32.88,22.729v8.739h12.599v0.679H32.293
	v-6.454l-0.277-0.278h-4.293c-0.494,0-0.864,0.341-0.864,0.834l-0.587,2.903c-0.278,0.031-0.371,0.154-0.649,0.216
	c-0.092,0.123-0.216,0.31-0.247,0.433l-0.803,3.057h-0.648V34h1.698c0.186-1.575,1.513-2.748,3.088-2.748
	c1.575,0,2.903,1.266,3.119,2.841h13.248c0.216-1.575,1.544-2.841,3.15-2.841C49.864,31.252,50.915,32.178,51.408,34z"/>
<path fill="none" stroke="#120C0E" stroke-width="0.154" stroke-miterlimit="3.863" d="M51.408,34h1.144v-0.618h2.285v-1.204h-3.922
	v-0.648h3.922v-8.832L32.88,22.729v8.739h12.599v0.679H32.293v-6.454l-0.277-0.278h-4.293c-0.494,0-0.864,0.341-0.864,0.834
	l-0.587,2.903c-0.278,0.031-0.371,0.154-0.649,0.216c-0.092,0.123-0.216,0.31-0.247,0.433l-0.803,3.057h-0.648V34h1.698
	c0.186-1.575,1.513-2.748,3.088-2.748c1.575,0,2.903,1.266,3.119,2.841h13.248c0.216-1.575,1.544-2.841,3.15-2.841
	C49.864,31.252,50.915,32.178,51.408,34z"/>
<path fill="#FFFFFF" d="M28.063,26.619l-0.865,2.439h-0.463l0.494-1.976c0.031-0.094,0.155-0.186,0.216-0.31
	C27.661,26.619,27.785,26.649,28.063,26.619z"/>
<path fill="none" stroke="#120C0E" stroke-width="0.154" stroke-miterlimit="3.863" d="M28.063,26.619l-0.865,2.439h-0.463
	l0.494-1.976c0.031-0.094,0.155-0.186,0.216-0.31C27.661,26.619,27.785,26.649,28.063,26.619z"/>
<polygon fill="#FFFFFF" points="28.711,26.465 30.842,26.465 30.842,29.059 27.785,29.059 "/>
<polygon fill="none" stroke="#120C0E" stroke-width="0.154" stroke-miterlimit="3.863" points="28.711,26.465 30.842,26.465 
	30.842,29.059 27.785,29.059 "/>
</svg>
