<?xml version="1.0" encoding="utf-8"?>
<!-- Generator: Adobe Illustrator 14.0.0, SVG Export Plug-In . SVG Version: 6.00 Build 43363)  -->
<!DOCTYPE svg PUBLIC "-//W3C//DTD SVG 1.1//EN" "http://www.w3.org/Graphics/SVG/1.1/DTD/svg11.dtd">
<svg version="1.1" id="Calque_1" xmlns="http://www.w3.org/2000/svg" xmlns:xlink="http://www.w3.org/1999/xlink" x="0px" y="0px"
	 width="79.403px" height="79.365px" viewBox="0 0 79.403 79.365" enable-background="new 0 0 79.403 79.365" xml:space="preserve">
<path fill-rule="evenodd" clip-rule="evenodd" fill="#ED1C24" d="M39.682,79.365c-30.505,0-49.575-33.063-34.303-59.529
	c15.233-26.427,53.374-26.467,68.646,0C89.297,46.302,70.227,79.365,39.682,79.365z"/>
<path fill="none" stroke="#ED1C24" stroke-width="0" stroke-miterlimit="3.863" d="M39.682,79.365
	c-30.505,0-49.575-33.063-34.303-59.529c15.233-26.427,53.374-26.467,68.646,0C89.297,46.302,70.227,79.365,39.682,79.365z"/>
<path fill-rule="evenodd" clip-rule="evenodd" fill="#FFFFFF" d="M39.682,67.931c-21.749,0-35.382-23.548-24.468-42.379
	c10.875-18.831,38.102-18.831,48.977,0S61.471,67.931,39.682,67.931z"/>
<path fill="none" stroke="#ED1C24" stroke-width="0" stroke-miterlimit="3.863" d="M39.682,67.931
	c-21.749,0-35.382-23.548-24.468-42.379c10.875-18.831,38.102-18.831,48.977,0S61.471,67.931,39.682,67.931z"/>
<path fill="#120C0E" d="M13.015,49.581c-1.079-3.038-1.759-6.277-1.759-9.675c0-3.519,0.64-6.797,1.799-9.875l9.755,9.755
	L13.015,49.581z"/>
<path fill="none" stroke="#120C0E" stroke-width="0.2" stroke-miterlimit="3.863" d="M13.015,49.581
	c-1.079-3.038-1.759-6.277-1.759-9.675c0-3.519,0.64-6.797,1.799-9.875l9.755,9.755L13.015,49.581z"/>
<path fill="#120C0E" d="M66.149,49.581l-9.795-9.795l9.795-9.795c1.119,3.078,1.759,6.397,1.759,9.916
	C67.908,43.343,67.268,46.502,66.149,49.581z"/>
<path fill="none" stroke="#120C0E" stroke-width="0.2" stroke-miterlimit="3.863" d="M66.149,49.581l-9.795-9.795l9.795-9.795
	c1.119,3.078,1.759,6.397,1.759,9.916C67.908,43.343,67.268,46.502,66.149,49.581z"/>
<path fill="#120C0E" d="M29.167,49.781h9.436l0.04,3.357H25.168v-4.557l8.476-14.433c0.36-0.48,0.56-1.04,0.56-1.719
	c0-1.559-1.24-2.839-2.799-2.839c-1.559,0-2.838,1.28-2.838,2.839c0,0.2-0.08,0.399-0.04,0.599H24.49c-0.04-0.159,0-0.359,0-0.519
	c0-3.838,3.078-6.957,6.916-6.957c3.838,0,6.917,3.119,6.917,6.957c0,1.039-0.28,1.959-0.72,2.838L29.167,49.781z"/>
<path fill="none" stroke="#120C0E" stroke-width="0.2" stroke-miterlimit="3.863" d="M29.167,49.781h9.436l0.04,3.357H25.168v-4.557
	l8.476-14.433c0.36-0.48,0.56-1.04,0.56-1.719c0-1.559-1.24-2.839-2.799-2.839c-1.559,0-2.838,1.28-2.838,2.839
	c0,0.2-0.08,0.399-0.04,0.599H24.49c-0.04-0.159,0-0.359,0-0.519c0-3.838,3.078-6.957,6.916-6.957c3.838,0,6.917,3.119,6.917,6.957
	c0,1.039-0.28,1.959-0.72,2.838L29.167,49.781z"/>
<path fill="#120C0E" d="M49.516,27.832v7.236l-1.358-0.04v-6.796c0-0.6-0.479-1.08-1.08-1.08c-0.56,0-1.039,0.48-1.039,1.08v6.876
	h-1.479v-6.876c0-0.56-0.479-1.04-1.08-1.04c-0.56,0-1.039,0.48-1.039,1.04v6.916h-1.519v-9.115h1.56v0.24
	c0.359-0.28,0.799-0.48,1.318-0.48c0.881,0,1.559,0.52,1.84,1.279c0.319-0.719,1-1.199,1.838-1.199
	C48.598,25.873,49.516,26.712,49.516,27.832z"/>
<path fill="none" stroke="#120C0E" stroke-width="0.2" stroke-miterlimit="3.863" d="M49.516,27.832v7.236l-1.358-0.04v-6.796
	c0-0.6-0.479-1.08-1.08-1.08c-0.56,0-1.039,0.48-1.039,1.08v6.876h-1.479v-6.876c0-0.56-0.479-1.04-1.08-1.04
	c-0.56,0-1.039,0.48-1.039,1.04v6.916h-1.519v-9.115h1.56v0.24c0.359-0.28,0.799-0.48,1.318-0.48c0.881,0,1.559,0.52,1.84,1.279
	c0.319-0.719,1-1.199,1.838-1.199C48.598,25.873,49.516,26.712,49.516,27.832z"/>
<path fill="#120C0E" d="M42.8,45.982c0.359-0.16,0.72-0.24,1.119-0.24c1.56,0,2.879,1.279,2.879,2.88v1.919
	c0,1.599-1.319,2.918-2.879,2.918c-1.599,0-2.919-1.319-2.919-2.918c0-0.16,0-0.28,0.04-0.4h1.56v0.4
	c0,0.719,0.56,1.279,1.279,1.279c0.721,0,1.279-0.561,1.279-1.279v-2.239c0-0.72-0.52-1.239-1.239-1.239
	c-0.44,0-0.84,0.239-1.079,0.56h-1.76v-5.638h5.479v1.52H42.8V45.982z"/>
<path fill="none" stroke="#120C0E" stroke-width="0.2" stroke-miterlimit="3.863" d="M42.8,45.982c0.359-0.16,0.72-0.24,1.119-0.24
	c1.56,0,2.879,1.279,2.879,2.88v1.919c0,1.599-1.319,2.918-2.879,2.918c-1.599,0-2.919-1.319-2.919-2.918c0-0.16,0-0.28,0.04-0.4
	h1.56v0.4c0,0.719,0.56,1.279,1.279,1.279c0.721,0,1.279-0.561,1.279-1.279v-2.239c0-0.72-0.52-1.239-1.239-1.239
	c-0.44,0-0.84,0.239-1.079,0.56h-1.76v-5.638h5.479v1.52H42.8V45.982z"/>
<path fill="#120C0E" d="M54.274,44.664v5.957c0,1.599-1.278,2.918-2.879,2.918c-1.599,0-2.918-1.319-2.918-2.918v-5.957
	c0-1.6,1.319-2.879,2.918-2.879C52.996,41.785,54.274,43.064,54.274,44.664z"/>
<path fill="none" stroke="#120C0E" stroke-width="0.2" stroke-miterlimit="3.863" d="M54.274,44.664v5.957
	c0,1.599-1.278,2.918-2.879,2.918c-1.599,0-2.918-1.319-2.918-2.918v-5.957c0-1.6,1.319-2.879,2.918-2.879
	C52.996,41.785,54.274,43.064,54.274,44.664z"/>
<path fill="#FFFFFF" d="M52.715,44.704v5.997c0,0.679-0.6,1.279-1.279,1.279c-0.72,0-1.319-0.601-1.319-1.279v-5.997
	c0-0.72,0.6-1.32,1.319-1.32C52.116,43.383,52.715,43.984,52.715,44.704z"/>
<path fill="none" stroke="#120C0E" stroke-width="0.2" stroke-miterlimit="3.863" d="M52.715,44.704v5.997
	c0,0.679-0.6,1.279-1.279,1.279c-0.72,0-1.319-0.601-1.319-1.279v-5.997c0-0.72,0.6-1.32,1.319-1.32
	C52.116,43.383,52.715,43.984,52.715,44.704z"/>
</svg>
