<?xml version="1.0" encoding="utf-8"?>
<!-- Generator: Adobe Illustrator 14.0.0, SVG Export Plug-In . SVG Version: 6.00 Build 43363)  -->
<!DOCTYPE svg PUBLIC "-//W3C//DTD SVG 1.1//EN" "http://www.w3.org/Graphics/SVG/1.1/DTD/svg11.dtd">
<svg version="1.1" id="Calque_1" xmlns="http://www.w3.org/2000/svg" xmlns:xlink="http://www.w3.org/1999/xlink" x="0px" y="0px"
	 width="79.311px" height="79.583px" viewBox="0 0 79.311 79.583" enable-background="new 0 0 79.311 79.583" xml:space="preserve">
<path fill-rule="evenodd" clip-rule="evenodd" fill="#ED1C24" d="M39.642,79.583c-30.479,0-49.524-33.146-34.269-59.682
	c15.224-26.536,53.346-26.536,68.571,0C89.198,46.438,70.122,79.583,39.642,79.583z"/>
<path fill="none" stroke="#ED1C24" stroke-width="0" stroke-miterlimit="3.863" d="M39.643,79.583
	c-30.479,0-49.525-33.146-34.27-59.682c15.224-26.536,53.346-26.536,68.571,0C89.198,46.438,70.122,79.583,39.643,79.583z"/>
<path fill-rule="evenodd" clip-rule="evenodd" fill="#FFFFFF" d="M39.642,68.109c-21.749,0-35.326-23.604-24.452-42.469
	c10.875-18.865,38.06-18.865,48.935,0C75,44.504,61.422,68.109,39.642,68.109z"/>
<path fill="none" stroke="#ED1C24" stroke-width="0" stroke-miterlimit="3.863" d="M39.643,68.109
	c-21.749,0-35.327-23.604-24.452-42.47c10.875-18.865,38.06-18.865,48.935,0C75,44.504,61.422,68.109,39.643,68.109z"/>
<path fill="#120C0E" d="M29.825,13.26c3.044-1.091,6.275-1.777,9.663-1.777c3.511,0,6.804,0.655,9.88,1.808l-9.756,9.792
	L29.825,13.26z"/>
<path fill="none" stroke="#120C0E" stroke-width="0.156" stroke-miterlimit="3.863" d="M29.825,13.26
	c3.044-1.091,6.275-1.777,9.663-1.777c3.511,0,6.804,0.655,9.88,1.808l-9.756,9.792L29.825,13.26z"/>
<path fill="#120C0E" d="M29.856,66.175l9.786-9.821l9.788,9.821c-3.077,1.123-6.4,1.746-9.912,1.746
	C36.101,67.921,32.932,67.298,29.856,66.175z"/>
<path fill="none" stroke="#120C0E" stroke-width="0.156" stroke-miterlimit="3.863" d="M29.856,66.175l9.787-9.821l9.788,9.821
	c-3.077,1.123-6.4,1.746-9.912,1.746C36.101,67.921,32.932,67.298,29.856,66.175z"/>
<path fill="#120C0E" d="M49.46,27.916v7.266l-1.337-0.063v-6.797c0-0.624-0.496-1.091-1.086-1.091c-0.56,0-1.057,0.467-1.057,1.091
	v6.891H44.52v-6.891c0-0.561-0.496-1.06-1.086-1.06c-0.561,0-1.027,0.499-1.027,1.06v6.922h-1.521v-9.136h1.553v0.25
	c0.373-0.281,0.809-0.499,1.307-0.499c0.9,0,1.584,0.53,1.863,1.278c0.311-0.717,0.994-1.185,1.834-1.185
	C48.559,25.951,49.46,26.793,49.46,27.916z"/>
<path fill="none" stroke="#120C0E" stroke-width="0.156" stroke-miterlimit="3.863" d="M49.46,27.916v7.266l-1.337-0.063v-6.797
	c0-0.624-0.496-1.091-1.086-1.091c-0.56,0-1.057,0.467-1.057,1.091v6.891H44.52v-6.891c0-0.561-0.496-1.06-1.086-1.06
	c-0.561,0-1.027,0.499-1.027,1.06v6.922h-1.521v-9.136h1.553v0.25c0.373-0.281,0.809-0.499,1.307-0.499
	c0.9,0,1.584,0.53,1.863,1.278c0.311-0.717,0.994-1.185,1.834-1.185C48.559,25.951,49.46,26.793,49.46,27.916z"/>
<path fill="#120C0E" d="M42.75,46.126c0.372-0.157,0.715-0.249,1.118-0.249c1.555,0,2.89,1.277,2.89,2.898v1.902
	c0,1.622-1.335,2.932-2.89,2.932c-1.584,0-2.921-1.31-2.921-2.932c0-0.156,0-0.28,0.063-0.406h1.553v0.406
	c0,0.717,0.559,1.278,1.273,1.278s1.273-0.562,1.273-1.278v-2.244c0-0.718-0.527-1.248-1.242-1.248c-0.434,0-0.838,0.25-1.057,0.561
	h-1.77v-5.644h5.467v1.528H42.75V46.126z"/>
<path fill="none" stroke="#120C0E" stroke-width="0.156" stroke-miterlimit="3.863" d="M42.75,46.125
	c0.372-0.156,0.715-0.248,1.118-0.248c1.555,0,2.89,1.277,2.89,2.898v1.902c0,1.622-1.335,2.932-2.89,2.932
	c-1.584,0-2.921-1.31-2.921-2.932c0-0.156,0-0.28,0.063-0.406h1.553v0.406c0,0.717,0.559,1.278,1.273,1.278s1.273-0.562,1.273-1.278
	v-2.245c0-0.717-0.527-1.247-1.242-1.247c-0.434,0-0.838,0.25-1.057,0.561h-1.77v-5.644h5.467v1.528H42.75V46.125z"/>
<path fill="#120C0E" d="M54.213,44.785v5.987c0,1.59-1.273,2.931-2.857,2.931c-1.615,0-2.92-1.341-2.92-2.931v-5.987
	c0-1.59,1.305-2.868,2.92-2.868C52.94,41.917,54.213,43.195,54.213,44.785z"/>
<path fill="none" stroke="#120C0E" stroke-width="0.156" stroke-miterlimit="3.863" d="M54.213,44.785v5.987
	c0,1.59-1.273,2.931-2.857,2.931c-1.615,0-2.92-1.341-2.92-2.931v-5.987c0-1.59,1.305-2.868,2.92-2.868
	C52.94,41.917,54.213,43.195,54.213,44.785z"/>
<path fill="#FFFFFF" d="M52.661,44.847v5.987c0,0.686-0.591,1.31-1.273,1.31c-0.715,0-1.306-0.624-1.306-1.31v-5.987
	c0-0.749,0.591-1.341,1.306-1.341C52.07,43.506,52.661,44.098,52.661,44.847z"/>
<path fill="none" stroke="#120C0E" stroke-width="0.156" stroke-miterlimit="3.863" d="M52.661,44.847v5.987
	c0,0.686-0.591,1.31-1.273,1.31c-0.715,0-1.306-0.624-1.306-1.31v-5.987c0-0.749,0.591-1.341,1.306-1.341
	C52.07,43.506,52.661,44.098,52.661,44.847z"/>
<path fill="#120C0E" d="M24.512,45.721h3.822v1.715c0,1.559,1.274,2.836,2.92,2.836c1.554,0,2.828-1.277,2.828-2.836v-3.492
	c0-1.623-0.84-2.869-3.107-2.839l-1.491-0.03v-3.431h1.647c1.553,0,2.796-1.247,2.796-2.837v-2.526c0-1.559-1.274-2.838-2.765-2.838
	c-1.584,0-2.859,1.279-2.859,2.838l0.032,1.122h-3.542v-0.966c0-3.524,2.828-6.361,6.37-6.361s6.37,2.837,6.37,6.361v2.213
	c0,1.81-0.715,3.368-1.834,4.522c1.43,1.248,2.362,3.056,2.362,5.176v2.246c0,3.742-3.014,6.734-6.773,6.734
	c-3.759,0-6.586-2.992-6.742-6.734L24.512,45.721z"/>
<path fill="none" stroke="#120C0E" stroke-width="0.156" stroke-miterlimit="3.863" d="M24.512,45.72h3.822v1.716
	c0,1.559,1.274,2.836,2.92,2.836c1.554,0,2.828-1.277,2.828-2.836v-3.492c0-1.623-0.84-2.869-3.107-2.839l-1.491-0.03v-3.431h1.647
	c1.553,0,2.796-1.247,2.796-2.837v-2.526c0-1.559-1.274-2.838-2.765-2.838c-1.584,0-2.859,1.279-2.859,2.838l0.032,1.122h-3.542
	v-0.966c0-3.524,2.828-6.361,6.37-6.361s6.37,2.837,6.37,6.361v2.213c0,1.81-0.715,3.368-1.834,4.522
	c1.43,1.248,2.362,3.056,2.362,5.176v2.246c0,3.742-3.014,6.734-6.773,6.734c-3.759,0-6.586-2.992-6.742-6.734L24.512,45.72z"/>
</svg>
