<?xml version="1.0" encoding="utf-8"?>
<!-- Generator: Adobe Illustrator 14.0.0, SVG Export Plug-In . SVG Version: 6.00 Build 43363)  -->
<!DOCTYPE svg PUBLIC "-//W3C//DTD SVG 1.1//EN" "http://www.w3.org/Graphics/SVG/1.1/DTD/svg11.dtd">
<svg version="1.1" id="Calque_1" xmlns="http://www.w3.org/2000/svg" xmlns:xlink="http://www.w3.org/1999/xlink" x="0px" y="0px"
	 width="79.356px" height="79.25px" viewBox="0 0 79.356 79.25" enable-background="new 0 0 79.356 79.25" xml:space="preserve">
<path fill-rule="evenodd" clip-rule="evenodd" fill="#ED1C24" d="M39.685,0c30.494,0,49.557,33.011,34.301,59.437
	c-15.238,26.41-53.362,26.425-68.617,0C-9.887,33.011,9.189,0,39.685,0z"/>
<path fill="none" stroke="#ED1C24" stroke-width="0" stroke-miterlimit="3.863" d="M39.685,0c30.494,0,49.557,33.011,34.301,59.437
	c-15.238,26.41-53.362,26.425-68.617,0C-9.887,33.011,9.189,0,39.685,0z"/>
<path fill-rule="evenodd" clip-rule="evenodd" fill="#FFFFFF" d="M39.653,68.229c-22.028,0-35.792-23.847-24.778-42.938
	c11.014-19.077,38.558-19.077,49.572,0C75.462,44.383,61.697,68.229,39.653,68.229z"/>
<path fill="none" stroke="#ED1C24" stroke-width="0" stroke-miterlimit="3.863" d="M39.653,68.229
	c-22.028,0-35.792-23.847-24.778-42.938c11.014-19.077,38.558-19.077,49.572,0C75.462,44.383,61.697,68.229,39.653,68.229z"/>
<path fill-rule="evenodd" clip-rule="evenodd" fill="#120C0E" d="M28.158,50.115c-2.766,0-4.086-2.189-4.086-5.328
	c0-3.138,1.32-5.329,4.086-5.329c2.749,0,4.07,2.191,4.07,5.329C32.229,47.926,30.907,50.115,28.158,50.115z M28.732,55.024
	c-8.451,0-10.439-7.487-10.439-15.426c0-7.938,1.988-15.426,10.439-15.426c4.428,0,8.094,2.33,8.405,7.659h-5.344
	c-0.466-1.958-1.523-3.045-3.496-3.045c-3.479,0-4.505,5.173-4.365,8.14c5.033-4.707,13.64-2.563,13.64,8.046
	C37.572,50.364,34.884,55.024,28.732,55.024z"/>
<path fill="none" stroke="#000000" stroke-width="0" stroke-miterlimit="3.863" d="M28.158,50.115c-2.766,0-4.086-2.189-4.086-5.328
	c0-3.138,1.32-5.329,4.086-5.329c2.749,0,4.07,2.191,4.07,5.329C32.229,47.926,30.907,50.115,28.158,50.115z M28.732,55.024
	c-8.451,0-10.439-7.487-10.439-15.426c0-7.938,1.988-15.426,10.439-15.426c4.428,0,8.094,2.33,8.405,7.659h-5.344
	c-0.466-1.958-1.523-3.045-3.496-3.045c-3.479,0-4.505,5.173-4.365,8.14c5.033-4.707,13.64-2.563,13.64,8.046
	C37.572,50.364,34.884,55.024,28.732,55.024z"/>
<path fill-rule="evenodd" clip-rule="evenodd" fill="#120C0E" d="M51.632,49.852c-2.299,0-3.978-1.601-3.978-7.891v-4.723
	c0-6.276,1.679-7.892,3.978-7.892c2.313,0,3.992,1.616,3.992,7.892v4.723C55.624,48.251,53.945,49.852,51.632,49.852z
	 M51.632,54.527c-6.463,0-9.399-4.272-9.399-14.929c0-10.641,2.937-14.929,9.399-14.929c6.478,0,9.414,4.288,9.414,14.929
	C61.046,50.255,58.109,54.527,51.632,54.527z"/>
<path fill="none" stroke="#000000" stroke-width="0" stroke-miterlimit="3.863" d="M51.632,49.852c-2.299,0-3.978-1.601-3.978-7.891
	v-4.723c0-6.276,1.679-7.892,3.978-7.892c2.313,0,3.992,1.616,3.992,7.892v4.723C55.624,48.251,53.945,49.852,51.632,49.852z
	 M51.632,54.527c-6.463,0-9.399-4.272-9.399-14.929c0-10.641,2.937-14.929,9.399-14.929c6.478,0,9.414,4.288,9.414,14.929
	C61.046,50.255,58.109,54.527,51.632,54.527z"/>
</svg>
