<?xml version="1.0" encoding="utf-8"?>
<!-- Generator: Adobe Illustrator 14.0.0, SVG Export Plug-In . SVG Version: 6.00 Build 43363)  -->
<!DOCTYPE svg PUBLIC "-//W3C//DTD SVG 1.1//EN" "http://www.w3.org/Graphics/SVG/1.1/DTD/svg11.dtd">
<svg version="1.1" id="Calque_1" xmlns="http://www.w3.org/2000/svg" xmlns:xlink="http://www.w3.org/1999/xlink" x="0px" y="0px"
	 width="79.258px" height="79.259px" viewBox="0 0 79.258 79.259" enable-background="new 0 0 79.258 79.259" xml:space="preserve">
<path fill="none" stroke="#120C0E" stroke-width="0" stroke-miterlimit="3.863" d="M62.917,7.923
	c4.971,6.633,7.922,14.867,7.922,23.784c0,21.873-17.756,39.629-39.628,39.629c-8.482,0-16.343-2.656-22.79-7.192 M35.7,35.684
	c2.982,2.252,5.639,4.909,7.876,7.907"/>
<circle fill="#FFFFFF" cx="39.63" cy="39.629" r="39.629"/>
<circle fill="none" stroke="#000000" stroke-width="0" stroke-miterlimit="3.863" cx="39.63" cy="39.629" r="39.629"/>
<path fill-rule="evenodd" clip-rule="evenodd" fill="#BFBFBF" d="M24.545,53.378c-3.604,0-5.328-2.858-5.328-6.975
	c0-4.102,1.724-6.976,5.328-6.976c3.62,0,5.344,2.874,5.344,6.976C29.889,50.52,28.165,53.378,24.545,53.378z M25.322,59.81
	c-11.061,0-13.67-9.803-13.67-20.195c0-10.377,2.609-20.181,13.67-20.181c5.795,0,10.579,3.045,10.983,10.021h-6.99
	c-0.606-2.578-1.989-4.008-4.568-4.008c-4.551,0-5.903,6.789-5.716,10.673c6.586-6.168,17.849-3.356,17.849,10.532
	C36.88,53.704,33.354,59.81,25.322,59.81z"/>
<path fill="none" stroke="#BFBFBF" stroke-width="0" stroke-miterlimit="3.863" d="M24.545,53.378c-3.604,0-5.328-2.858-5.328-6.975
	c0-4.102,1.724-6.976,5.328-6.976c3.62,0,5.344,2.874,5.344,6.976C29.889,50.52,28.165,53.378,24.545,53.378z M25.322,59.81
	c-11.061,0-13.67-9.803-13.67-20.195c0-10.377,2.609-20.181,13.67-20.181c5.795,0,10.579,3.045,10.983,10.021h-6.99
	c-0.606-2.578-1.989-4.008-4.568-4.008c-4.551,0-5.903,6.789-5.716,10.673c6.586-6.168,17.849-3.356,17.849,10.532
	C36.88,53.704,33.354,59.81,25.322,59.81z"/>
<path fill-rule="evenodd" clip-rule="evenodd" fill="#BFBFBF" d="M55.273,53.036c-3.013,0-5.204-2.098-5.204-10.33v-6.184
	c0-8.218,2.191-10.33,5.204-10.33c3.014,0,5.22,2.112,5.22,10.33v6.184C60.493,50.938,58.287,53.036,55.273,53.036z M55.273,59.157
	c-8.466,0-12.304-5.608-12.304-19.543c0-13.936,3.838-19.543,12.304-19.543c8.483,0,12.319,5.607,12.319,19.543
	C67.592,53.549,63.756,59.157,55.273,59.157z"/>
<path fill="none" stroke="#BFBFBF" stroke-width="0" stroke-miterlimit="3.863" d="M55.273,53.036c-3.013,0-5.204-2.098-5.204-10.33
	v-6.184c0-8.218,2.191-10.33,5.204-10.33c3.014,0,5.22,2.112,5.22,10.33v6.184C60.493,50.938,58.287,53.036,55.273,53.036z
	 M55.273,59.157c-8.466,0-12.304-5.608-12.304-19.543c0-13.936,3.838-19.543,12.304-19.543c8.483,0,12.319,5.607,12.319,19.543
	C67.592,53.549,63.756,59.157,55.273,59.157z"/>
<path fill="#120C0E" d="M7.209,62.249L62.092,7.146c1.508,1.135,3.31,2.394,5.189,4.288c0.854,0.87,3.309,3.48,4.117,4.443
	c0.87,1.072,0.093,0.497,0.652,1.258L17.166,72.113c-2.097-0.668-5.142-3.961-6.975-5.811C8.529,64.625,8.389,63.802,7.209,62.249z"
	/>
<path fill="none" stroke="#120C0E" stroke-width="0" stroke-miterlimit="3.863" d="M7.209,62.249L62.092,7.146
	c1.508,1.135,3.31,2.394,5.189,4.288c0.854,0.87,3.309,3.48,4.117,4.443c0.87,1.072,0.093,0.497,0.652,1.258L17.166,72.113
	c-2.097-0.668-5.142-3.961-6.975-5.811C8.529,64.625,8.389,63.802,7.209,62.249z"/>
</svg>
